<svg width="42" height="24" viewBox="0 0 42 24" fill="none" xmlns="http://www.w3.org/2000/svg">
<path d="M42 8.8421C42 6.49703 39.7875 4.24801 35.8492 2.58979C31.911 0.931576 26.5695 1.77048e-07 21 0C15.4305 -1.77048e-07 10.089 0.931576 6.15076 2.58979C2.2125 4.24801 8.40978e-07 6.49703 0 8.8421L21 8.8421H42Z" fill="#A1652C"/>
<rect x="2.75439" y="11.3685" width="36.4918" height="1.26316" fill="#A1652C"/>
<path d="M42 15.1579C42 17.503 39.7875 19.752 35.8492 21.4102C31.911 23.0684 26.5695 24 21 24C15.4305 24 10.089 23.0684 6.15076 21.4102C2.2125 19.752 8.40978e-07 17.503 0 15.1579L21 15.1579H42Z" fill="#A1652C"/>
</svg>
