<svg width="23" height="42" viewBox="0 0 23 42" fill="none" xmlns="http://www.w3.org/2000/svg">
<path d="M21.6493 0.00866611L16.2535 0C10.1914 0 6.27377 4.02325 6.27377 10.2503V14.9763H0.848455C0.379637 14.9763 0 15.3568 0 15.8261V22.6736C0 23.143 0.380071 23.5229 0.848455 23.5229H6.27377V40.8014C6.27377 41.2707 6.65341 41.6506 7.12222 41.6506H14.2007C14.6696 41.6506 15.0492 41.2702 15.0492 40.8014V23.5229H21.3927C21.8615 23.5229 22.2411 23.143 22.2411 22.6736L22.2437 15.8261C22.2437 15.6007 22.1541 15.385 21.9952 15.2255C21.8364 15.066 21.6199 14.9763 21.3948 14.9763H15.0492V10.97C15.0492 9.0444 15.5076 8.06685 18.0136 8.06685L21.6485 8.06555C22.1169 8.06555 22.4965 7.68509 22.4965 7.21626V0.857944C22.4965 0.389543 22.1173 0.00953272 21.6493 0.00866611Z" fill="white"/>
</svg>
