<svg width="222" height="18" viewBox="0 0 222 18" fill="none" xmlns="http://www.w3.org/2000/svg">
<path d="M6.0182 4.3094C4.84799 4.3094 3.92315 4.70037 3.24368 5.48231C2.5696 6.26424 2.23256 7.34277 2.23256 8.7179C2.23256 10.0876 2.55881 11.1527 3.21132 11.913C3.86384 12.668 4.79407 13.0455 6.00202 13.0455C6.75699 13.0455 7.60634 12.9134 8.55005 12.6491V13.7331C7.81126 14.0081 6.8999 14.1456 5.81598 14.1456C4.24671 14.1456 3.03606 13.671 2.18402 12.7219C1.33199 11.762 0.905966 10.4085 0.905966 8.66127C0.900573 7.85238 1.01652 7.10819 1.25379 6.42872C1.49646 5.74385 1.83889 5.16414 2.28109 4.68959C2.72329 4.21503 3.26525 3.84833 3.90698 3.58948C4.5487 3.32524 5.25784 3.19582 6.03438 3.20121C7.16144 3.20121 8.13751 3.40613 8.96259 3.81598L8.4368 4.87563C7.64408 4.49815 6.83788 4.3094 6.0182 4.3094ZM14.3243 5.87866C14.691 5.87866 15.0092 5.90563 15.2788 5.95955L15.1171 7.08392C14.7989 7.01382 14.5077 6.97877 14.2435 6.97877C13.5963 6.97877 13.0436 7.24031 12.5852 7.7634C12.1268 8.28648 11.8977 8.939 11.8977 9.72093V14H10.6843V6.02427H11.6873L11.8249 7.49646H11.8815C12.1781 6.97337 12.534 6.57432 12.9492 6.29929C13.3698 6.01887 13.8282 5.87866 14.3243 5.87866ZM19.8387 14.1456C18.6577 14.1456 17.7247 13.787 17.0399 13.0698C16.3604 12.3525 16.0207 11.3522 16.0207 10.0688C16.0207 8.78531 16.3361 7.76609 16.9671 7.01112C17.6088 6.25615 18.4447 5.87866 19.4747 5.87866C20.51 5.87866 21.3189 6.20762 21.9014 6.86552C22.4838 7.52342 22.775 8.38894 22.775 9.46208V10.2305H17.2745C17.3014 11.1635 17.5387 11.8753 17.9863 12.366C18.4339 12.8514 19.0783 13.094 19.9196 13.094C20.7662 13.094 21.6021 12.9134 22.4271 12.5521V13.6279C22.0119 13.8113 21.6101 13.9434 21.2219 14.0243C20.8336 14.1052 20.3725 14.1456 19.8387 14.1456ZM21.4807 9.24368C21.4807 8.48332 21.3109 7.90091 20.9711 7.49646C20.6314 7.09201 20.1433 6.88979 19.507 6.88979C18.8761 6.88979 18.3665 7.0974 17.9782 7.51264C17.5953 7.92787 17.3715 8.50489 17.3068 9.24368H21.4807ZM25.4963 11.8079C25.4963 12.2393 25.6284 12.5709 25.8927 12.8028C26.1569 13.0347 26.5263 13.1507 27.0009 13.1507C27.7612 13.1507 28.3544 12.9457 28.7804 12.5359C29.2065 12.1207 29.4195 11.541 29.4195 10.7968V10.0768L28.2142 10.1254C27.2543 10.1631 26.5614 10.3141 26.1353 10.5784C25.7093 10.8426 25.4963 11.2524 25.4963 11.8079ZM30.6328 14H29.7349L29.4923 12.8675H29.4357C29.0366 13.3637 28.6402 13.7007 28.2466 13.8787C27.8529 14.0566 27.3595 14.1456 26.7663 14.1456C25.9682 14.1456 25.3453 13.9407 24.8977 13.5308C24.4555 13.121 24.2344 12.5413 24.2344 11.7917C24.2344 10.1847 25.5206 9.34075 28.0929 9.25986L29.4518 9.21941V8.72599C29.4518 8.08965 29.317 7.62588 29.0474 7.33468C28.7777 7.03809 28.3275 6.88979 27.6965 6.88979C27.071 6.88979 26.3376 7.09201 25.4963 7.49646L25.1242 6.57432C25.9655 6.11594 26.8661 5.88675 27.8259 5.88675C28.7858 5.88675 29.4923 6.09976 29.9453 6.52578C30.4036 6.9518 30.6328 7.62858 30.6328 8.55612V14ZM34.4241 11.6542C34.4241 12.1341 34.5347 12.5035 34.7558 12.7624C34.9823 13.0212 35.2897 13.1507 35.6779 13.1507C36.0716 13.1507 36.4437 13.1021 36.7942 13.0051V13.9272C36.6702 13.9865 36.4733 14.0377 36.2037 14.0809C35.9395 14.124 35.713 14.1456 35.5242 14.1456C33.9819 14.1456 33.2108 13.334 33.2108 11.7108V6.96259H32.0702V6.38018L33.2108 5.87866L33.7204 4.17189H34.4241V6.02427H36.7376V6.96259H34.4241V11.6542ZM41.7605 14.1456C40.5795 14.1456 39.6466 13.787 38.9618 13.0698C38.2823 12.3525 37.9425 11.3522 37.9425 10.0688C37.9425 8.78531 38.258 7.76609 38.889 7.01112C39.5307 6.25615 40.3665 5.87866 41.3965 5.87866C42.4319 5.87866 43.2408 6.20762 43.8232 6.86552C44.4056 7.52342 44.6968 8.38894 44.6968 9.46208V10.2305H39.1963C39.2233 11.1635 39.4606 11.8753 39.9082 12.366C40.3558 12.8514 41.0002 13.094 41.8414 13.094C42.6881 13.094 43.5239 12.9134 44.349 12.5521V13.6279C43.9338 13.8113 43.532 13.9434 43.1438 14.0243C42.7555 14.1052 42.2944 14.1456 41.7605 14.1456ZM43.4026 9.24368C43.4026 8.48332 43.2327 7.90091 42.893 7.49646C42.5533 7.09201 42.0652 6.88979 41.4289 6.88979C40.7979 6.88979 40.2883 7.0974 39.9001 7.51264C39.5172 7.92787 39.2934 8.50489 39.2287 9.24368H43.4026ZM48.1219 7.71486C47.7444 8.25952 47.5557 9.03876 47.5557 10.0526C47.5557 11.0664 47.7418 11.8348 48.1138 12.3579C48.4913 12.8756 49.0414 13.1345 49.764 13.1345C50.5891 13.1345 51.1877 12.9107 51.5598 12.4631C51.9318 12.0101 52.1179 11.2848 52.1179 10.2872V10.0364C52.1179 8.89855 51.9291 8.08965 51.5517 7.60971C51.1742 7.12976 50.5729 6.88979 49.7478 6.88979C49.0414 6.88979 48.4994 7.16481 48.1219 7.71486ZM52.1179 12.9323C51.5571 13.7412 50.7374 14.1456 49.6588 14.1456C48.5857 14.1456 47.7579 13.7897 47.1755 13.0779C46.5931 12.3552 46.3019 11.3387 46.3019 10.0283C46.3019 8.7179 46.5931 7.69869 47.1755 6.97068C47.7579 6.24267 48.5803 5.87866 49.6427 5.87866C50.7104 5.87866 51.5301 6.26963 52.1017 7.05157H52.1988L52.1422 6.47725L52.1179 5.91911V2.67543H53.3231V14H52.3444L52.1826 12.9323H52.1179ZM61.382 7.08392C61.9375 6.28581 62.7572 5.88675 63.8411 5.88675C64.925 5.88675 65.7555 6.24806 66.3325 6.97068C66.9095 7.6879 67.198 8.70172 67.198 10.0121C67.198 11.3225 66.9041 12.3391 66.3163 13.0617C65.7339 13.7843 64.9061 14.1456 63.833 14.1456C62.7652 14.1456 61.9483 13.7546 61.382 12.9727H61.2931L61.0342 14H60.1687V2.67543H61.382V5.42568C61.382 6.0728 61.3632 6.62555 61.3254 7.08392H61.382ZM65.3942 12.3337C65.7609 11.7944 65.9442 11.0098 65.9442 9.97978C65.9442 8.94439 65.7609 8.17324 65.3942 7.66633C65.0329 7.15942 64.4531 6.90597 63.655 6.90597C62.8623 6.90597 62.2853 7.14055 61.924 7.60971C61.5627 8.07887 61.382 8.87698 61.382 10.004C61.382 11.1257 61.5681 11.9292 61.9402 12.4146C62.3123 12.8945 62.9108 13.1345 63.7359 13.1345C64.4747 13.1345 65.0275 12.8675 65.3942 12.3337ZM68.924 17.5834C68.5627 17.5834 68.1987 17.543 67.832 17.4621V16.4914C68.1124 16.5507 68.4117 16.5804 68.7299 16.5804C69.5603 16.5804 70.1535 16.1139 70.5094 15.181L70.9543 14.0404L67.7349 6.02427H69.0292L70.7764 10.5703C71.17 11.6488 71.4073 12.3984 71.4882 12.819H71.5448C71.6149 12.544 71.7417 12.1314 71.925 11.5814C72.1138 11.0313 72.7798 9.17897 73.923 6.02427H75.2172L71.7875 15.1082C71.4532 15.998 71.0595 16.6316 70.6065 17.0091C70.1535 17.392 69.5927 17.5834 68.924 17.5834Z" fill="#303030"/>
<g clip-path="url(#clip0_108:1539)">
<path d="M112.389 11.2997V12.1414C112.389 14.5606 111.147 16.0001 108.216 16.0001H95.2969C95.2565 16.0064 95.2152 16.003 95.1764 15.9901C95.1375 15.9773 95.1022 15.9555 95.0733 15.9264C95.0444 15.8973 95.0227 15.8617 95.01 15.8226C94.9973 15.7835 94.9939 15.7419 95.0001 15.7012V2.29906C94.9939 2.25837 94.9973 2.21678 95.01 2.17765C95.0227 2.13852 95.0444 2.10297 95.0733 2.07385C95.1022 2.04474 95.1375 2.0229 95.1764 2.01008C95.2152 1.99727 95.2565 1.99386 95.2969 2.00012H108.083C110.718 2.00012 111.896 3.12232 111.896 5.6013V5.96004C111.896 7.23862 111.54 8.14006 110.577 8.61838V8.89893C111.841 9.35885 112.389 10.2005 112.389 11.2997ZM107.686 4.75964H98.1327V7.57896H107.686C108.316 7.57896 108.846 7.50077 108.846 6.37856V5.91864C108.846 4.75964 108.316 4.75964 107.686 4.75964ZM109.321 11.2813C109.321 10.4397 108.887 10.0993 108.001 10.0993H98.1327V13.2222H108.001C108.887 13.2222 109.321 12.9416 109.321 12.0632V11.2813Z" fill="#303030"/>
<path d="M131.044 13.5211V15.6827C131.048 15.7256 131.043 15.7689 131.028 15.8096C131.014 15.8502 130.991 15.8872 130.961 15.9179C130.931 15.9486 130.895 15.9723 130.854 15.9873C130.814 16.0023 130.771 16.0082 130.729 16.0046H115.093C115.05 16.0082 115.007 16.0023 114.967 15.9873C114.927 15.9723 114.891 15.9486 114.86 15.9179C114.83 15.8872 114.807 15.8502 114.793 15.8096C114.779 15.7689 114.774 15.7256 114.778 15.6827V2.32198C114.774 2.27906 114.779 2.23574 114.793 2.19509C114.807 2.15444 114.83 2.11745 114.86 2.08674C114.891 2.05603 114.927 2.03234 114.967 2.01736C115.007 2.00238 115.05 1.99646 115.093 2.00004H117.614C117.81 2.00004 117.91 2.11962 117.91 2.32198V13.2221H130.729C130.77 13.2165 130.812 13.2202 130.851 13.233C130.891 13.2458 130.927 13.2673 130.957 13.2959C130.987 13.3246 131.011 13.3597 131.026 13.3986C131.041 13.4376 131.047 13.4794 131.044 13.5211Z" fill="#303030"/>
<path d="M143.113 13.2222H134.14V16.0001H143.113V13.2222Z" fill="#303030"/>
<path d="M130.838 7.60205H143.118V10.403H130.838" fill="#303030"/>
<path d="M143.113 2H127.043V4.77792H143.113V2Z" fill="#303030"/>
<path d="M195.386 13.2222H186.413V16.0001H195.386V13.2222Z" fill="#303030"/>
<path d="M186.413 7.60205H198.688V10.403H186.413" fill="#303030"/>
<path d="M202.483 2H186.413V4.77792H202.483V2Z" fill="#303030"/>
<path d="M145.579 15.6827V2.32198C145.575 2.27906 145.58 2.23574 145.594 2.19509C145.609 2.15444 145.632 2.11745 145.662 2.08674C145.692 2.05603 145.728 2.03234 145.768 2.01736C145.809 2.00238 145.851 1.99646 145.894 2.00004H148.83C149.008 2.00004 149.086 2.07822 149.264 2.23919L159.662 12.2425H159.936V2.32198C159.936 2.12421 160.037 2.00004 160.233 2.00004H162.754C162.796 1.99646 162.839 2.00238 162.88 2.01736C162.92 2.03234 162.956 2.05603 162.986 2.08674C163.016 2.11745 163.039 2.15444 163.053 2.19509C163.068 2.23574 163.073 2.27906 163.069 2.32198V15.6827C163.073 15.7256 163.068 15.7689 163.053 15.8096C163.039 15.8502 163.016 15.8872 162.986 15.9179C162.956 15.9486 162.92 15.9723 162.88 15.9873C162.839 16.0023 162.796 16.0082 162.754 16.0046H159.817C159.639 16.0046 159.562 15.9264 159.384 15.7655L148.986 5.76219H148.712V15.6827C148.712 15.8851 148.611 16.0046 148.415 16.0046H145.894C145.851 16.0082 145.809 16.0023 145.768 15.9873C145.728 15.9723 145.692 15.9486 145.662 15.9179C145.632 15.8872 145.609 15.8502 145.594 15.8096C145.58 15.7689 145.575 15.7256 145.579 15.6827Z" fill="#303030"/>
<path d="M183.947 5.6794V12.3437C183.947 14.6433 182.883 16.023 180.44 16.023H165.946C165.903 16.0266 165.86 16.0207 165.82 16.0057C165.78 15.9907 165.744 15.967 165.714 15.9363C165.683 15.9056 165.66 15.8686 165.646 15.828C165.632 15.7873 165.627 15.744 165.631 15.7011V2.32198C165.627 2.27906 165.632 2.23574 165.646 2.19509C165.66 2.15444 165.683 2.11745 165.714 2.08674C165.744 2.05603 165.78 2.03234 165.82 2.01736C165.86 2.00238 165.903 1.99646 165.946 2.00004H180.44C182.888 2.00004 183.947 3.3798 183.947 5.6794ZM180.851 5.88177C180.851 5.05851 180.481 4.75956 179.755 4.75956H168.763V13.2221H179.755C180.486 13.2221 180.837 12.9416 180.837 12.1229L180.851 5.88177Z" fill="#303030"/>
<path d="M221.553 16H219.269C219.156 15.9966 219.045 15.9634 218.948 15.9037C218.851 15.844 218.772 15.7599 218.717 15.6597L216.511 12.3575H208.081V15.6781C208.081 15.8805 207.981 16 207.784 16H205.264C205.221 16.0036 205.178 15.9977 205.138 15.9827C205.098 15.9677 205.061 15.944 205.031 15.9133C205.001 15.8826 204.978 15.8456 204.964 15.805C204.95 15.7643 204.944 15.721 204.949 15.6781V2.32198C204.944 2.27906 204.95 2.23574 204.964 2.19509C204.978 2.15444 205.001 2.11745 205.031 2.08674C205.061 2.05603 205.098 2.03234 205.138 2.01736C205.178 2.00238 205.221 1.99646 205.264 2.00004H218.224C220.667 2.00004 221.731 3.3798 221.731 5.6794V8.73788C221.731 10.458 221.119 11.6584 219.74 12.1367L221.927 15.4987C222.123 15.7609 221.886 16 221.553 16ZM208.081 9.56114H217.497C218.228 9.56114 218.603 9.28059 218.603 8.46193V5.88177C218.603 5.06311 218.228 4.78256 217.497 4.78256H208.081V9.56114Z" fill="#303030"/>
</g>
<defs>
<clipPath id="clip0_108:1539">
<rect width="127" height="14" fill="white" transform="translate(95 2)"/>
</clipPath>
</defs>
</svg>
