<svg width="42" height="42" viewBox="0 0 42 42" fill="none" xmlns="http://www.w3.org/2000/svg">
<path d="M41.5583 12.2609C41.4568 10.0402 41.1044 8.52362 40.5893 7.19683C40.0661 5.80476 39.2457 4.54386 38.1854 3.50164C37.1445 2.44032 35.8844 1.61871 34.4938 1.09474C33.168 0.579362 31.6532 0.22697 29.4347 0.126059C27.2121 0.0241932 26.5019 0 20.8418 0C15.1816 0 14.4715 0.0241932 12.2489 0.125422C10.0304 0.22697 8.51563 0.57968 7.18981 1.09538C5.7991 1.61903 4.53942 2.44032 3.49823 3.50164C2.43794 4.54353 1.61713 5.80444 1.09367 7.19651C0.578797 8.52362 0.226749 10.0402 0.125936 12.2605C0.0241696 14.4856 0 15.1962 0 20.8618C0 26.5278 0.0241696 27.2387 0.125936 29.4634C0.227067 31.6837 0.579433 33.2004 1.09463 34.5274C1.61778 35.9192 2.43826 37.1804 3.49854 38.2223C4.53942 39.2836 5.79942 40.1049 7.19012 40.6286C8.51563 41.1445 10.0307 41.4969 12.2491 41.5985C14.4722 41.7001 15.182 41.7239 20.8421 41.7239C26.5022 41.7239 27.2123 41.7001 29.435 41.5985C31.6536 41.4969 33.1682 41.1445 34.4941 40.6286C37.2936 39.5449 39.5067 37.3297 40.5893 34.5274C41.1048 33.2004 41.4568 31.6837 41.5583 29.4634C41.6594 27.2383 41.6836 26.5278 41.6836 20.8621C41.6836 15.1962 41.6594 14.4856 41.5583 12.2609ZM37.8066 29.2925C37.714 31.3266 37.3744 32.4312 37.0891 33.1663C36.3879 34.9858 34.9514 36.4237 33.1336 37.1257C32.3993 37.4112 31.2958 37.7512 29.2637 37.8438C27.0665 37.9444 26.4071 37.9654 20.8418 37.9654C15.2761 37.9654 14.6171 37.9444 12.4197 37.8438C10.3878 37.7512 9.28429 37.4112 8.54966 37.1257C7.64458 36.7911 6.82567 36.2579 6.15338 35.5649C5.46105 34.892 4.92837 34.0725 4.59413 33.1663C4.30885 32.4312 3.96922 31.3266 3.87667 29.2925C3.7765 27.0929 3.75519 26.4329 3.75519 20.8625C3.75519 15.2917 3.7765 14.6321 3.87667 12.432C3.96953 10.398 4.30885 9.29335 4.59413 8.55833C4.92837 7.65204 5.46137 6.83234 6.15338 6.15938C6.82567 5.46638 7.64458 4.93318 8.54998 4.59893C9.28429 4.31306 10.3878 3.9734 12.4199 3.88045C14.6175 3.78018 15.2768 3.75886 20.8418 3.75886H20.8414C26.4065 3.75886 27.0657 3.78018 29.2637 3.88077C31.2958 3.9734 32.399 4.31338 33.1336 4.59893C34.0387 4.93349 34.8576 5.4667 35.5299 6.15938C36.2222 6.83234 36.7549 7.65204 37.0889 8.55833C37.3744 9.29335 37.714 10.398 37.8066 12.432C37.9068 14.6317 37.9281 15.2917 37.9281 20.8621C37.9281 26.4329 37.907 27.0925 37.8066 29.2925Z" fill="white"/>
<path d="M20.843 10.1494C14.9322 10.1494 10.1406 14.946 10.1406 20.8625C10.1406 26.779 14.9322 31.5753 20.843 31.5753C26.7541 31.5753 31.5457 26.779 31.5457 20.8625C31.5457 14.946 26.7541 10.1494 20.843 10.1494ZM20.843 27.8165C17.0064 27.8161 13.8958 24.7029 13.8961 20.8621C13.8961 17.0218 17.0064 13.9083 20.8433 13.9083C24.6802 13.9086 27.7904 17.0218 27.7904 20.8621C27.7904 24.7029 24.6799 27.8165 20.843 27.8165Z" fill="white"/>
<path d="M34.4709 9.72633C34.4709 11.1088 33.3512 12.2296 31.97 12.2296C30.5885 12.2296 29.4688 11.1088 29.4688 9.72633C29.4688 8.3435 30.5885 7.22266 31.97 7.22266C33.3512 7.22266 34.4709 8.3435 34.4709 9.72633Z" fill="white"/>
</svg>
