<svg width="62" height="55" viewBox="0 0 62 55" fill="none" xmlns="http://www.w3.org/2000/svg">
<path d="M35.0326 14.2399C33.2683 14.0719 31.5041 14.2819 29.8239 14.87C28.1857 15.458 26.6315 16.3822 25.4133 17.6003C26.7995 16.5502 28.3117 15.7101 29.9499 15.248C31.5881 14.7859 33.3104 14.5759 34.9906 14.7859C38.393 15.08 41.5434 16.8442 43.8117 19.4486C42.8456 18.0204 41.5434 16.8022 40.0312 15.9201C38.477 14.954 36.7548 14.4079 35.0326 14.2399Z" fill="#A1652C"/>
<path d="M34.9065 16.7602C37.1328 16.9702 39.2331 17.9363 40.9553 19.4065C40.1572 18.6084 39.2331 17.9363 38.2249 17.4323C37.2168 16.9282 36.0827 16.6342 34.9485 16.5082C33.8144 16.3821 32.6382 16.4661 31.5461 16.7182C30.4539 16.9702 29.3618 17.4323 28.4377 18.0624C30.4119 16.9702 32.6802 16.5082 34.9065 16.7602Z" fill="#A1652C"/>
<path d="M30.916 18.9445C32.2181 18.5665 33.6043 18.4825 34.9485 18.6505C36.2926 18.8185 37.5528 19.3226 38.729 20.0367C38.1829 19.6166 37.5948 19.2386 36.9647 18.9865C36.3346 18.6925 35.6626 18.5245 34.9485 18.4405C33.6043 18.2304 32.1761 18.3564 30.916 18.9445Z" fill="#A1652C"/>
<path d="M31.294 6.76285C31.9661 7.22491 32.6802 7.68698 33.3942 8.10703C33.0582 8.27506 32.7642 8.40107 32.4281 8.6111C32.0081 8.82113 31.63 9.15717 31.252 9.45121L31.126 9.53522L31.21 9.61923C31.42 9.74525 31.63 9.91327 31.798 10.0813C31.9661 10.2493 32.1341 10.4173 32.3021 10.6274L32.3441 10.6694L32.3861 10.6274C32.6802 10.2073 32.9322 9.82926 33.1842 9.40921C32.8062 10.4173 32.4281 11.4255 32.0921 12.4336C31.084 12.5596 30.1178 12.7697 29.1517 13.1057C27.3035 13.7358 25.6233 14.7859 24.1951 16.0881C27.2195 13.6938 31.0839 12.4336 34.8644 12.8117C36.7547 12.9377 38.6029 13.4837 40.3251 14.3239C42.0474 15.164 43.5596 16.3401 44.8617 17.7683C43.6856 16.2561 42.1734 14.9539 40.4512 14.0298C38.855 13.1897 37.1327 12.6436 35.3265 12.4336C35.0325 11.5515 34.6964 10.6274 34.3184 9.74525C34.5284 10.0813 34.7384 10.3753 34.9905 10.6694L35.0745 10.7954L35.1585 10.7114C35.2845 10.5014 35.4525 10.2913 35.6205 10.1233C35.7886 9.95528 35.9566 9.78726 36.1666 9.61923L36.2086 9.57723L36.1666 9.53522C35.4945 9.07316 34.7804 8.6111 34.1083 8.19104C34.4444 8.02302 34.7384 7.897 35.0745 7.68698C35.4945 7.47695 35.8726 7.1409 36.2506 6.84686L36.3766 6.76285L36.2926 6.67884C36.0826 6.55283 35.8726 6.3848 35.7045 6.21678C35.5365 6.04876 35.3685 5.88074 35.2005 5.67071L35.1585 5.6287L35.1165 5.67071C34.6544 6.3428 34.1924 7.05689 33.7723 7.77099C33.6043 7.43494 33.4783 7.1409 33.2682 6.80486C33.0582 6.3848 32.7222 6.00675 32.4281 5.6287L32.3441 5.50269L32.2601 5.5867C32.1341 5.79672 31.9661 6.00675 31.798 6.17478C31.63 6.3428 31.462 6.51082 31.252 6.67884L31.21 6.72085L31.294 6.76285ZM32.3441 10.5014C32.1761 10.3333 32.0081 10.2073 31.8401 10.0393C31.714 9.91327 31.588 9.74525 31.462 9.57723C31.8821 9.40921 32.2601 9.28319 32.6382 9.03115C32.8482 8.90514 33.0162 8.77912 33.2262 8.6531C32.9322 9.28319 32.6381 9.87127 32.3441 10.5014ZM34.9905 12.3076C34.5284 12.3076 34.1083 12.3076 33.6463 12.3076C33.5623 12.3076 33.4783 12.3076 33.3942 12.3076C33.1002 12.3076 32.8062 12.3076 32.4701 12.3076C32.7642 11.2575 33.0582 10.2493 33.2682 9.19918C33.3942 8.98915 33.5623 8.77912 33.6883 8.52709C33.8143 8.82113 33.9403 9.11517 34.1083 9.3672C34.4444 10.3333 34.6964 11.3415 34.9905 12.3076ZM36.1666 9.53522C35.9986 9.70324 35.8726 9.87127 35.7045 10.0393C35.5785 10.1653 35.4105 10.2913 35.2425 10.4173C35.0745 9.99728 34.9484 9.61923 34.6964 9.24118C34.5704 9.03115 34.4444 8.86313 34.3184 8.6531C34.9484 8.94714 35.5365 9.24118 36.1666 9.53522ZM35.2005 5.71271C35.3685 5.88074 35.5365 6.00675 35.7045 6.17478C35.8306 6.30079 35.9566 6.46881 36.0826 6.63684C35.6625 6.80486 35.2845 6.93088 34.9064 7.18291C34.6964 7.30893 34.5284 7.43494 34.3184 7.56096C34.6124 6.93088 34.9064 6.3428 35.2005 5.71271ZM31.8401 6.21678C31.9661 6.09076 32.1341 5.96475 32.3021 5.83873C32.4701 6.25879 32.5961 6.63684 32.8482 7.01489C32.9742 7.22492 33.1002 7.39294 33.2262 7.60296C32.6382 7.30893 32.0081 6.97288 31.378 6.67884C31.504 6.51082 31.672 6.3428 31.8401 6.21678Z" fill="#A1652C"/>
<path d="M16.5502 9.57723C16.5082 9.74525 16.3401 9.99729 16.0881 10.2493C15.5 10.8794 14.6599 10.9634 13.9038 10.2913C13.1897 9.61924 13.1897 8.69511 13.8198 8.02302C14.0718 7.72898 14.3239 7.64497 14.4079 7.60297L14.5759 7.89701C14.4079 7.93901 14.2398 8.06503 14.0718 8.27505C13.5678 8.77912 13.5678 9.45121 14.1558 9.99729C14.7019 10.5014 15.332 10.5434 15.8781 9.99729C16.0461 9.82926 16.1721 9.61924 16.2141 9.45121L16.5502 9.57723Z" fill="#A1652C"/>
<path d="M15.8361 6.25883L16.6342 7.26696L17.8104 6.34284L17.0122 5.33471L17.3063 5.08267L19.1965 7.47699L18.9025 7.72903L18.0204 6.59487L16.8442 7.519L17.7263 8.65315L17.4323 8.90518L15.5421 6.51086L15.8361 6.25883Z" fill="#A1652C"/>
<path d="M21.8849 4.07453C22.389 4.99866 22.1369 5.79676 21.4228 6.17481C20.7087 6.55286 19.9106 6.30083 19.4486 5.50272C18.9865 4.66261 19.1965 3.8225 19.9106 3.40244C20.6247 3.02439 21.4228 3.27643 21.8849 4.07453ZM19.8266 5.29269C20.1627 5.88077 20.7507 6.21682 21.2968 5.88077C21.8429 5.58673 21.8849 4.91464 21.5068 4.28456C21.2128 3.73849 20.6247 3.36044 20.0366 3.69648C19.4906 4.03253 19.4906 4.70462 19.8266 5.29269Z" fill="#A1652C"/>
<path d="M25.6233 2.56233C26.0014 3.57047 25.5813 4.28457 24.8672 4.5786C24.1111 4.87264 23.355 4.45259 23.019 3.61247C22.683 2.68835 23.019 1.89025 23.7751 1.59621C24.6152 1.30217 25.3293 1.72222 25.6233 2.56233ZM23.439 3.44445C23.6491 4.07454 24.1951 4.49459 24.7832 4.28456C25.3713 4.07454 25.4973 3.40245 25.2453 2.73036C25.0352 2.14228 24.5312 1.68022 23.9011 1.89025C23.313 2.14228 23.187 2.81437 23.439 3.44445Z" fill="#A1652C"/>
<path d="M27.1355 3.31848C27.3455 3.40249 27.5975 3.40249 27.8916 3.36048C28.2696 3.27647 28.4796 3.02444 28.3956 2.7304C28.3536 2.43636 28.1436 2.31034 27.6815 2.26834C27.1355 2.18433 26.7994 2.0163 26.7154 1.59625C26.6314 1.13419 26.9254 0.714132 27.5135 0.588116C27.8076 0.504105 28.0596 0.54611 28.2276 0.588116L28.1856 0.92416C28.0596 0.882154 27.8496 0.840149 27.5975 0.92416C27.1775 1.00817 27.0935 1.30221 27.1355 1.51224C27.1775 1.80628 27.4295 1.89029 27.8496 1.9743C28.3956 2.05831 28.6897 2.22633 28.8157 2.68839C28.8997 3.15045 28.6477 3.61251 27.9756 3.78054C27.6815 3.86455 27.3455 3.82254 27.1775 3.73853L27.1355 3.31848Z" fill="#A1652C"/>
<path d="M31.5461 1.63822L30.3699 1.76423L30.4959 2.85638L31.7981 2.73036L31.8401 3.06641L30.1179 3.23443L29.8239 0.168023L31.4621 0L31.5041 0.336044L30.2439 0.46206L30.3279 1.42819L31.5041 1.30217L31.5461 1.63822Z" fill="#A1652C"/>
<path d="M35.4106 0.0420049L35.2845 1.30217L36.7547 1.47019L36.8808 0.210028L37.2588 0.252033L36.9228 3.31844L36.5447 3.27643L36.7127 1.84825L35.2425 1.68022L35.0745 3.10841L34.6965 3.06641L35.0325 0L35.4106 0.0420049Z" fill="#A1652C"/>
<path d="M40.1572 2.56238L38.981 2.26835L38.729 3.36049L40.0312 3.69653L39.9471 4.03258L38.2669 3.61252L39.023 0.630127L40.6192 1.05018L40.5352 1.38623L39.317 1.09219L39.065 2.01631L40.2412 2.31035L40.1572 2.56238Z" fill="#A1652C"/>
<path d="M41.9635 3.65447L41.2914 4.41057L40.9133 4.24255L43.0136 1.76422L43.4756 1.93224L43.3076 5.16667L42.9296 4.99865L42.9716 3.99052L41.9635 3.65447ZM43.0136 3.73848L43.0556 2.81436C43.0556 2.60433 43.0976 2.43631 43.0976 2.22628C42.9716 2.3943 42.8876 2.52032 42.7616 2.68834L42.1735 3.40244L43.0136 3.73848Z" fill="#A1652C"/>
<path d="M45.7859 3.06638L46.122 3.2764L44.7778 5.67072L45.912 6.30081L45.7439 6.59484L44.2737 5.75473L45.7859 3.06638Z" fill="#A1652C"/>
<path d="M48.5162 5.12472L47.7602 4.57865L47.9702 4.28461L49.8184 5.58678L49.6084 5.88082L48.8523 5.33475L47.2561 7.56104L46.92 7.30901L48.5162 5.12472Z" fill="#A1652C"/>
<path d="M51.2046 6.80486L50.3225 7.72898L51.4146 8.73712L52.2967 7.81299L52.5908 8.10703L50.4905 10.3333L50.1965 10.0393L51.1626 8.98915L50.0705 7.98102L49.1043 9.03115L48.8103 8.77912L50.9106 6.55283L51.2046 6.80486Z" fill="#A1652C"/>
<path d="M51.7927 11.8876L52.8008 11.0895L53.5569 9.24124L53.851 9.57729L53.4729 10.4594C53.3469 10.7114 53.2629 10.8795 53.1789 11.0895C53.3889 11.0475 53.599 11.0055 53.851 10.9215L54.7751 10.7534L55.0691 11.0895L53.0529 11.3835L52.0448 12.1816L51.7927 11.8876Z" fill="#A1652C"/>
<path d="M18.1044 47.8023C17.4323 48.6004 16.5922 48.6424 15.9621 48.1384C15.332 47.6343 15.29 46.7942 15.8781 46.0801C16.5081 45.324 17.3483 45.198 17.9783 45.7441C18.6924 46.2901 18.6924 47.1302 18.1044 47.8023ZM16.2561 46.3741C15.8361 46.8782 15.752 47.5503 16.2141 47.9703C16.7182 48.3484 17.3483 48.1384 17.7683 47.5923C18.1464 47.1302 18.3144 46.4161 17.8103 45.9961C17.3063 45.576 16.6762 45.8281 16.2561 46.3741Z" fill="#A1652C"/>
<path d="M19.2385 49.2727L18.4824 49.9448L18.1464 49.7348L20.6247 47.6345L21.0447 47.8865L20.3726 51.0369L19.9946 50.8269L20.2046 49.8188L19.2385 49.2727ZM20.2886 49.5247L20.4987 48.6006C20.5407 48.3906 20.5827 48.2226 20.6667 48.0545C20.5407 48.1806 20.4147 48.3066 20.2466 48.4326L19.5325 49.0207L20.2886 49.5247Z" fill="#A1652C"/>
<path d="M23.0189 49.3147L22.1788 48.9367L22.3048 48.6426L24.3631 49.5668L24.2371 49.8608L23.397 49.4828L22.2628 51.9611L21.8848 51.7931L23.0189 49.3147Z" fill="#A1652C"/>
<path d="M24.4891 52.2971C24.6152 52.4651 24.8672 52.6332 25.1192 52.7172C25.4973 52.8432 25.7913 52.7172 25.8753 52.4231C25.9593 52.1291 25.8333 51.9611 25.4973 51.667C25.0772 51.331 24.8672 50.9949 24.9932 50.6169C25.1192 50.1548 25.6233 49.9448 26.1694 50.1128C26.4634 50.1968 26.6734 50.3229 26.7574 50.4489L26.5474 50.7429C26.4634 50.6589 26.2954 50.5329 26.0433 50.4489C25.6233 50.3229 25.4133 50.5329 25.3713 50.7009C25.2872 50.9949 25.4133 51.163 25.7913 51.457C26.2114 51.7931 26.4214 52.1291 26.2534 52.5492C26.1273 53.0112 25.6653 53.3052 24.9512 53.0952C24.6572 53.0112 24.4051 52.8432 24.2791 52.6752L24.4891 52.2971Z" fill="#A1652C"/>
<path d="M29.4038 53.9773L29.6978 50.9109L30.1179 50.9529L30.958 52.5912C31.168 52.9692 31.294 53.3052 31.4201 53.6413C31.4201 53.2212 31.4621 52.8432 31.5041 52.3811L31.6301 51.121L32.0081 51.163L31.7141 54.2294L31.336 54.1874L30.4959 52.5492C30.3279 52.1711 30.1599 51.8351 30.0339 51.457C30.0339 51.8351 29.9919 52.2131 29.9499 52.7172L29.8239 54.0193L29.4038 53.9773Z" fill="#A1652C"/>
<path d="M33.8564 53.2633L33.5623 54.2294H33.1423L34.0244 51.121L34.4864 51.079L35.6626 54.1034H35.2426L34.8645 53.1372L33.8564 53.2633ZM34.8645 52.9272L34.5285 52.0451C34.4444 51.8351 34.4024 51.667 34.3604 51.499C34.3184 51.667 34.2764 51.8771 34.2344 52.0451L33.9824 52.9272H34.8645Z" fill="#A1652C"/>
<path d="M37.0068 51.205L36.0827 51.373L36.0406 51.037L38.2669 50.6589L38.3089 50.995L37.3848 51.163L37.8469 53.8514L37.4688 53.9354L37.0068 51.205Z" fill="#A1652C"/>
<path d="M39.6111 50.3229L40.1571 52.0451C40.3672 52.7172 40.7452 52.8852 41.1233 52.7592C41.5433 52.6332 41.7534 52.2551 41.5433 51.6251L40.9973 49.9028L41.3753 49.7768L41.9214 51.4991C42.2154 52.3812 41.8374 52.9272 41.2073 53.0953C40.6192 53.2633 40.0311 53.0953 39.7791 52.1711L39.233 50.4489L39.6111 50.3229Z" fill="#A1652C"/>
<path d="M42.6355 49.3148C42.8035 49.1887 43.0556 49.0627 43.3076 48.9367C43.6856 48.7687 43.9797 48.7267 44.2317 48.7687C44.4417 48.8107 44.6098 48.9787 44.6938 49.1887C44.8618 49.5668 44.7358 49.9028 44.4837 50.1549C44.7358 50.1129 44.9458 50.2809 45.1558 50.5329C45.4078 50.869 45.6179 51.121 45.7439 51.205L45.3658 51.373C45.2818 51.331 45.1138 51.121 44.8618 50.785C44.6098 50.4489 44.3997 50.3649 44.0637 50.4909L43.7276 50.6589L44.2737 51.8771L43.8957 52.0451L42.6355 49.3148ZM43.5596 50.4069L43.9377 50.2389C44.3157 50.0709 44.4837 49.7348 44.3157 49.3988C44.1477 49.0207 43.8117 49.0207 43.4336 49.1887C43.2656 49.2728 43.1396 49.3568 43.0976 49.3988L43.5596 50.4069Z" fill="#A1652C"/>
<path d="M46.962 49.3988L47.214 50.3649L46.878 50.5749L46.0799 47.4245L46.4999 47.1725L49.0623 49.1887L48.7262 49.3988L47.9281 48.7687L46.962 49.3988ZM47.6341 48.5586L46.92 47.9706C46.752 47.8445 46.626 47.7185 46.4999 47.5925C46.542 47.7605 46.626 47.9706 46.668 48.1386L46.878 49.0627L47.6341 48.5586Z" fill="#A1652C"/>
<path d="M48.1802 45.9543L48.4743 45.7022L50.2385 47.8025L51.2466 46.9624L51.4567 47.2144L50.1545 48.3066L48.1802 45.9543Z" fill="#A1652C"/>
<path d="M37.1327 38.3512C36.5446 37.7211 36.2506 36.881 36.2506 35.9148V26.5056H38.7709L39.821 24.5733H36.2506V23.0191V20.4568L33.0162 22.6411L28.2275 25.8755C29.7817 26.0015 30.5798 26.7576 30.5798 28.1018V36.6709C30.5798 38.2672 31.0419 39.5273 32.008 40.4094C32.9741 41.3336 34.3603 41.7956 36.1666 41.7956C37.6367 41.7956 38.8969 41.5016 39.947 40.9135C40.9972 40.3254 41.7113 39.6113 42.1313 38.8132C41.4172 39.1073 40.6191 39.2753 39.779 39.2753C38.6029 39.3173 37.7208 38.9812 37.1327 38.3512ZM38.3088 40.6195C37.4687 40.7035 36.5866 40.7035 35.7465 40.4514C34.9064 40.2414 34.1083 39.6533 33.6042 38.8972C33.1002 38.1411 32.9321 37.217 32.9321 36.3349C32.9321 34.6547 32.9321 32.9744 33.0162 31.2942L33.1002 28.7739C33.1422 27.9338 33.1842 27.0937 33.2262 26.2536C33.2682 27.0937 33.3102 27.9338 33.3522 28.7739L33.4362 31.2942C33.4782 32.9744 33.4782 34.6547 33.5202 36.3349C33.5202 37.133 33.6462 37.9311 34.0663 38.6032C34.4863 39.2753 35.1164 39.7373 35.8725 40.0314C36.6286 40.2834 37.4687 40.3674 38.2668 40.3254C39.1069 40.3254 39.905 40.1574 40.6611 39.7793C39.9891 40.2414 39.1489 40.4934 38.3088 40.6195Z" fill="#A1652C"/>
<path d="M50.0284 38.3512C49.9864 38.3092 49.9864 38.3092 49.9864 38.2672C49.4403 37.6371 49.1463 36.839 49.1463 35.8728V26.4636H51.6666L52.2127 25.4555L52.7168 24.5313H51.7507H49.1463V20.4568L41.1653 25.8755C42.7195 26.0015 43.5176 26.7576 43.5176 28.1018V36.6709C43.5176 38.2672 43.9796 39.5273 44.9458 40.4094C45.4918 40.9555 46.2059 41.2916 47.088 41.5016C47.6761 41.6696 48.3482 41.7536 49.1043 41.7536C50.5745 41.7536 51.8347 41.4596 52.8848 40.8715C53.9349 40.2834 54.649 39.5693 55.0691 38.7712C54.355 39.0653 53.5569 39.2333 52.7168 39.2333C51.4986 39.3173 50.6165 38.9812 50.0284 38.3512ZM51.3306 40.6195C50.4905 40.7035 49.6084 40.7035 48.7683 40.4514C47.9282 40.2414 47.1301 39.6533 46.626 38.8972C46.1219 38.1411 45.9539 37.217 45.9539 36.3349C45.9539 34.6547 45.9539 32.9744 46.0379 31.2942L46.1219 28.7739C46.1639 27.9338 46.2059 27.0937 46.2479 26.2536C46.2899 27.0937 46.332 27.9338 46.374 28.7739L46.458 31.2942C46.5 32.9744 46.5 34.6547 46.542 36.3349C46.542 37.133 46.668 37.9311 47.088 38.6032C47.5081 39.2753 48.1382 39.7373 48.8943 40.0314C49.6504 40.2834 50.4905 40.3674 51.2886 40.3254C52.1287 40.3254 52.9268 40.1574 53.6829 39.7794C53.0528 40.2414 52.2127 40.4934 51.3306 40.6195Z" fill="#A1652C"/>
<path d="M59.0596 21.7169C59.9417 21.7169 60.6978 21.4649 61.2019 21.0028C61.748 20.4988 62 19.8267 62 18.9445C62 18.0624 61.748 17.3903 61.2019 16.8863C60.6558 16.3822 59.9417 16.1722 59.0596 16.1722C58.1775 16.1722 57.4214 16.4242 56.8753 16.9283C56.3293 17.4323 56.0772 18.1044 56.0772 18.9445C56.0772 19.8267 56.3293 20.4988 56.8753 21.0028C57.4214 21.4649 58.1355 21.7169 59.0596 21.7169Z" fill="#A1652C"/>
<path d="M56.3712 27.3877V41.3335H61.916V24.5733H54.145C55.6151 24.8253 56.3712 25.7915 56.3712 27.3877ZM59.0596 26.5476C59.2696 28.7319 59.3116 30.9161 59.3536 33.1004C59.3536 35.2847 59.3116 37.469 59.0596 39.6533C58.8496 37.469 58.8076 35.2847 58.7656 33.1004C58.7656 30.9161 58.8075 28.7319 59.0596 26.5476Z" fill="#A1652C"/>
<path d="M11.9295 16.1724C11.8035 16.1724 11.6775 16.1724 11.5515 16.2144C11.4675 16.2144 11.3835 16.2144 11.2575 16.2144C11.1314 16.2144 10.9634 16.2564 10.8374 16.2564C10.7954 16.2564 10.7534 16.2564 10.7114 16.2564C10.6694 16.2564 10.6274 16.2564 10.5854 16.2564C10.4173 16.2564 10.2913 16.2984 10.1233 16.3404C10.0813 16.3404 9.99729 16.3404 9.95528 16.3825C9.78726 16.4245 9.61924 16.4665 9.45122 16.4665C9.40921 16.4665 9.36721 16.4665 9.3252 16.5085C9.15718 16.5505 8.94715 16.5925 8.77913 16.6345C8.77913 16.6345 8.73713 16.6345 8.69512 16.6345C6.67886 17.2226 4.95664 18.2727 3.48645 19.7849C1.17615 22.2212 0 25.2456 0 28.9421C0.0420054 32.6386 1.17615 35.663 3.48645 38.0993C4.95664 39.6115 6.67886 40.6617 8.69512 41.2498C8.69512 41.2498 8.73712 41.2498 8.77913 41.2498C8.94715 41.2918 9.15718 41.3338 9.3252 41.3758C9.36721 41.3758 9.40921 41.3758 9.45122 41.4178C9.61924 41.4598 9.78726 41.5018 9.95528 41.5018C9.99729 41.5018 10.0813 41.5018 10.1233 41.5438C10.2913 41.5858 10.4173 41.5858 10.5854 41.6278C10.6274 41.6278 10.6694 41.6278 10.7114 41.6278C10.7534 41.6278 10.7954 41.6278 10.8374 41.6278C10.9634 41.6278 11.1314 41.6698 11.2575 41.6698C11.3415 41.6698 11.4255 41.6698 11.5515 41.6698C11.6775 41.6698 11.8035 41.6698 11.9295 41.7118C12.0135 41.7118 12.1396 41.7118 12.2236 41.7118C12.3496 41.7118 12.4756 41.7118 12.6016 41.7118C9.95528 41.6698 8.19106 38.9394 7.43496 34.6549C7.26694 33.9408 7.18292 33.2687 7.09891 32.6386C6.9729 31.6305 6.93089 30.4963 6.93089 29.1942C6.93089 29.1521 6.93089 29.0681 6.93089 29.0261C6.93089 28.9841 6.93089 28.9841 6.93089 28.9421C6.93089 28.9001 6.93089 28.9001 6.93089 28.8581C6.93089 28.8161 6.93089 28.7321 6.93089 28.6901C6.93089 28.6481 6.93089 28.6061 6.93089 28.5221C6.93089 28.5641 6.93089 28.6061 6.93089 28.6901C6.93089 27.4299 6.9729 26.2538 7.09891 25.2456C7.18292 24.6155 7.26694 23.9435 7.43496 23.2294C8.23306 18.9448 9.95528 16.2144 12.6016 16.1724C12.4756 16.1724 12.3496 16.1724 12.2236 16.1724C12.1396 16.1724 12.0135 16.1724 11.9295 16.1724ZM4.28455 23.5234C3.69648 25.2876 3.52846 27.1359 3.57046 28.9841C3.57046 30.8324 3.9065 32.6806 4.49458 34.4448C4.78862 35.327 5.12466 36.1671 5.58672 37.0072C6.00678 37.8473 6.51084 38.6454 7.18292 39.2755C6.42683 38.7294 5.88076 37.9313 5.37669 37.1332C4.87263 36.3351 4.49458 35.453 4.11653 34.5709C3.44445 32.8066 3.06639 30.9164 3.02439 28.9841C3.02439 27.0939 3.19241 25.1616 3.90651 23.3554C4.24255 22.4733 4.74661 21.6331 5.29268 20.877C5.88075 20.1209 6.51084 19.4069 7.18292 18.7768C5.92276 20.247 4.87263 21.8012 4.28455 23.5234Z" fill="#A1652C"/>
<path d="M17.6003 16.6762C17.6003 16.6762 17.5583 16.6762 17.5163 16.6762C17.3483 16.6342 17.1382 16.5922 16.9702 16.5502C16.9282 16.5502 16.8862 16.5502 16.8442 16.5082C16.6762 16.4662 16.5082 16.4242 16.3401 16.4242C16.2981 16.4242 16.2141 16.4242 16.1721 16.3822C16.0041 16.3402 15.8781 16.3402 15.7101 16.2982C15.668 16.2982 15.626 16.2982 15.584 16.2982C15.542 16.2982 15.5 16.2982 15.458 16.2982C15.332 16.2982 15.164 16.2562 15.038 16.2562C14.954 16.2562 14.8699 16.2562 14.7439 16.2562C14.6179 16.2562 14.4919 16.2562 14.3659 16.2142C14.2819 16.2142 14.1558 16.2142 14.0718 16.2142C13.9458 16.2142 13.8198 16.2142 13.6938 16.2142C16.3401 16.2562 18.1044 18.9865 18.8605 23.2711C19.0285 23.9852 19.1125 24.6573 19.1965 25.2874C19.3225 26.2955 19.3645 27.4297 19.3645 28.7318C19.3645 28.6898 19.3645 28.6478 19.3645 28.5638C19.3645 28.6058 19.3645 28.6478 19.3645 28.7318C19.3645 28.7738 19.3645 28.8579 19.3645 28.8999C19.3645 28.9419 19.3645 28.9419 19.3645 28.9839C19.3645 29.0259 19.3645 29.0259 19.3645 29.0679C19.3645 29.1099 19.3645 29.1939 19.3645 29.2359C19.3645 30.4961 19.3225 31.6722 19.1965 32.6804C19.1125 33.3104 19.0285 33.9825 18.8605 34.6966C18.0624 38.9812 16.3401 41.7116 13.6938 41.7536C13.8198 41.7536 13.9458 41.7536 14.0718 41.7536C14.1558 41.7536 14.2819 41.7536 14.3659 41.7536C14.4919 41.7536 14.6179 41.7536 14.7439 41.7116C14.8279 41.7116 14.9119 41.7116 15.038 41.7116C15.164 41.7116 15.332 41.6696 15.458 41.6696C15.5 41.6696 15.542 41.6696 15.584 41.6696C15.626 41.6696 15.668 41.6696 15.7101 41.6696C15.8781 41.6696 16.0041 41.6275 16.1721 41.5855C16.2141 41.5855 16.2981 41.5855 16.3401 41.5435C16.5082 41.5015 16.6762 41.4595 16.8442 41.4595C16.8862 41.4595 16.9282 41.4595 16.9702 41.4175C17.1382 41.3755 17.3483 41.3335 17.5163 41.2915C17.5163 41.2915 17.5583 41.2915 17.6003 41.2915C19.6166 40.7034 21.3388 39.6533 22.809 38.1411C25.1193 35.7048 26.2954 32.6804 26.2954 28.9839C26.2534 25.2874 25.1193 22.263 22.809 19.8267C21.3388 18.3145 19.6166 17.2643 17.6003 16.6762ZM22.2629 34.5706C21.9268 35.4527 21.5068 36.3348 21.0027 37.1329C20.4987 37.9311 19.9526 38.7292 19.1965 39.2752C19.8686 38.6031 20.3726 37.805 20.7927 37.0069C21.2127 36.1668 21.5908 35.3267 21.8848 34.4446C22.4729 32.6804 22.809 30.8321 22.809 28.9839C22.809 27.1356 22.6829 25.2454 22.0949 23.5231C21.5068 21.7589 20.4147 20.2047 19.2385 18.7765C19.9106 19.4066 20.5407 20.1207 21.1287 20.8768C21.6748 21.6329 22.1369 22.473 22.5149 23.3551C23.229 25.1614 23.397 27.0936 23.397 28.9839C23.313 30.9161 22.977 32.8064 22.2629 34.5706Z" fill="#A1652C"/>
</svg>
