<svg width="398" height="349" viewBox="0 0 398 349" fill="none" xmlns="http://www.w3.org/2000/svg">
<path d="M224.887 91.4109C213.561 90.3323 202.236 91.6805 191.45 95.4556C180.934 99.2307 170.957 105.163 163.137 112.983C172.036 106.242 181.743 100.849 192.259 97.8824C202.775 94.9163 213.831 93.568 224.617 94.9163C246.458 96.8038 266.682 108.129 281.243 124.847C275.041 115.679 266.682 107.859 256.975 102.197C246.998 95.9949 235.942 92.4895 224.887 91.4109Z" fill="#A1652C"/>
<path d="M224.077 107.59C238.369 108.938 251.851 115.14 262.907 124.578C257.783 119.454 251.851 115.14 245.38 111.904C238.908 108.668 231.628 106.781 224.347 105.972C217.067 105.163 209.517 105.702 202.506 107.32C195.495 108.938 188.484 111.904 182.552 115.949C195.225 108.938 209.786 105.972 224.077 107.59Z" fill="#A1652C"/>
<path d="M198.46 121.612C206.82 119.185 215.718 118.645 224.347 119.724C232.975 120.803 241.065 124.038 248.615 128.622C245.109 125.926 241.334 123.499 237.29 121.881C233.245 119.994 228.931 118.915 224.347 118.376C215.718 117.028 206.55 117.836 198.46 121.612Z" fill="#A1652C"/>
<path d="M200.887 43.4134C205.202 46.3795 209.786 49.3457 214.37 52.0422C212.212 53.1208 210.325 53.9297 208.168 55.278C205.471 56.6262 203.045 58.7834 200.618 60.6709L199.809 61.2102L200.348 61.7495C201.696 62.5585 203.045 63.6371 204.123 64.7157C205.202 65.7943 206.28 66.8729 207.359 68.2211L207.628 68.4907L207.898 68.2211C209.786 65.5246 211.404 63.0978 213.021 60.4013C210.595 66.8729 208.168 73.3444 206.011 79.816C199.539 80.6249 193.337 81.9732 187.135 84.1304C175.271 88.1751 164.485 94.9163 155.317 103.275C174.732 87.9055 199.539 79.816 223.807 82.2428C235.941 83.0518 247.806 86.5572 258.862 91.9502C269.917 97.3432 279.624 104.893 287.983 114.061C280.433 104.354 270.726 95.9949 259.67 90.0626C249.424 84.6697 238.368 81.1642 226.773 79.816C224.886 74.1534 222.729 68.2211 220.302 62.5585C221.65 64.7157 222.998 66.6032 224.616 68.4907L225.156 69.2997L225.695 68.7604C226.504 67.4121 227.582 66.0639 228.661 64.9853C229.74 63.9067 230.818 62.8281 232.166 61.7495L232.436 61.4799L232.166 61.2102C227.852 58.2441 223.268 55.278 218.954 52.5815C221.111 51.5029 222.998 50.6939 225.156 49.3457C227.852 47.9974 230.279 45.8402 232.706 43.9527L233.515 43.4134L232.975 42.8741C231.627 42.0652 230.279 40.9866 229.2 39.908C228.122 38.8294 227.043 37.7508 225.965 36.4025L225.695 36.1329L225.425 36.4025C222.459 40.7169 219.493 45.301 216.797 49.885C215.718 47.7278 214.909 45.8403 213.561 43.6831C212.213 40.9866 210.055 38.5597 208.168 36.1329L207.628 35.3239L207.089 35.8632C206.28 37.2115 205.202 38.5597 204.123 39.6383C203.045 40.7169 201.966 41.7955 200.618 42.8741L200.348 43.1438L200.887 43.4134ZM207.628 67.4121C206.55 66.3336 205.471 65.5246 204.393 64.446C203.584 63.6371 202.775 62.5585 201.966 61.4799C204.662 60.4013 207.089 59.5923 209.516 57.9744C210.864 57.1655 211.943 56.3565 213.291 55.5476C211.404 59.5923 209.516 63.3674 207.628 67.4121ZM224.616 79.0071C221.65 79.0071 218.954 79.0071 215.988 79.0071C215.448 79.0071 214.909 79.0071 214.37 79.0071C212.482 79.0071 210.595 79.0071 208.437 79.0071C210.325 72.2658 212.213 65.7943 213.561 59.053C214.37 57.7048 215.448 56.3566 216.257 54.7387C217.066 56.6262 217.875 58.5137 218.954 60.1316C221.111 66.3336 222.729 72.8051 224.616 79.0071ZM232.166 61.2102C231.088 62.2888 230.279 63.3674 229.2 64.446C228.391 65.255 227.313 66.0639 226.234 66.8729C225.156 64.1764 224.347 61.7495 222.729 59.3227C221.92 57.9744 221.111 56.8958 220.302 55.5476C224.347 57.4351 228.122 59.3227 232.166 61.2102ZM225.965 36.6722C227.043 37.7508 228.122 38.5597 229.2 39.6383C230.009 40.4473 230.818 41.5259 231.627 42.6045C228.931 43.6831 226.504 44.492 224.077 46.1099C222.729 46.9188 221.65 47.7278 220.302 48.5367C222.189 44.492 224.077 40.7169 225.965 36.6722ZM204.393 39.908C205.202 39.099 206.28 38.2901 207.359 37.4811C208.437 40.1776 209.246 42.6045 210.864 45.0313C211.673 46.3795 212.482 47.4581 213.291 48.8064C209.516 46.9188 205.471 44.7617 201.427 42.8741C202.236 41.7955 203.314 40.7169 204.393 39.908Z" fill="#A1652C"/>
<path d="M106.241 61.4798C105.972 62.5584 104.893 64.1763 103.275 65.7942C99.4999 69.8389 94.1069 70.3782 89.2532 66.0639C84.6692 61.7495 84.6692 55.8172 88.714 51.5028C90.3319 49.6153 91.9497 49.076 92.489 48.8063L93.5676 50.6939C92.489 50.9635 91.4104 51.7725 90.3318 53.1207C87.096 56.3565 87.096 60.6709 90.8711 64.1763C94.3766 67.4121 98.4213 67.6818 101.927 64.1763C103.005 63.0977 103.814 61.7495 104.084 60.6709L106.241 61.4798Z" fill="#A1652C"/>
<path d="M101.658 40.1776L106.781 46.6492L114.331 40.7169L109.208 34.2453L111.095 32.6274L123.229 47.9974L121.342 49.6153L115.679 42.3348L108.129 48.2671L113.792 55.5476L111.904 57.1655L99.77 41.7955L101.658 40.1776Z" fill="#A1652C"/>
<path d="M140.487 26.1559C143.723 32.0882 142.105 37.2115 137.521 39.6384C132.937 42.0652 127.813 40.4473 124.847 35.324C121.881 29.931 123.229 24.538 127.813 21.8415C132.398 19.4147 137.521 21.0326 140.487 26.1559ZM127.274 33.9757C129.431 37.7508 133.206 39.908 136.712 37.7508C140.217 35.8633 140.487 31.5489 138.06 27.5042C136.173 23.9987 132.397 21.5719 128.622 23.7291C125.117 25.8863 125.117 30.2006 127.274 33.9757Z" fill="#A1652C"/>
<path d="M164.485 16.4485C166.912 22.9201 164.215 27.5041 159.631 29.3917C154.778 31.2792 149.924 28.5827 147.767 23.1897C145.61 17.2575 147.767 12.1341 152.62 10.2466C158.013 8.35905 162.597 11.0555 164.485 16.4485ZM150.463 22.1111C151.812 26.1559 155.317 28.8524 159.092 27.5041C162.867 26.1559 163.676 21.8415 162.058 17.5271C160.71 13.752 157.474 10.7859 153.429 12.1341C149.654 13.752 148.845 18.0664 150.463 22.1111Z" fill="#A1652C"/>
<path d="M174.192 21.3023C175.541 21.8416 177.159 21.8416 179.046 21.5719C181.473 21.0326 182.821 19.4147 182.282 17.5272C182.012 15.6396 180.664 14.8307 177.698 14.561C174.192 14.0218 172.035 12.9432 171.496 10.2467C170.957 7.28053 172.844 4.58405 176.619 3.77511C178.507 3.23581 180.125 3.50546 181.203 3.77511L180.934 5.93229C180.125 5.66265 178.776 5.393 177.159 5.93229C174.462 6.47159 173.923 8.35912 174.192 9.70737C174.462 11.5949 176.08 12.1342 178.776 12.6735C182.282 13.2128 184.169 14.2914 184.978 17.2575C185.518 20.2237 183.9 23.1898 179.585 24.2684C177.698 24.8077 175.541 24.538 174.462 23.9987L174.192 21.3023Z" fill="#A1652C"/>
<path d="M202.505 10.5163L194.955 11.3252L195.764 18.3361L204.123 17.5272L204.393 19.6843L193.337 20.7629L191.45 1.0786L201.966 0L202.236 2.15719L194.146 2.96613L194.686 9.16805L202.236 8.3591L202.505 10.5163Z" fill="#A1652C"/>
<path d="M227.313 0.269645L226.504 8.3591L235.942 9.4377L236.751 1.34824L239.177 1.61789L237.02 21.3022L234.593 21.0326L235.672 11.8645L226.234 10.7859L225.156 19.954L222.729 19.6843L224.886 0L227.313 0.269645Z" fill="#A1652C"/>
<path d="M257.783 16.4485L250.233 14.561L248.615 21.5719L256.974 23.7291L256.434 25.8863L245.648 23.1898L250.502 4.04471L260.749 6.7412L260.21 8.89838L252.39 7.01084L250.772 12.9431L258.322 14.8307L257.783 16.4485Z" fill="#A1652C"/>
<path d="M269.378 23.4595L265.064 28.3131L262.637 27.2345L276.119 11.3253L279.085 12.4038L278.007 33.1668L275.58 32.0882L275.849 25.6166L269.378 23.4595ZM276.119 23.9988L276.389 18.0665C276.389 16.7182 276.658 15.6396 276.658 14.2914C275.849 15.37 275.31 16.1789 274.501 17.2575L270.726 21.8416L276.119 23.9988Z" fill="#A1652C"/>
<path d="M293.916 19.6843L296.073 21.0326L287.444 36.4025L294.725 40.4473L293.646 42.3348L284.208 36.9418L293.916 19.6843Z" fill="#A1652C"/>
<path d="M311.443 32.8972L306.589 29.3917L307.937 27.5042L319.802 35.8633L318.454 37.7508L313.6 34.2454L303.353 48.5368L301.196 46.9189L311.443 32.8972Z" fill="#A1652C"/>
<path d="M328.701 43.683L323.038 49.6153L330.049 56.0869L335.711 50.1546L337.599 52.0421L324.116 66.3335L322.229 64.446L328.431 57.7048L321.42 51.2332L315.218 57.9744L313.331 56.3565L326.813 42.0651L328.701 43.683Z" fill="#A1652C"/>
<path d="M332.476 76.3106L338.948 71.1872L343.801 59.3227L345.689 61.4799L343.262 67.1425C342.453 68.7604 341.914 69.839 341.374 71.1872C342.723 70.9176 344.071 70.6479 345.689 70.1086L351.621 69.03L353.509 71.1872L340.565 73.0748L334.094 78.1981L332.476 76.3106Z" fill="#A1652C"/>
<path d="M116.218 306.86C111.904 311.983 106.511 312.253 102.466 309.017C98.4215 305.782 98.1519 300.389 101.927 295.805C105.972 290.951 111.365 290.142 115.409 293.647C119.993 297.153 119.993 302.546 116.218 306.86ZM104.354 297.692C101.657 300.928 101.118 305.242 104.084 307.939C107.32 310.366 111.365 309.017 114.061 305.512C116.488 302.546 117.567 297.962 114.331 295.265C111.095 292.569 107.05 294.187 104.354 297.692Z" fill="#A1652C"/>
<path d="M123.499 316.298L118.645 320.612L116.488 319.264L132.397 305.782L135.094 307.399L130.78 327.623L128.353 326.275L129.701 319.803L123.499 316.298ZM130.24 317.916L131.589 311.983C131.858 310.635 132.128 309.557 132.667 308.478C131.858 309.287 131.049 310.096 129.971 310.905L125.387 314.68L130.24 317.916Z" fill="#A1652C"/>
<path d="M147.767 316.567L142.374 314.141L143.183 312.253L156.396 318.185L155.587 320.073L150.194 317.646L142.913 333.555L140.486 332.477L147.767 316.567Z" fill="#A1652C"/>
<path d="M157.205 335.713C158.014 336.791 159.632 337.87 161.249 338.409C163.676 339.218 165.564 338.409 166.103 336.521C166.642 334.634 165.833 333.555 163.676 331.668C160.98 329.511 159.631 327.353 160.44 324.927C161.249 321.96 164.485 320.612 167.991 321.691C169.878 322.23 171.226 323.039 171.766 323.848L170.417 325.736C169.878 325.196 168.799 324.387 167.182 323.848C164.485 323.039 163.137 324.387 162.867 325.466C162.328 327.353 163.137 328.432 165.564 330.32C168.26 332.477 169.608 334.634 168.53 337.33C167.721 340.297 164.755 342.184 160.171 340.836C158.283 340.297 156.665 339.218 155.856 338.139L157.205 335.713Z" fill="#A1652C"/>
<path d="M188.754 346.498L190.641 326.814L193.338 327.084L198.731 337.6C200.079 340.027 200.888 342.184 201.697 344.341C201.697 341.645 201.967 339.218 202.236 336.252L203.045 328.162L205.472 328.432L203.584 348.116L201.158 347.847L195.765 337.33C194.686 334.904 193.608 332.746 192.799 330.32C192.799 332.746 192.529 335.173 192.259 338.409L191.45 346.768L188.754 346.498Z" fill="#A1652C"/>
<path d="M217.336 341.914L215.448 348.116H212.752L218.415 328.162L221.381 327.893L228.931 347.307H226.234L223.807 341.106L217.336 341.914ZM223.807 339.757L221.65 334.095C221.111 332.746 220.841 331.668 220.572 330.589C220.302 331.668 220.032 333.016 219.763 334.095L218.145 339.757H223.807Z" fill="#A1652C"/>
<path d="M237.56 328.702L231.628 329.78L231.358 327.623L245.649 325.196L245.919 327.353L239.987 328.432L242.953 345.689L240.526 346.229L237.56 328.702Z" fill="#A1652C"/>
<path d="M254.278 323.039L257.783 334.095C259.132 338.409 261.558 339.488 263.985 338.679C266.682 337.87 268.03 335.443 266.682 331.398L263.176 320.343L265.603 319.534L269.109 330.589C270.996 336.252 268.569 339.757 264.524 340.836C260.749 341.914 256.974 340.836 255.356 334.904L251.851 323.848L254.278 323.039Z" fill="#A1652C"/>
<path d="M273.692 316.567C274.771 315.758 276.389 314.95 278.007 314.141C280.434 313.062 282.321 312.792 283.939 313.062C285.287 313.332 286.366 314.41 286.905 315.759C287.984 318.185 287.175 320.343 285.557 321.96C287.175 321.691 288.523 322.769 289.871 324.387C291.489 326.544 292.837 328.162 293.646 328.702L291.219 329.78C290.68 329.511 289.602 328.162 287.984 326.005C286.366 323.848 285.018 323.309 282.86 324.118L280.703 325.196L284.209 333.016L281.782 334.095L273.692 316.567ZM279.625 323.578L282.051 322.5C284.478 321.421 285.557 319.264 284.478 317.107C283.4 314.68 281.243 314.68 278.816 315.759C277.737 316.298 276.928 316.837 276.659 317.107L279.625 323.578Z" fill="#A1652C"/>
<path d="M301.466 317.107L303.084 323.309L300.927 324.657L295.803 304.433L298.5 302.815L314.948 315.759L312.791 317.107L307.668 313.062L301.466 317.107ZM305.78 311.714L301.196 307.939C300.118 307.13 299.309 306.321 298.5 305.512C298.769 306.59 299.309 307.939 299.578 309.017L300.927 314.95L305.78 311.714Z" fill="#A1652C"/>
<path d="M309.286 294.996L311.174 293.378L322.499 306.86L328.97 301.467L330.319 303.085L321.96 310.096L309.286 294.996Z" fill="#A1652C"/>
<path d="M238.368 246.189C234.593 242.145 232.705 236.752 232.705 230.55V170.148H248.884L255.625 157.744H232.705V147.767V131.319L211.942 145.341L181.203 166.104C191.18 166.913 196.303 171.766 196.303 180.395V235.403C196.303 245.65 199.269 253.739 205.471 259.402C211.673 265.334 220.571 268.3 232.166 268.3C241.604 268.3 249.693 266.413 256.434 262.638C263.175 258.863 267.76 254.279 270.456 249.155C265.872 251.043 260.749 252.122 255.356 252.122C247.806 252.391 242.143 250.234 238.368 246.189ZM245.918 260.75C240.525 261.29 234.862 261.29 229.47 259.672C224.077 258.323 218.953 254.548 215.717 249.695C212.482 244.841 211.403 238.909 211.403 233.246C211.403 222.46 211.403 211.674 211.942 200.888L212.482 184.709C212.751 179.316 213.021 173.923 213.291 168.53C213.56 173.923 213.83 179.316 214.1 184.709L214.639 200.888C214.909 211.674 214.909 222.46 215.178 233.246C215.178 238.369 215.987 243.493 218.684 247.807C221.38 252.121 225.425 255.088 230.279 256.975C235.132 258.593 240.525 259.132 245.648 258.863C251.041 258.863 256.165 257.784 261.018 255.357C256.704 258.323 251.311 259.941 245.918 260.75Z" fill="#A1652C"/>
<path d="M321.15 246.189C320.88 245.92 320.88 245.92 320.88 245.65C317.375 241.605 315.487 236.482 315.487 230.28V169.879H331.666L335.172 163.407L338.407 157.475H332.206H315.487V131.319L264.254 166.104C274.231 166.913 279.355 171.766 279.355 180.395V235.403C279.355 245.65 282.321 253.739 288.523 259.402C292.028 262.907 296.612 265.065 302.275 266.413C306.05 267.492 310.364 268.031 315.218 268.031C324.656 268.031 332.745 266.143 339.486 262.368C346.227 258.593 350.811 254.009 353.508 248.886C348.924 250.773 343.8 251.852 338.407 251.852C330.588 252.391 324.925 250.234 321.15 246.189ZM329.509 260.75C324.116 261.29 318.454 261.29 313.061 259.672C307.668 258.323 302.544 254.548 299.309 249.695C296.073 244.841 294.994 238.909 294.994 233.246C294.994 222.46 294.994 211.674 295.534 200.888L296.073 184.709C296.343 179.316 296.612 173.923 296.882 168.53C297.151 173.923 297.421 179.316 297.691 184.709L298.23 200.888C298.5 211.674 298.5 222.46 298.769 233.246C298.769 238.369 299.578 243.493 302.275 247.807C304.971 252.122 309.016 255.088 313.87 256.975C318.723 258.593 324.116 259.132 329.239 258.863C334.632 258.863 339.756 257.784 344.609 255.357C340.565 258.323 335.172 259.941 329.509 260.75Z" fill="#A1652C"/>
<path d="M379.125 139.408C384.787 139.408 389.641 137.79 392.877 134.824C396.382 131.589 398 127.274 398 121.612C398 115.949 396.382 111.635 392.877 108.399C389.371 105.163 384.787 103.815 379.125 103.815C373.462 103.815 368.608 105.433 365.103 108.668C361.597 111.904 359.979 116.219 359.979 121.612C359.979 127.274 361.597 131.589 365.103 134.824C368.608 137.79 373.192 139.408 379.125 139.408Z" fill="#A1652C"/>
<path d="M361.867 175.811V265.334H397.46V157.744H347.576C357.013 159.362 361.867 165.564 361.867 175.811ZM379.124 170.418C380.473 184.44 380.742 198.461 381.012 212.483C381.012 226.505 380.742 240.527 379.124 254.548C377.776 240.527 377.507 226.505 377.237 212.483C377.237 198.461 377.507 184.44 379.124 170.418Z" fill="#A1652C"/>
<path d="M76.5799 103.815C75.771 103.815 74.9621 103.815 74.1531 104.084C73.6138 104.084 73.0745 104.084 72.2656 104.084C71.4566 104.084 70.3781 104.354 69.5691 104.354C69.2995 104.354 69.0298 104.354 68.7602 104.354C68.4905 104.354 68.2209 104.354 67.9512 104.354C66.8726 104.354 66.0637 104.624 64.9851 104.893C64.7154 104.893 64.1761 104.893 63.9065 105.163C62.8279 105.433 61.7493 105.702 60.6707 105.702C60.4011 105.702 60.1314 105.702 59.8618 105.972C58.7832 106.242 57.4349 106.511 56.3563 106.781C56.3563 106.781 56.0867 106.781 55.8171 106.781C42.874 110.556 31.8184 117.297 22.3808 127.005C7.55014 142.644 0 162.059 0 185.788C0.269648 209.517 7.55014 228.932 22.3808 244.571C31.8184 254.279 42.874 261.02 55.8171 264.795C55.8171 264.795 56.0867 264.795 56.3563 264.795C57.4349 265.065 58.7832 265.334 59.8618 265.604C60.1314 265.604 60.4011 265.604 60.6707 265.874C61.7493 266.143 62.8279 266.413 63.9065 266.413C64.1761 266.413 64.7154 266.413 64.9851 266.683C66.0637 266.952 66.8726 266.952 67.9512 267.222C68.2209 267.222 68.4905 267.222 68.7602 267.222C69.0298 267.222 69.2995 267.222 69.5691 267.222C70.3781 267.222 71.4566 267.491 72.2656 267.491C72.8049 267.491 73.3442 267.491 74.1531 267.491C74.9621 267.491 75.771 267.491 76.5799 267.761C77.1192 267.761 77.9282 267.761 78.4674 267.761C79.2764 267.761 80.0854 267.761 80.8943 267.761C63.9065 267.491 52.5813 249.964 47.7276 222.46C46.649 217.876 46.1097 213.562 45.5704 209.517C44.7615 203.045 44.4919 195.765 44.4919 187.406C44.4919 187.136 44.4919 186.597 44.4919 186.327C44.4919 186.058 44.4919 186.058 44.4919 185.788C44.4919 185.518 44.4919 185.518 44.4919 185.249C44.4919 184.979 44.4919 184.44 44.4919 184.17C44.4919 183.9 44.4919 183.631 44.4919 183.091C44.4919 183.361 44.4919 183.631 44.4919 184.17C44.4919 176.081 44.7615 168.53 45.5704 162.059C46.1097 158.014 46.649 153.7 47.7276 149.116C52.8509 121.612 63.9065 104.084 80.8943 103.815C80.0854 103.815 79.2764 103.815 78.4674 103.815C77.9282 103.815 77.1192 103.815 76.5799 103.815ZM27.5041 151.003C23.729 162.328 22.6504 174.193 22.9201 186.058C22.9201 197.922 25.0772 209.787 28.8523 221.112C30.7398 226.775 32.897 232.168 35.8631 237.56C38.5596 242.953 41.7954 248.077 46.1097 252.121C41.2561 248.616 37.7507 243.493 34.5149 238.369C31.2791 233.246 28.8523 227.583 26.4255 221.921C22.1111 210.596 19.6843 198.461 19.4146 186.058C19.4146 173.923 20.4932 161.52 25.0772 149.925C27.2344 144.262 30.4702 138.869 33.9756 134.015C37.7506 129.162 41.7954 124.578 46.1097 120.533C38.0203 129.971 31.2791 139.948 27.5041 151.003Z" fill="#A1652C"/>
<path d="M112.983 107.05C112.983 107.05 112.713 107.05 112.443 107.05C111.365 106.781 110.016 106.511 108.938 106.242C108.668 106.242 108.398 106.242 108.129 105.972C107.05 105.702 105.972 105.433 104.893 105.433C104.623 105.433 104.084 105.433 103.814 105.163C102.736 104.893 101.927 104.893 100.848 104.624C100.579 104.624 100.309 104.624 100.039 104.624C99.7698 104.624 99.5001 104.624 99.2305 104.624C98.4216 104.624 97.343 104.354 96.534 104.354C95.9947 104.354 95.4554 104.354 94.6465 104.354C93.8375 104.354 93.0286 104.354 92.2196 104.084C91.6804 104.084 90.8714 104.084 90.3321 104.084C89.5231 104.084 88.7142 104.084 87.9053 104.084C104.893 104.354 116.218 121.881 121.072 149.385C122.151 153.969 122.69 158.284 123.229 162.328C124.038 168.8 124.308 176.081 124.308 184.44C124.308 184.17 124.308 183.9 124.308 183.361C124.308 183.631 124.308 183.9 124.308 184.44C124.308 184.709 124.308 185.249 124.308 185.518C124.308 185.788 124.308 185.788 124.308 186.058C124.308 186.327 124.308 186.327 124.308 186.597C124.308 186.866 124.308 187.406 124.308 187.675C124.308 195.765 124.038 203.315 123.229 209.787C122.69 213.831 122.151 218.146 121.072 222.73C115.949 250.234 104.893 267.761 87.9053 268.031C88.7142 268.031 89.5231 268.031 90.3321 268.031C90.8714 268.031 91.6804 268.031 92.2196 268.031C93.0286 268.031 93.8375 268.031 94.6465 267.761C95.1858 267.761 95.7251 267.761 96.534 267.761C97.343 267.761 98.4216 267.491 99.2305 267.491C99.5001 267.491 99.7698 267.491 100.039 267.491C100.309 267.491 100.579 267.491 100.848 267.491C101.927 267.491 102.736 267.222 103.814 266.952C104.084 266.952 104.623 266.952 104.893 266.682C105.972 266.413 107.05 266.143 108.129 266.143C108.398 266.143 108.668 266.143 108.938 265.874C110.016 265.604 111.365 265.334 112.443 265.065C112.443 265.065 112.713 265.065 112.983 265.065C125.926 261.29 136.981 254.548 146.419 244.841C161.249 229.201 168.799 209.787 168.799 186.058C168.53 162.328 161.249 142.914 146.419 127.274C136.981 117.567 125.926 110.826 112.983 107.05ZM142.913 221.921C140.756 227.583 138.06 233.246 134.824 238.369C131.588 243.493 128.083 248.616 123.229 252.121C127.543 247.807 130.779 242.684 133.476 237.56C136.172 232.167 138.599 226.774 140.487 221.112C144.262 209.787 146.419 197.922 146.419 186.058C146.419 174.193 145.61 162.059 141.835 151.003C138.06 139.678 131.049 129.701 123.499 120.533C127.813 124.578 131.858 129.162 135.633 134.015C139.138 138.869 142.104 144.262 144.531 149.925C149.115 161.52 150.194 173.923 150.194 186.058C149.655 198.461 147.497 210.596 142.913 221.921Z" fill="#A1652C"/>
</svg>
