<svg width="169" height="155" viewBox="0 0 169 155" fill="none" xmlns="http://www.w3.org/2000/svg">
<path d="M166.4 102.702H2.4C1.1 102.702 0 101.602 0 100.302V50.7015C0 49.4015 1.1 48.3016 2.4 48.3016H166.4C167.7 48.3016 168.8 49.4015 168.8 50.7015V100.302C168.7 101.602 167.7 102.702 166.4 102.702Z" fill="#A1652C"/>
<path d="M84.1999 153.601C126.339 153.601 160.5 119.441 160.5 77.3012C160.5 35.1619 126.339 1.00122 84.1999 1.00122C42.0606 1.00122 7.8999 35.1619 7.8999 77.3012C7.8999 119.441 42.0606 153.601 84.1999 153.601Z" stroke="#A1652C" stroke-width="2" stroke-miterlimit="10"/>
<path d="M84.2001 118.901C107.175 118.901 125.8 100.276 125.8 77.3015C125.8 54.3264 107.175 35.7014 84.2001 35.7014C61.2251 35.7014 42.6001 54.3264 42.6001 77.3015C42.6001 100.276 61.2251 118.901 84.2001 118.901Z" fill="#A1652C"/>
<path d="M34.5837 63.558C34.5837 63.1635 34.3372 62.9169 33.9426 62.9169H27.2846C26.8901 62.9169 26.6435 63.1635 26.6435 63.558V76.4301H13.8207V63.558C13.8207 63.1635 13.5742 62.9169 13.1796 62.9169H6.47232C6.07777 62.9169 5.83118 63.1635 5.83118 63.558V97.2424C5.83118 97.637 6.07777 97.8835 6.47232 97.8835H13.1796C13.5742 97.8835 13.8207 97.637 13.8207 97.2424V83.384H26.6435V97.2424C26.6435 97.637 26.8901 97.8835 27.2846 97.8835H33.9426C34.3372 97.8835 34.5837 97.637 34.5837 97.2424V63.558ZM63.527 93.2476L65.0066 97.3904C65.1545 97.7356 65.4011 97.8835 65.7464 97.8835H72.7002C73.1934 97.8835 73.3907 97.5876 73.2427 97.1438L66.2889 78.3042C64.4641 73.2737 62.8366 68.4405 61.6036 63.4594C61.505 63.1141 61.2584 62.9169 60.8638 62.9169H51.6906C51.2961 62.9169 51.0495 63.1141 50.9509 63.4594C49.7179 68.4405 48.0904 73.2737 46.2656 78.3042L39.3118 97.1438C39.1638 97.5876 39.3611 97.8835 39.8543 97.8835H46.8081C47.1534 97.8835 47.4 97.7356 47.5479 97.3904L49.0275 93.2476H63.527ZM61.0118 86.2937H51.5427L52.2331 84.321C53.6634 80.3755 55.1922 75.7889 55.8334 72.5833C55.9813 71.9914 56.5732 71.9914 56.7211 72.5833C57.3129 75.7889 58.8911 80.4249 60.3213 84.321L61.0118 86.2937ZM101.243 96.4533C101.687 96.3054 101.786 96.0588 101.638 95.6642L99.665 90.2885C99.5664 89.894 99.2705 89.746 98.8759 89.894L96.558 90.5844C94.7825 91.1763 93.303 91.3242 91.4782 91.3242C86.5463 91.3242 83.5379 87.3294 83.5379 80.3755C83.5379 73.5203 86.5463 69.5255 91.4782 69.5255C93.7468 69.5255 95.1771 69.7228 96.6073 70.1667L98.9252 70.9064C99.3198 71.0544 99.5664 70.9064 99.7143 70.5119L101.49 64.9389C101.638 64.5444 101.49 64.2978 101.095 64.1498L98.8266 63.4101C96.3607 62.621 94.2893 62.3744 91.4782 62.3744C81.5652 62.3744 75.499 69.3282 75.499 80.3755C75.499 91.4722 81.5652 98.426 91.4782 98.426C94.1907 98.426 96.2127 98.1301 98.8759 97.2424L101.243 96.4533ZM131.393 96.4533C131.837 96.3054 131.935 96.0588 131.787 95.6642L129.815 90.2885C129.716 89.894 129.42 89.746 129.026 89.894L126.708 90.5844C124.932 91.1763 123.453 91.3242 121.628 91.3242C116.696 91.3242 113.688 87.3294 113.688 80.3755C113.688 73.5203 116.696 69.5255 121.628 69.5255C123.896 69.5255 125.327 69.7228 126.757 70.1667L129.075 70.9064C129.469 71.0544 129.716 70.9064 129.864 70.5119L131.639 64.9389C131.787 64.5444 131.639 64.2978 131.245 64.1498L128.976 63.4101C126.51 62.621 124.439 62.3744 121.628 62.3744C111.715 62.3744 105.649 69.3282 105.649 80.3755C105.649 91.4722 111.715 98.426 121.628 98.426C124.34 98.426 126.362 98.1301 129.026 97.2424L131.393 96.4533ZM138.341 62.9169C137.946 62.9169 137.7 63.1635 137.7 63.558V97.2424C137.7 97.637 137.946 97.8835 138.341 97.8835H145.048C145.443 97.8835 145.689 97.637 145.689 97.2424V86.7376H149.931C158.907 86.7376 164.134 82.2496 164.134 74.556C164.134 67.2569 159.548 62.9169 151.657 62.9169H138.341ZM145.689 69.9201H151.657C154.468 69.9201 156.096 71.6462 156.096 74.556C156.096 77.8603 153.827 79.7837 149.931 79.7837H145.689V69.9201Z" fill="#FFE4B4"/>
<path d="M47.8561 37.3472C47.9465 37.4403 47.9857 37.5428 47.9739 37.6548C47.952 37.7565 47.9097 37.8578 47.847 37.9588C47.7116 38.1505 47.5763 38.3422 47.4409 38.5339C47.2955 38.7153 47.1295 38.9065 46.943 39.1077C46.7665 39.3191 46.5592 39.5506 46.321 39.8019C46.0827 40.0533 45.7981 40.3396 45.4671 40.6609C44.9913 41.1229 44.4399 41.5174 43.8132 41.8445C43.1864 42.1717 42.5007 42.345 41.7562 42.3646C41.0016 42.3738 40.2039 42.1937 39.3632 41.8244C38.5124 41.4447 37.6301 40.7842 36.7163 39.8429L34.6226 37.6861C33.6988 36.7344 33.0647 35.8329 32.7205 34.9816C32.3663 34.1199 32.21 33.3172 32.2516 32.5736C32.2932 31.83 32.4868 31.1497 32.8324 30.533C33.178 29.9162 33.5887 29.3768 34.0646 28.9149C34.5611 28.4329 35.0619 28.007 35.567 27.6373C36.0723 27.2472 36.5208 26.9123 36.9124 26.6326C37.098 26.4926 37.246 26.4795 37.3565 26.5933L38.1247 27.3847C38.1749 27.4364 38.2047 27.4878 38.2141 27.5389C38.2236 27.59 38.1869 27.6558 38.1041 27.7361L38.0576 27.7813C37.9027 27.9115 37.7168 28.0719 37.4999 28.2624C37.2833 28.4325 37.051 28.6279 36.803 28.8485C36.5554 29.0487 36.3024 29.2642 36.0441 29.4948C35.7858 29.7255 35.5428 29.9513 35.3152 30.1722C34.9325 30.5437 34.6359 30.9522 34.4254 31.3977C34.2151 31.8228 34.1215 32.2955 34.1443 32.8158C34.1675 33.3157 34.3276 33.8635 34.6246 34.4593C34.9219 35.0346 35.3919 35.6533 36.0346 36.3154L38.1283 38.4722C38.761 39.1239 39.3654 39.612 39.9418 39.9366C40.5184 40.2409 41.0612 40.4171 41.5703 40.4655C42.0796 40.4934 42.5549 40.4138 42.9961 40.2266C43.4476 40.0294 43.8647 39.7451 44.2475 39.3735C44.4647 39.1626 44.6873 38.9365 44.9151 38.6952C45.1534 38.4439 45.3812 38.2026 45.5988 37.9713C45.8266 37.73 46.0338 37.5088 46.2203 37.3076C46.3968 37.0962 46.5524 36.915 46.6872 36.764L46.7493 36.7038C46.9148 36.5431 47.0779 36.5455 47.2385 36.711L47.8561 37.3472Z" fill="white"/>
<path d="M57.6237 31.6322C57.6622 31.6931 57.6786 31.7595 57.6729 31.8314C57.6793 31.8955 57.656 31.9529 57.6027 32.0037C57.4476 32.1359 57.2237 32.2945 56.9313 32.4794C56.6465 32.6765 56.3374 32.889 56.0039 33.1169C55.6826 33.3371 55.3514 33.5551 55.0102 33.7708C54.669 33.9865 54.3644 34.1792 54.0963 34.3487C52.8047 35.1654 51.6642 35.5197 50.6749 35.4118C49.6977 35.2962 48.8239 34.6291 48.0535 33.4106L43.604 26.3735C42.8336 25.155 42.6056 24.0796 42.9201 23.1473C43.2468 22.2072 44.056 21.3289 45.3477 20.5122C45.6157 20.3427 45.9181 20.16 46.2548 19.9642C46.596 19.7484 46.935 19.5427 47.2717 19.3468C47.6007 19.1388 47.9191 18.9545 48.227 18.794C48.5271 18.6212 48.7785 18.4793 48.9812 18.3682C49.0498 18.3419 49.1118 18.3454 49.1669 18.3787C49.2343 18.4044 49.2873 18.4476 49.3258 18.5086L49.9036 19.4225C49.9961 19.5687 49.9753 19.6842 49.8413 19.7689L46.3136 21.9994C45.8262 22.3076 45.4594 22.5907 45.2132 22.8487C44.9592 23.0946 44.8031 23.3468 44.7449 23.6054C44.6789 23.8517 44.6925 24.116 44.7857 24.3983C44.8911 24.6728 45.0516 24.9807 45.2673 25.3219L46.8738 27.8625L52.4851 24.3145C52.5826 24.2529 52.691 24.2355 52.8104 24.2624C52.9297 24.2893 53.0202 24.3514 53.0818 24.4489L53.521 25.1435C53.5826 25.241 53.6 25.3494 53.5731 25.4687C53.5462 25.5881 53.484 25.6786 53.3866 25.7402L47.7752 29.2882L49.7168 32.3589C49.9402 32.7123 50.1534 32.9954 50.3562 33.2083C50.5635 33.4013 50.7964 33.5269 51.055 33.5852C51.3059 33.6312 51.6007 33.5984 51.9393 33.4866C52.2703 33.3626 52.6795 33.1465 53.1669 32.8383L56.6946 30.6078C56.8286 30.5231 56.9419 30.5538 57.0343 30.7L57.6237 31.6322Z" fill="white"/>
<path d="M70.2521 27.0068C70.316 27.183 70.2598 27.303 70.0836 27.3669L68.7824 27.8384C68.6604 27.8826 68.5563 27.9127 68.4701 27.9286C68.3925 27.9261 68.2884 27.8718 68.158 27.7657L62.3229 23.0259L62.14 23.0922L61.7943 23.2175C61.4555 23.3403 61.1302 23.4582 60.8184 23.5712C60.5153 23.6657 60.0878 23.7976 59.5358 23.967L61.7021 29.9444C61.7414 30.0528 61.7419 30.16 61.7036 30.2659C61.6653 30.3718 61.5919 30.4444 61.4835 30.4837L60.3856 30.8815C60.2772 30.9208 60.1743 30.9121 60.0771 30.8553C59.9798 30.7986 59.9116 30.716 59.8723 30.6076L54.7144 16.3757C54.6604 16.2266 54.6574 16.1127 54.7056 16.0339C54.7488 15.9416 54.8603 15.8474 55.0403 15.7516C55.2473 15.6459 55.4907 15.5347 55.7704 15.4179C56.0588 15.2828 56.3564 15.1519 56.6632 15.0254C56.9836 14.8939 57.3065 14.7693 57.6318 14.6514C57.9521 14.5199 58.2614 14.4002 58.5596 14.2921C59.3593 14.0023 60.1318 13.8066 60.8771 13.7052C61.636 13.5989 62.3275 13.6243 62.9519 13.7814C63.5897 13.9336 64.1517 14.2359 64.6377 14.6885C65.1373 15.1361 65.5369 15.7734 65.8366 16.6002L65.8881 16.7425C66.0945 17.3118 66.1998 17.8563 66.2042 18.3761C66.2172 18.8774 66.1428 19.3491 65.9809 19.7911C65.8191 20.2331 65.5834 20.6405 65.2738 21.0134C64.9643 21.3863 64.6012 21.7172 64.1845 22.0062L70.1248 26.8459C70.19 26.8989 70.2325 26.9525 70.2521 27.0068ZM64.0068 17.2633C63.6383 16.2468 63.0576 15.6598 62.2645 15.5026C61.4715 15.3453 60.4379 15.4975 59.1638 15.9593C59.0012 16.0182 58.8182 16.0845 58.6149 16.1582C58.4116 16.2319 58.2039 16.3148 57.992 16.4069C57.7887 16.4806 57.5946 16.5586 57.4098 16.641C57.22 16.7097 57.0666 16.773 56.9495 16.8308L58.9684 22.4015C59.4206 22.253 59.8525 22.1118 60.264 21.978C60.6707 21.8306 60.9892 21.7152 61.2196 21.6317C61.8431 21.4057 62.3773 21.1661 62.8222 20.9128C63.2758 20.6411 63.6259 20.3379 63.8726 20.0031C64.1193 19.6684 64.2601 19.2953 64.2951 18.884C64.3386 18.4541 64.2597 17.9614 64.0583 17.4056L64.0068 17.2633Z" fill="white"/>
<path d="M80.3388 11.0072C80.368 11.236 80.2467 11.3677 79.975 11.4024L75.792 11.9359L77.5567 25.7721C77.5713 25.8865 77.5483 25.9912 77.4877 26.0861C77.4272 26.181 77.3397 26.2358 77.2253 26.2504L76.0455 26.4009C75.931 26.4155 75.8326 26.3844 75.7502 26.3077C75.6677 26.231 75.6192 26.1355 75.6046 26.0211L73.8399 12.1849L69.6568 12.7184C69.5424 12.733 69.4387 12.7172 69.3456 12.6709C69.2525 12.6247 69.1986 12.5443 69.184 12.4299L69.0636 11.4861C69.049 11.3716 69.0801 11.2732 69.1568 11.1908C69.2335 11.1083 69.329 11.0598 69.4434 11.0452L79.7616 9.72918C80.0333 9.69452 80.1856 9.8059 80.2184 10.0633L80.3388 11.0072Z" fill="white"/>
<path d="M86.3145 25.7316C86.3096 25.8468 86.2693 25.9461 86.1936 26.0295C86.118 26.1129 86.0225 26.1521 85.9073 26.1472L84.719 26.0969C84.6037 26.0921 84.5119 26.0449 84.4436 25.9554C84.3752 25.866 84.3435 25.7636 84.3483 25.6484L84.9919 10.4378C84.9968 10.3226 85.0368 10.2305 85.1118 10.1615C85.1875 10.0781 85.283 10.0389 85.3982 10.0438L86.5865 10.094C86.7017 10.0989 86.7935 10.1461 86.8619 10.2356C86.9309 10.3106 86.9629 10.4058 86.9581 10.521L86.3145 25.7316Z" fill="white"/>
<path d="M101.137 20.6733C101.114 20.7862 101.051 20.876 100.948 20.9429C100.846 21.0099 100.738 21.0315 100.625 21.0078L94.1277 19.645L92.6762 26.5659C92.6525 26.6788 92.5895 26.7687 92.4871 26.8356C92.3847 26.9025 92.277 26.9241 92.1641 26.9004L91.0847 26.674C90.9719 26.6504 90.882 26.5873 90.8151 26.4849C90.7482 26.3825 90.7265 26.2749 90.7502 26.162L93.165 14.6483C93.4609 13.2374 94.0464 12.3069 94.9215 11.8571C95.8107 11.4101 97.0031 11.3435 98.4987 11.6572C98.8091 11.7223 99.1534 11.8019 99.5314 11.8959C99.9264 11.9787 100.313 12.0672 100.691 12.1612C101.072 12.2411 101.429 12.3306 101.762 12.4299C102.097 12.515 102.376 12.5883 102.599 12.6498C102.667 12.6787 102.709 12.7243 102.725 12.7867C102.756 12.852 102.764 12.9199 102.749 12.9905L102.527 14.0487C102.491 14.218 102.396 14.2864 102.241 14.2539L98.1559 13.3971C97.5915 13.2788 97.1311 13.2264 96.7747 13.24C96.4213 13.2396 96.1336 13.3118 95.9117 13.4568C95.6928 13.5876 95.5185 13.7867 95.3887 14.0541C95.2731 14.3245 95.1738 14.6572 95.091 15.0523L94.474 17.9942L100.972 19.3569C101.084 19.3806 101.174 19.4437 101.241 19.5461C101.308 19.6485 101.33 19.7561 101.306 19.869L101.137 20.6733Z" fill="white"/>
<path d="M104.086 30.399C104.045 30.5065 103.974 30.5874 103.876 30.6419C103.777 30.6964 103.674 30.7027 103.567 30.6608L102.458 30.2294C102.351 30.1876 102.279 30.1133 102.243 30.0065C102.208 29.8998 102.211 29.7927 102.253 29.6852L107.775 15.4978C107.816 15.3903 107.884 15.3161 107.977 15.275C108.076 15.2206 108.179 15.2143 108.286 15.2561L109.395 15.6875C109.502 15.7293 109.574 15.8036 109.61 15.9104C109.651 16.0037 109.65 16.1041 109.608 16.2116L104.086 30.399Z" fill="white"/>
<path d="M115.831 37.0016C115.794 37.0636 115.742 37.1084 115.676 37.1359C115.622 37.1708 115.56 37.176 115.49 37.1516C115.302 37.0734 115.059 36.946 114.762 36.7694C114.457 36.6052 114.127 36.4263 113.773 36.2327C113.43 36.0464 113.086 35.8502 112.739 35.6442C112.392 35.4382 112.082 35.2542 111.809 35.0924C110.495 34.3124 109.661 33.4572 109.308 32.5267C108.967 31.6037 109.165 30.5222 109.901 29.2825L114.15 22.1228C114.886 20.883 115.741 20.1916 116.714 20.0485C117.7 19.9127 118.85 20.2348 120.164 21.0148C120.437 21.1767 120.737 21.3631 121.064 21.5742C121.411 21.7802 121.749 21.9888 122.076 22.1998C122.411 22.3985 122.72 22.5985 123.002 22.7999C123.293 22.9889 123.533 23.1485 123.724 23.2786C123.779 23.3278 123.804 23.3845 123.799 23.4488C123.807 23.5205 123.792 23.5873 123.756 23.6493L123.204 24.5792C123.115 24.7279 123.003 24.7618 122.867 24.6809L119.278 22.5507C118.782 22.2564 118.363 22.0581 118.021 21.9559C117.687 21.8413 117.391 21.8168 117.134 21.8823C116.885 21.9354 116.656 22.0675 116.447 22.2787C116.25 22.4972 116.048 22.7801 115.842 23.1272L114.308 25.7121L120.017 29.1005C120.117 29.1594 120.181 29.2481 120.211 29.3666C120.242 29.4852 120.227 29.594 120.169 29.6932L119.749 30.3999C119.69 30.4991 119.602 30.5638 119.483 30.594C119.364 30.6242 119.256 30.6099 119.156 30.5511L113.447 27.1626L111.593 30.2869C111.38 30.6464 111.224 30.9649 111.127 31.2422C111.049 31.5146 111.043 31.7792 111.108 32.036C111.181 32.2804 111.344 32.5281 111.598 32.7791C111.858 33.0177 112.237 33.2841 112.733 33.5785L116.322 35.7087C116.458 35.7896 116.482 35.9044 116.394 36.0532L115.831 37.0016Z" fill="white"/>
<path d="M129.935 41.5565C129.143 42.3953 128.34 43.0152 127.526 43.4161C126.722 43.8269 125.922 44.0336 125.127 44.0363C124.342 44.0488 123.562 43.8776 122.787 43.5227C122.021 43.1573 121.277 42.6332 120.554 41.9504C120.25 41.6635 119.956 41.3762 119.672 41.0887C119.399 40.811 119.141 40.538 118.899 40.2697C118.657 40.0217 118.446 39.7933 118.267 39.5843C118.078 39.3858 117.935 39.2216 117.84 39.0918C117.649 38.8526 117.663 38.6176 117.88 38.3869L128.077 27.5823C128.295 27.3516 128.529 27.3244 128.779 27.5008C128.914 27.5886 129.086 27.7213 129.295 27.8989C129.514 28.0659 129.754 28.2629 130.016 28.4899C130.298 28.7163 130.585 28.9579 130.878 29.2145C131.182 29.4811 131.485 29.7579 131.789 30.0448C132.513 30.7276 133.079 31.4404 133.488 32.1833C133.897 32.9261 134.113 33.6949 134.136 34.4898C134.18 35.284 134.019 36.0943 133.656 36.9207C133.313 37.7465 132.74 38.5841 131.939 39.4333L129.935 41.5565ZM130.508 38.0827C131.18 37.3697 131.65 36.6932 131.917 36.0532C132.195 35.423 132.31 34.8282 132.263 34.2686C132.237 33.7084 132.074 33.1778 131.774 32.6765C131.484 32.1852 131.103 31.7169 130.632 31.2716C130.265 30.9253 129.94 30.6287 129.657 30.3819C129.395 30.1345 129.123 29.8976 128.841 29.6712L119.995 39.0447C120.227 39.3032 120.479 39.561 120.752 39.8183C121.025 40.0756 121.344 40.3774 121.711 40.7237C122.183 41.169 122.673 41.522 123.18 41.7826C123.698 42.0532 124.237 42.1855 124.798 42.1795C125.369 42.1833 125.956 42.0337 126.559 41.7307C127.183 41.4271 127.831 40.9188 128.504 40.2059L130.508 38.0827Z" fill="white"/>
<path d="M37.1895 116.957C37.1293 117.048 37.0469 117.099 36.9422 117.112C36.8376 117.124 36.7455 117.093 36.6661 117.019L32.0938 112.738L28.4063 118.298C28.3462 118.388 28.2638 118.44 28.1591 118.452C28.0544 118.464 27.9623 118.433 27.8829 118.359L27.1233 117.648C27.0439 117.573 26.997 117.474 26.9825 117.35C26.968 117.226 26.9909 117.119 27.051 117.029L33.1856 107.779C33.9373 106.646 34.738 106.082 35.5875 106.087C36.4469 106.101 37.4029 106.601 38.4553 107.587C38.6738 107.791 38.9133 108.025 39.1738 108.287C39.4518 108.547 39.7211 108.809 39.9817 109.071C40.2498 109.322 40.4954 109.57 40.7187 109.816C40.9495 110.051 41.1405 110.248 41.2919 110.408C41.334 110.466 41.35 110.527 41.3397 110.591C41.3395 110.664 41.3205 110.729 41.2829 110.785L40.7191 111.636C40.6289 111.772 40.5292 111.788 40.4199 111.686L37.5455 108.995C37.1484 108.623 36.8081 108.36 36.5247 108.205C36.2488 108.038 35.9975 107.968 35.7707 107.995C35.5514 108.01 35.3417 108.108 35.1417 108.288C34.9516 108.477 34.7514 108.731 34.5409 109.048L32.9734 111.411L37.5457 115.692C37.6251 115.767 37.672 115.866 37.6865 115.99C37.701 116.113 37.6781 116.221 37.618 116.311L37.1895 116.957Z" fill="white"/>
<path d="M47.4467 125.525C46.9408 126.534 46.394 127.325 45.8063 127.897C45.2248 128.457 44.6184 128.827 43.9873 129.006C43.3561 129.185 42.7083 129.187 42.0437 129.013C41.3902 128.846 40.7361 128.531 40.0813 128.067C39.4266 127.603 38.8766 127.065 38.4315 126.453C37.9974 125.848 37.6965 125.174 37.5286 124.429C37.3607 123.683 37.3401 122.87 37.4666 121.987C37.6104 121.1 37.9353 120.152 38.4412 119.143L39.6206 116.79C40.1266 115.781 40.6703 114.996 41.2519 114.436C41.8507 113.872 42.4656 113.5 43.0967 113.321C43.7279 113.142 44.3702 113.136 45.0237 113.302C45.6883 113.477 46.3479 113.796 47.0027 114.26C47.6574 114.724 48.2018 115.258 48.6359 115.862C49.081 116.474 49.3875 117.153 49.5554 117.898C49.7233 118.643 49.7354 119.459 49.5916 120.346C49.4539 121.221 49.1321 122.163 48.6262 123.172L47.4467 125.525ZM47.0947 122.087C47.4788 121.321 47.7327 120.619 47.8567 119.982C47.9917 119.352 48.0169 118.777 47.9323 118.256C47.8478 117.734 47.659 117.271 47.3659 116.866C47.0789 116.448 46.7079 116.078 46.2529 115.756C45.7979 115.433 45.3477 115.221 44.9023 115.12C44.4629 115.006 44.0247 115.025 43.5877 115.177C43.1618 115.336 42.7426 115.633 42.3301 116.065C41.9288 116.506 41.5361 117.109 41.1521 117.875L39.9726 120.228C39.5886 120.994 39.3291 121.692 39.1941 122.321C39.0701 122.959 39.0505 123.538 39.135 124.059C39.2196 124.581 39.4054 125.05 39.6923 125.468C39.9965 125.881 40.3761 126.249 40.8311 126.571C41.2861 126.894 41.7332 127.112 42.1726 127.225C42.6181 127.327 43.0537 127.298 43.4797 127.138C43.9056 126.979 44.3192 126.678 44.7206 126.238C45.133 125.805 45.5313 125.206 45.9153 124.44L47.0947 122.087Z" fill="white"/>
<path d="M58.6811 130.806C58.3039 131.87 57.8573 132.726 57.3415 133.373C56.8303 134.007 56.2695 134.458 55.6592 134.725C55.0489 134.993 54.399 135.089 53.7095 135.015C53.0321 134.946 52.3348 134.732 51.6177 134.372C50.9006 134.012 50.2791 133.563 49.7532 133.027C49.2394 132.498 48.8501 131.879 48.5852 131.172C48.3204 130.465 48.1944 129.67 48.2073 128.785C48.237 127.894 48.4404 126.916 48.8176 125.852L49.6971 123.372C50.0744 122.308 50.5186 121.458 51.0299 120.824C51.5579 120.183 52.127 119.729 52.7373 119.462C53.3475 119.194 53.9914 119.095 54.6688 119.163C55.3583 119.238 56.0616 119.455 56.7788 119.815C57.4959 120.175 58.1113 120.62 58.6251 121.15C59.151 121.686 59.5464 122.308 59.8112 123.014C60.0761 123.721 60.1937 124.52 60.1641 125.412C60.139 126.29 59.9379 127.261 59.5606 128.325L58.6811 130.806ZM57.8833 127.483C58.1696 126.675 58.3338 125.95 58.3758 125.306C58.4299 124.669 58.3808 124.101 58.2285 123.601C58.0762 123.102 57.8268 122.675 57.4802 122.319C57.1382 121.951 56.718 121.642 56.2197 121.392C55.7214 121.142 55.2421 120.999 54.7819 120.964C54.3263 120.917 53.889 120.999 53.47 121.211C53.0632 121.43 52.6808 121.782 52.3228 122.266C51.9769 122.757 51.6608 123.406 51.3745 124.214L50.495 126.695C50.2086 127.502 50.0384 128.225 49.9843 128.862C49.9423 129.505 49.9974 130.077 50.1497 130.576C50.302 131.076 50.5492 131.509 50.8912 131.877C51.2499 132.239 51.6784 132.545 52.1768 132.795C52.6751 133.045 53.1521 133.194 53.6077 133.242C54.0679 133.277 54.5014 133.185 54.9083 132.966C55.3151 132.748 55.6914 132.393 56.0373 131.902C56.3953 131.417 56.7174 130.771 57.0038 129.964L57.8833 127.483Z" fill="white"/>
<path d="M70.0058 134.143C69.7678 135.205 69.4185 136.082 68.9579 136.774C68.5103 137.471 67.9707 137.988 67.3393 138.328C66.7209 138.671 66.0205 138.853 65.2383 138.874C64.459 138.882 63.6222 138.743 62.728 138.458C62.3522 138.338 61.9844 138.214 61.6245 138.085C61.2775 137.96 60.945 137.833 60.627 137.703C60.3189 137.591 60.0448 137.482 59.8045 137.377C59.5612 137.286 59.3713 137.204 59.2347 137.132C58.9715 137.005 58.8726 136.796 58.938 136.504L62.0033 122.827C62.0688 122.535 62.242 122.412 62.5231 122.459C62.6716 122.478 62.8705 122.52 63.1197 122.585C63.3718 122.637 63.6549 122.706 63.9689 122.792C64.2989 122.869 64.6403 122.956 64.9932 123.054C65.359 123.157 65.7298 123.268 66.1057 123.388C66.9999 123.672 67.7831 124.05 68.4553 124.52C69.1275 124.99 69.6583 125.565 70.0477 126.243C70.453 126.913 70.704 127.682 70.8007 128.552C70.9133 129.413 70.8491 130.381 70.6081 131.456L70.0058 134.143ZM68.8392 130.892C69.0414 129.99 69.0993 129.205 69.0129 128.537C68.9394 127.874 68.7534 127.31 68.4549 126.845C68.1724 126.371 67.7947 125.98 67.322 125.673C66.8623 125.371 66.3408 125.126 65.7576 124.94C65.3041 124.796 64.9073 124.677 64.5674 124.582C64.2434 124.479 63.9164 124.389 63.5865 124.313L60.9272 136.178C61.2323 136.304 61.5533 136.42 61.8903 136.527C62.2272 136.635 62.6225 136.761 63.0761 136.905C63.6592 137.091 64.2134 137.189 64.7386 137.2C65.2767 137.215 65.7674 137.102 66.2106 136.859C66.6667 136.62 67.0639 136.242 67.4022 135.724C67.7563 135.197 68.0345 134.482 68.2368 133.58L68.8392 130.892Z" fill="white"/>
<path d="M86.223 137.891C86.199 138.38 86.1004 138.864 85.9272 139.343C85.7539 139.821 85.4677 140.243 85.0685 140.61C84.6836 140.964 84.1595 141.24 83.4963 141.437C82.8338 141.621 82.0006 141.677 80.9967 141.605C80.2777 141.553 79.6485 141.474 79.1092 141.367C78.5692 141.274 78.077 141.177 77.6326 141.077C77.4576 141.037 77.3511 140.988 77.313 140.931C77.275 140.874 77.2587 140.791 77.264 140.682L77.304 139.867C77.3093 139.758 77.3472 139.679 77.4177 139.63C77.4882 139.58 77.571 139.559 77.6659 139.566L77.727 139.57C77.9563 139.614 78.213 139.653 78.4973 139.687C78.7951 139.722 79.0929 139.757 79.3907 139.792C79.7027 139.815 80.0008 139.843 80.285 139.877C80.5835 139.898 80.848 139.918 81.0787 139.934C81.6892 139.978 82.1938 139.96 82.5925 139.88C83.0055 139.787 83.3323 139.646 83.573 139.459C83.8143 139.259 83.9897 139.012 84.0994 138.72C84.209 138.428 84.2725 138.105 84.2898 137.752C84.3025 137.494 84.2731 137.26 84.2017 137.051C84.131 136.827 84.0056 136.607 83.8257 136.39C83.6458 136.172 83.4051 135.944 83.1038 135.704C82.8031 135.45 82.4291 135.164 81.9819 134.846L80.0669 133.501C79.1589 132.863 78.4814 132.242 78.0346 131.637C77.602 131.02 77.4057 130.304 77.4457 129.489C77.5064 128.252 77.9716 127.372 78.8414 126.849C79.7112 126.325 80.9261 126.12 82.4863 126.232C82.7847 126.253 83.0964 126.283 83.4213 126.32C83.7598 126.358 84.0844 126.402 84.3951 126.451C84.72 126.488 85.024 126.537 85.3068 126.599C85.5904 126.646 85.8265 126.691 86.0151 126.731C86.2437 126.789 86.3534 126.913 86.344 127.103L86.301 127.979C86.2904 128.196 86.1697 128.297 85.9391 128.28L85.8984 128.277C85.452 128.218 84.9039 128.151 84.2541 128.077C83.6178 128.004 83.0012 127.946 82.4043 127.903C81.3461 127.827 80.5729 127.907 80.0848 128.145C79.6102 128.383 79.3545 128.876 79.3179 129.623C79.2945 130.099 79.4506 130.526 79.786 130.905C80.1214 131.283 80.6644 131.731 81.415 132.249L83.2321 133.504C83.7982 133.9 84.2767 134.275 84.6676 134.63C85.0586 134.986 85.375 135.336 85.6168 135.68C85.8585 136.025 86.025 136.378 86.1162 136.739C86.2074 137.1 86.243 137.484 86.223 137.891Z" fill="white"/>
<path d="M99.1032 140.415C99.1158 140.632 99.0069 140.75 98.7764 140.768L97.5764 140.863C97.4815 140.87 97.4054 140.849 97.348 140.799C97.2898 140.736 97.2448 140.664 97.2129 140.585L95.6186 136.005L90.3509 136.422L89.3215 141.21C89.2992 141.293 89.256 141.372 89.1922 141.445C89.1276 141.505 89.0546 141.538 88.9732 141.544L87.7732 141.639C87.5427 141.657 87.4212 141.558 87.4085 141.341C87.4046 141.273 87.4086 141.225 87.4206 141.196L90.4124 127.639C90.4756 127.32 90.5763 127.06 90.7144 126.858C90.8652 126.641 91.0324 126.471 91.2159 126.348C91.3987 126.21 91.5905 126.113 91.7915 126.057C92.0053 125.985 92.2071 125.942 92.397 125.927C92.5868 125.912 92.7846 125.917 92.9903 125.941C93.1961 125.966 93.3974 126.032 93.5944 126.139C93.7905 126.232 93.9691 126.375 94.1301 126.567C94.3038 126.744 94.4405 126.986 94.54 127.292L99.0746 140.274C99.0897 140.3 99.0993 140.347 99.1032 140.415ZM92.8982 127.872C92.8162 127.633 92.6803 127.521 92.4905 127.536C92.2871 127.552 92.1586 127.685 92.105 127.935L90.6438 134.782L95.1386 134.426L92.8982 127.872Z" fill="white"/>
<path d="M107.392 130.922C107.41 131.03 107.386 131.133 107.32 131.232C107.254 131.331 107.168 131.393 107.062 131.417L100.962 132.839L102.062 139.419C102.08 139.526 102.056 139.63 101.99 139.729C101.924 139.828 101.838 139.889 101.732 139.914L100.719 140.15C100.613 140.175 100.513 140.156 100.42 140.094C100.327 140.032 100.272 139.948 100.254 139.84L98.4239 128.894C98.1996 127.552 98.3903 126.511 98.9959 125.771C99.6148 125.027 100.626 124.492 102.03 124.164C102.322 124.097 102.648 124.028 103.007 123.958C103.378 123.871 103.744 123.793 104.104 123.723C104.461 123.64 104.801 123.574 105.124 123.527C105.444 123.467 105.711 123.418 105.925 123.382C105.994 123.38 106.046 123.403 106.081 123.45C106.13 123.495 106.16 123.551 106.171 123.618L106.339 124.624C106.366 124.785 106.307 124.882 106.161 124.916L102.326 125.81C101.796 125.933 101.379 126.072 101.075 126.227C100.768 126.368 100.543 126.546 100.4 126.761C100.255 126.962 100.171 127.204 100.15 127.488C100.142 127.768 100.169 128.097 100.232 128.472L100.7 131.269L106.8 129.848C106.906 129.823 107.005 129.842 107.098 129.904C107.191 129.966 107.246 130.05 107.264 130.158L107.392 130.922Z" fill="white"/>
<path d="M118.925 134.148C118.943 134.214 118.94 134.28 118.917 134.347C118.906 134.409 118.871 134.459 118.811 134.497C118.641 134.592 118.403 134.699 118.099 134.817C117.798 134.948 117.472 135.089 117.12 135.239C116.782 135.385 116.435 135.527 116.08 135.665C115.725 135.802 115.408 135.925 115.128 136.033C113.784 136.554 112.692 136.666 111.851 136.368C111.023 136.064 110.427 135.257 110.065 133.946L107.97 126.376C107.607 125.065 107.684 123.998 108.2 123.173C108.729 122.344 109.666 121.669 111.01 121.148C111.289 121.04 111.602 120.926 111.948 120.806C112.303 120.669 112.653 120.54 112.999 120.42C113.342 120.288 113.669 120.175 113.98 120.084C114.288 119.979 114.546 119.894 114.752 119.828C114.819 119.817 114.873 119.832 114.913 119.875C114.965 119.912 115 119.964 115.019 120.03L115.291 121.013C115.334 121.17 115.286 121.276 115.147 121.33L111.475 122.753C110.968 122.95 110.573 123.146 110.29 123.343C110.004 123.526 109.802 123.735 109.684 123.97C109.563 124.191 109.507 124.445 109.516 124.732C109.538 125.013 109.6 125.338 109.701 125.705L110.457 128.438L116.297 126.174C116.399 126.135 116.499 126.14 116.596 126.189C116.694 126.238 116.758 126.315 116.787 126.42L116.994 127.167C117.023 127.272 117.01 127.379 116.956 127.487C116.901 127.595 116.823 127.669 116.722 127.708L110.882 129.972L111.796 133.275C111.901 133.656 112.015 133.967 112.138 134.209C112.271 134.434 112.443 134.599 112.655 134.706C112.863 134.799 113.131 134.826 113.457 134.787C113.779 134.735 114.194 134.61 114.701 134.413L118.373 132.99C118.512 132.936 118.604 132.988 118.647 133.145L118.925 134.148Z" fill="white"/>
<path d="M124.788 115.578C124.868 115.78 124.796 115.944 124.57 116.071L121.098 118.012L125.965 130.238C126.005 130.34 126.011 130.445 125.982 130.554C125.953 130.663 125.89 130.744 125.795 130.797L124.816 131.344C124.721 131.398 124.629 131.403 124.539 131.36C124.45 131.317 124.385 131.246 124.345 131.145L119.477 118.918L116.005 120.86C115.91 120.913 115.817 120.934 115.725 120.924C115.634 120.913 115.568 120.857 115.528 120.756L115.196 119.922C115.156 119.821 115.159 119.719 115.205 119.616C115.251 119.513 115.321 119.435 115.416 119.381L123.982 114.592C124.207 114.466 124.365 114.517 124.456 114.744L124.788 115.578Z" fill="white"/>
<path d="M132.404 108.387C132.437 108.447 132.456 108.526 132.462 108.622L133.304 116.783C133.346 117.257 133.344 117.638 133.3 117.924C133.256 118.211 133.177 118.447 133.064 118.634L135.809 123.737C135.86 123.832 135.878 123.937 135.863 124.05C135.847 124.163 135.796 124.252 135.709 124.318L134.814 124.995C134.728 125.061 134.638 125.078 134.545 125.047C134.452 125.016 134.38 124.953 134.328 124.857L131.583 119.754C131.399 119.809 131.188 119.8 130.951 119.728C130.707 119.643 130.412 119.478 130.067 119.233L124.198 114.877C124.127 114.83 124.075 114.776 124.043 114.716C123.953 114.549 124 114.395 124.184 114.256L125.176 113.504C125.231 113.463 125.301 113.452 125.387 113.471C125.478 113.47 125.551 113.491 125.604 113.534L130.981 117.657C131.177 117.794 131.319 117.873 131.405 117.892C131.485 117.899 131.552 117.882 131.607 117.84C131.661 117.799 131.702 117.734 131.731 117.645C131.753 117.545 131.752 117.359 131.729 117.09L130.859 109.557C130.848 109.481 130.852 109.402 130.87 109.322C130.892 109.221 130.935 109.146 131 109.096L131.993 108.345C132.177 108.206 132.314 108.22 132.404 108.387Z" fill="white"/>
</svg>
