<svg width="102" height="117" viewBox="0 0 102 117" fill="none" xmlns="http://www.w3.org/2000/svg">
<path d="M60.6009 32.7619V38.4206C60.6009 48.8254 50.8423 57.3135 38.8801 57.3135C26.9178 57.3135 17.1592 48.8254 17.1592 38.4206V25.369" stroke="#A1652C" stroke-width="2" stroke-miterlimit="10" stroke-linecap="round" stroke-linejoin="round"/>
<path d="M51.2622 14.1429C51.2622 20.3492 45.491 25.369 38.3556 25.369H17.3693C13.4868 25.369 10.2339 22.631 10.2339 19.1627V12.4087C10.2339 6.11111 16.1101 1 23.3504 1H44.3367C48.1143 1 51.1573 3.64683 51.1573 6.93254V7.38889H59.0272C63.7491 7.38889 67.5266 10.6746 67.5266 14.7817V25.7341C67.5266 29.6587 63.854 32.8532 59.342 32.8532C54.8299 32.8532 51.1573 29.6587 51.1573 25.7341V14.1429H51.2622Z" stroke="#A1652C" stroke-width="2" stroke-miterlimit="10" stroke-linecap="round" stroke-linejoin="round"/>
<path d="M60.6011 32.7621C64.0638 32.7621 66.7921 35.2264 66.7921 38.147C66.7921 41.1589 63.9589 43.5319 60.6011 43.5319" stroke="#A1652C" stroke-width="2" stroke-miterlimit="10" stroke-linecap="round" stroke-linejoin="round"/>
<path d="M17.1597 43.623C13.697 43.623 10.9688 41.1587 10.9688 38.2381C10.9688 35.2262 13.8019 32.8531 17.1597 32.8531" stroke="#A1652C" stroke-width="2" stroke-miterlimit="10" stroke-linecap="round" stroke-linejoin="round"/>
<path d="M12.9619 24V27.5595C12.9619 29.5675 14.8507 31.2103 17.1592 31.2103" stroke="#A1652C" stroke-width="2" stroke-miterlimit="10" stroke-linecap="round" stroke-linejoin="round"/>
<path d="M59.447 67.2619L47.3799 63.1548V55.762" stroke="#A1652C" stroke-width="2" stroke-miterlimit="10" stroke-linecap="round" stroke-linejoin="round"/>
<path d="M30.4859 55.762V63.1548L9.28965 70.4564C4.35786 72.1905 1.10498 76.2977 1.10498 80.9524V109.794H59.6569" stroke="#A1652C" stroke-width="2" stroke-miterlimit="10" stroke-linecap="round" stroke-linejoin="round"/>
<path d="M30.4859 63.1548L38.9853 68.3572L35.9423 71.6429C34.893 72.8294 32.8993 73.012 31.5352 72.0993L22.0913 65.9842" stroke="#A1652C" stroke-width="2" stroke-miterlimit="10" stroke-linecap="round" stroke-linejoin="round"/>
<path d="M17.1592 82.778V109.794" stroke="#A1652C" stroke-width="2" stroke-miterlimit="10" stroke-linecap="round" stroke-linejoin="round"/>
<path d="M23.0356 81.4088V66.7144" stroke="#A1652C" stroke-width="2" stroke-miterlimit="10" stroke-linecap="round" stroke-linejoin="round"/>
<path d="M28.1772 81.409V70.0002" stroke="#A1652C" stroke-width="2" stroke-miterlimit="10" stroke-linecap="round" stroke-linejoin="round"/>
<path d="M17.1595 97.1986H1" stroke="#A1652C" stroke-width="2" stroke-miterlimit="10" stroke-linecap="round" stroke-linejoin="round"/>
<path d="M47.3798 63.1548L38.8804 68.3572L41.9234 71.6429C42.9727 72.8294 44.9664 73.012 46.3305 72.0993L55.7744 65.9842" stroke="#A1652C" stroke-width="2" stroke-miterlimit="10" stroke-linecap="round" stroke-linejoin="round"/>
<path d="M60.2865 93.8215C57.2434 93.8215 54.7251 91.6311 54.7251 88.9842V81.4088H23.0357V88.9842C23.0357 91.6311 20.5173 93.8215 17.4743 93.8215H1" stroke="#A1652C" stroke-width="2" stroke-miterlimit="10" stroke-linecap="round" stroke-linejoin="round"/>
<path d="M54.8296 81.4088V66.7144" stroke="#A1652C" stroke-width="2" stroke-miterlimit="10" stroke-linecap="round" stroke-linejoin="round"/>
<path d="M49.6885 81.409V70.0002" stroke="#A1652C" stroke-width="2" stroke-miterlimit="10" stroke-linecap="round" stroke-linejoin="round"/>
<path d="M53.5709 109.794L50.9476 99.8453C50.6328 98.7501 49.5835 98.0199 48.3243 98.0199H29.5415C28.2823 98.0199 27.233 98.7501 26.9182 99.8453L24.2949 109.794" stroke="#A1652C" stroke-width="2" stroke-miterlimit="10" stroke-linecap="round" stroke-linejoin="round"/>
<path d="M101 116H60.2866V60.234H99.3212C100.266 60.234 101 60.8729 101 61.6943V116Z" stroke="#A1652C" stroke-width="2" stroke-miterlimit="10" stroke-linecap="round" stroke-linejoin="round"/>
<path d="M84.7358 114.449C90.589 114.449 95.3339 110.321 95.3339 105.23C95.3339 100.139 90.589 96.0121 84.7358 96.0121C78.8826 96.0121 74.1377 100.139 74.1377 105.23C74.1377 110.321 78.8826 114.449 84.7358 114.449Z" stroke="#A1652C" stroke-width="2" stroke-miterlimit="10" stroke-linecap="round" stroke-linejoin="round"/>
<path d="M80.1191 104.774L83.372 109.155L88.3038 102.583" stroke="#A1652C" stroke-width="2" stroke-miterlimit="10" stroke-linecap="round" stroke-linejoin="round"/>
<path d="M67.5269 71.3691H92.3957" stroke="#A1652C" stroke-width="2" stroke-miterlimit="10" stroke-linecap="round" stroke-linejoin="round"/>
<path d="M67.5269 79.1271H92.3957" stroke="#A1652C" stroke-width="2" stroke-miterlimit="10" stroke-linecap="round" stroke-linejoin="round"/>
<path d="M67.5269 86.9762H92.3957" stroke="#A1652C" stroke-width="2" stroke-miterlimit="10" stroke-linecap="round" stroke-linejoin="round"/>
</svg>
