<svg width="102" height="112" viewBox="0 0 102 112" fill="none" xmlns="http://www.w3.org/2000/svg">
<path d="M74.0383 29.6697H1V41.8352H74.0383V29.6697Z" stroke="#A1652C" stroke-width="2" stroke-miterlimit="10" stroke-linecap="round" stroke-linejoin="round"/>
<path d="M1 41.8351L26.3521 69.7392H48.6861L74.0383 41.8351" stroke="#A1652C" stroke-width="2" stroke-miterlimit="10" stroke-linecap="round" stroke-linejoin="round"/>
<path d="M46.8757 81.3942H28.1634C27.1574 81.3942 26.3525 80.7136 26.3525 79.8629V69.8242H48.6865V79.8629C48.6865 80.7136 47.8817 81.3942 46.8757 81.3942Z" stroke="#A1652C" stroke-width="2" stroke-miterlimit="10" stroke-linecap="round" stroke-linejoin="round"/>
<path d="M43.9579 81.3943H31.0806V96.8777L43.9579 104.279V81.3943Z" stroke="#A1652C" stroke-width="2" stroke-miterlimit="10" stroke-linecap="round" stroke-linejoin="round"/>
<path d="M44.0247 16.8039C47.1748 13.2224 48.7166 9.68247 47.4682 8.89733C46.2199 8.1122 42.6543 10.3791 39.5041 13.9607C36.354 17.5423 34.8123 21.0822 36.0606 21.8673C37.3089 22.6524 40.8746 20.3855 44.0247 16.8039Z" stroke="#A1652C" stroke-width="2" stroke-miterlimit="10" stroke-linecap="round" stroke-linejoin="round"/>
<path d="M61.5974 16.7489C64.7476 13.1673 66.2893 9.62741 65.041 8.84228C63.7927 8.05715 60.227 10.3241 57.0769 13.9056C53.9267 17.4872 52.385 21.0271 53.6333 21.8122C54.8817 22.5974 58.4473 20.3304 61.5974 16.7489Z" stroke="#A1652C" stroke-width="2" stroke-miterlimit="10" stroke-linecap="round" stroke-linejoin="round"/>
<path d="M15.6885 1V23.7997" stroke="#A1652C" stroke-width="2" stroke-miterlimit="10" stroke-linecap="round" stroke-linejoin="round"/>
<path d="M24.1392 17.4191L15.6885 23.7996L7.23779 17.4191" stroke="#A1652C" stroke-width="2" stroke-miterlimit="10" stroke-linecap="round" stroke-linejoin="round"/>
<path d="M78.0622 104.705L63.9776 111L66.6939 97.7286L55.2251 88.2854L71.0199 86.3287L78.0622 74.1632L85.2051 86.3287L101 88.2854L89.531 97.7286L92.2473 111L78.0622 104.705Z" stroke="#A1652C" stroke-width="2" stroke-miterlimit="10" stroke-linecap="round" stroke-linejoin="round"/>
</svg>
