<svg width="102" height="102" viewBox="0 0 102 102" fill="none" xmlns="http://www.w3.org/2000/svg">
<path d="M35.4927 70.0082C35.4927 70.0082 73.1806 65.876 91.6956 101C91.6956 101 48.2746 99.347 35.4927 70.0082Z" stroke="#A1652C" stroke-width="2" stroke-miterlimit="10" stroke-linecap="round" stroke-linejoin="round"/>
<path d="M75.3422 91.599C75.3422 91.599 60.2107 90.3594 35.4927 70.1115" stroke="#A1652C" stroke-width="2" stroke-miterlimit="10" stroke-linecap="round" stroke-linejoin="round"/>
<path d="M30.0415 69.905C30.0415 69.905 54.2896 34.4712 101 48.5208C100.906 48.5208 88.2181 73.8307 30.0415 69.905Z" stroke="#A1652C" stroke-width="2" stroke-miterlimit="10" stroke-linecap="round" stroke-linejoin="round"/>
<path d="M85.9625 53.5826C64.346 66.9091 30.0415 69.9049 30.0415 69.9049" stroke="#A1652C" stroke-width="2" stroke-miterlimit="10" stroke-linecap="round" stroke-linejoin="round"/>
<path d="M38.406 75.3801C10.2105 76.6198 1 95.9379 1 95.9379C1 95.9379 32.7669 109.678 48.4623 86.2272" stroke="#A1652C" stroke-width="2" stroke-miterlimit="10" stroke-linecap="round" stroke-linejoin="round"/>
<path d="M40.0977 77.9629C32.015 79.8224 21.2067 83.8513 10.5864 92.3224" stroke="#A1652C" stroke-width="2" stroke-miterlimit="10" stroke-linecap="round" stroke-linejoin="round"/>
<path d="M44.9849 34.5743C35.4924 34.5743 27.7856 26.1032 27.7856 15.6693C27.7856 26.1032 20.0789 34.5743 10.5864 34.5743C20.0789 34.5743 27.7856 43.0454 27.7856 53.4792C27.7856 43.0454 35.4924 34.5743 44.9849 34.5743Z" stroke="#A1652C" stroke-width="2" stroke-miterlimit="10" stroke-linecap="round" stroke-linejoin="round"/>
<path d="M52.7857 15.6694C56.4711 15.6694 59.4586 12.3856 59.4586 8.33472C59.4586 4.28387 56.4711 1 52.7857 1C49.1004 1 46.1128 4.28387 46.1128 8.33472C46.1128 12.3856 49.1004 15.6694 52.7857 15.6694Z" stroke="#A1652C" stroke-width="2" stroke-miterlimit="10" stroke-linecap="round" stroke-linejoin="round"/>
<path d="M68.5757 21.7645V34.5745" stroke="#A1652C" stroke-width="2" stroke-miterlimit="10" stroke-linecap="round" stroke-linejoin="round"/>
<path d="M62.7485 28.1693H74.4027" stroke="#A1652C" stroke-width="2" stroke-miterlimit="10" stroke-linecap="round" stroke-linejoin="round"/>
<path d="M94.4209 68.0454V77.1363" stroke="#A1652C" stroke-width="2" stroke-miterlimit="10" stroke-linecap="round" stroke-linejoin="round"/>
<path d="M90.2856 72.5908H98.5563" stroke="#A1652C" stroke-width="2" stroke-miterlimit="10" stroke-linecap="round" stroke-linejoin="round"/>
<path d="M94.421 21.3512C96.7049 21.3512 98.5563 19.3161 98.5563 16.8057C98.5563 14.2953 96.7049 12.2603 94.421 12.2603C92.1371 12.2603 90.2856 14.2953 90.2856 16.8057C90.2856 19.3161 92.1371 21.3512 94.421 21.3512Z" stroke="#A1652C" stroke-width="2" stroke-miterlimit="10" stroke-linecap="round" stroke-linejoin="round"/>
</svg>
