<svg width="102" height="112" viewBox="0 0 102 112" fill="none" xmlns="http://www.w3.org/2000/svg">
<path d="M101 47.686V103.07C101 107.419 98.3434 111 95.1176 111H6.88234C3.65653 111 1 107.419 1 103.07V47.686" stroke="#A1652C" stroke-width="2" stroke-miterlimit="10" stroke-linecap="round" stroke-linejoin="round"/>
<path d="M62.9547 1H39.1406V33.1046H62.9547V1Z" stroke="#A1652C" stroke-width="2" stroke-miterlimit="10" stroke-linecap="round" stroke-linejoin="round"/>
<path d="M9.91846 69.43C13.7135 80.9416 39.7098 83.244 48.2487 74.1626C36.7686 64.4416 22.5371 63.0346 9.91846 69.43Z" stroke="#A1652C" stroke-width="2" stroke-miterlimit="10" stroke-linecap="round" stroke-linejoin="round"/>
<path d="M9.91846 69.4299C9.91846 69.4299 27.5655 66.8718 39.8046 73.6508" stroke="#A1652C" stroke-width="2" stroke-miterlimit="10" stroke-linecap="round" stroke-linejoin="round"/>
<path d="M60.2031 67.256C60.2031 67.256 72.2524 88.7444 92.0817 77.7444C92.0817 77.7444 84.0172 56.8955 60.2031 67.256Z" stroke="#A1652C" stroke-width="2" stroke-miterlimit="10" stroke-linecap="round" stroke-linejoin="round"/>
<path d="M60.2031 67.2561C60.2031 67.2561 75.4783 65.3376 83.9223 73.9073" stroke="#A1652C" stroke-width="2" stroke-miterlimit="10" stroke-linecap="round" stroke-linejoin="round"/>
<path d="M69.8802 89.6394C69.8802 89.6394 53.846 75.4418 34.1117 95.2673C34.0168 95.2673 54.3204 108.442 69.8802 89.6394Z" stroke="#A1652C" stroke-width="2" stroke-miterlimit="10" stroke-linecap="round" stroke-linejoin="round"/>
<path d="M69.8801 89.6397C69.8801 89.6397 53.2767 87.4653 43.5044 93.0932" stroke="#A1652C" stroke-width="2" stroke-miterlimit="10" stroke-linecap="round" stroke-linejoin="round"/>
<path d="M87.907 52.8025H14.0929C13.3339 52.8025 12.7646 52.0351 12.7646 51.0118V35.0234C12.7646 34.0002 13.3339 33.2328 14.0929 33.2328H87.907C88.666 33.2328 89.2352 34.0002 89.2352 35.0234V51.0118C89.3301 52.0351 88.666 52.8025 87.907 52.8025Z" stroke="#A1652C" stroke-width="2" stroke-miterlimit="10" stroke-linecap="round" stroke-linejoin="round"/>
<path d="M48.4383 52.8024H38.666L24.1499 33.1047H33.9222L48.4383 52.8024Z" fill="#A1652C"/>
<path d="M72.3475 52.8024H62.5752L48.0591 33.1047H57.8314L72.3475 52.8024Z" fill="#A1652C"/>
<path d="M89.3299 43.4653V49.2212C89.3299 51.2677 88.0965 52.9304 86.5784 52.9304H86.4836L71.8726 33.2328H81.6448L89.3299 43.4653Z" fill="#A1652C"/>
<path d="M24.5293 52.8024H15.4212C15.1366 52.8024 14.8519 52.8023 14.6622 52.6744L12.8595 50.2443C12.7647 49.8605 12.7646 49.6047 12.7646 49.221V36.9419L24.5293 52.8024Z" fill="#A1652C"/>
</svg>
