<svg width="102" height="102" viewBox="0 0 102 102" fill="none" xmlns="http://www.w3.org/2000/svg">
<path d="M93.1862 21.5482L26.4766 56.9772C26.4766 56.9772 53.9913 72.0046 100.79 50.7074C100.79 50.7074 101.966 45.9305 98.7519 41.8502C95.5379 37.7699 90.5993 36.6752 93.1862 21.5482Z" stroke="#A1652C" stroke-width="2" stroke-miterlimit="10" stroke-linecap="round" stroke-linejoin="round"/>
<path d="M38.2349 56.3802C38.2349 56.3802 71.4721 58.9677 93.186 41.8503" stroke="#A1652C" stroke-width="2" stroke-miterlimit="10" stroke-linecap="round" stroke-linejoin="round"/>
<path d="M30.8667 54.5888C30.0044 47.4234 31.729 43.8407 31.5722 38.2676C31.4155 32.9931 30.7883 27.619 31.3371 22.3445C31.9642 17.07 34.2375 11.6959 38.0786 9.80507C39.2544 9.20795 40.5871 9.0089 41.6061 8.11323C42.782 7.11803 43.4875 5.32671 44.5065 4.03295C45.7608 2.44064 47.5637 1.54498 49.2883 1.24642C52.5807 0.549783 56.1082 1.34589 59.0086 3.4358C61.909 5.52571 64.2607 8.90937 65.515 12.8901C66.6124 16.3733 66.8476 20.3542 68.2586 23.6383C69.6696 27.1215 70.6887 28.0171 71.9429 32.794" stroke="#A1652C" stroke-width="2" stroke-miterlimit="10" stroke-linecap="round" stroke-linejoin="round"/>
<path d="M48.1123 45.4331C47.7203 36.5759 47.3284 27.7187 49.5233 19.2595C51.3262 26.823 52.5021 34.6851 52.9724 42.5471" stroke="#A1652C" stroke-width="2" stroke-miterlimit="10" stroke-linecap="round" stroke-linejoin="round"/>
<path d="M52.502 13.3878C52.9723 11.696 53.3642 10.0042 53.8346 8.31238" stroke="#A1652C" stroke-width="2" stroke-miterlimit="10" stroke-linecap="round" stroke-linejoin="round"/>
<path d="M57.4404 25.5292C59.0082 23.3398 60.6544 21.1504 62.2222 18.9609" stroke="#A1652C" stroke-width="2" stroke-miterlimit="10" stroke-linecap="round" stroke-linejoin="round"/>
<path d="M43.0952 29.51C41.8409 28.1168 40.2731 27.1216 38.627 26.7235" stroke="#A1652C" stroke-width="2" stroke-miterlimit="10" stroke-linecap="round" stroke-linejoin="round"/>
<path d="M40.9002 34.7844C40.5083 34.7844 40.0379 34.7844 39.646 34.7844" stroke="#A1652C" stroke-width="2" stroke-miterlimit="10" stroke-linecap="round" stroke-linejoin="round"/>
<path d="M71.3939 69.9149C68.2583 68.2231 64.6524 69.2183 61.36 70.7111C58.146 72.2039 54.8537 73.9952 51.4045 73.6967C48.5041 73.4976 45.8389 71.7063 43.0952 70.7111C39.8029 69.5169 36.1969 69.3178 32.8262 70.1139C33.4533 73.199 33.2965 76.1846 33.3749 79.2697C33.4533 82.4544 33.7668 85.7385 35.0995 88.326C36.1185 90.2169 37.6079 91.7097 39.019 93.103C41.449 95.3919 43.8791 97.7804 46.7011 99.2732C50.2287 101.164 54.2266 101.562 57.9109 100.169C61.5952 98.7756 64.8092 95.5909 66.6905 91.4111C67.5528 89.5203 68.1015 87.4303 68.5719 85.2409C69.9045 80.464 71.3939 74.9904 71.3939 69.9149Z" stroke="#A1652C" stroke-width="2" stroke-miterlimit="10" stroke-linecap="round" stroke-linejoin="round"/>
<path d="M48.6606 73C48.8958 77.6774 49.6013 82.4543 51.0907 86.7337C52.4233 82.5539 53.2856 78.0755 53.5992 73.5971" stroke="#A1652C" stroke-width="2" stroke-miterlimit="10" stroke-linecap="round" stroke-linejoin="round"/>
<path d="M58.4595 77.6774C60.1057 79.2697 61.7518 80.7625 63.398 82.3548" stroke="#A1652C" stroke-width="2" stroke-miterlimit="10" stroke-linecap="round" stroke-linejoin="round"/>
<path d="M55.0889 85.3403C55.716 86.5346 56.3431 87.7288 56.8918 88.8235" stroke="#A1652C" stroke-width="2" stroke-miterlimit="10" stroke-linecap="round" stroke-linejoin="round"/>
<path d="M41.3709 81.5586C40.7438 82.4543 40.0383 83.35 39.4111 84.2456" stroke="#A1652C" stroke-width="2" stroke-miterlimit="10" stroke-linecap="round" stroke-linejoin="round"/>
<path d="M23.106 44.7364L11.6611 34.7844" stroke="#A1652C" stroke-width="2" stroke-miterlimit="10" stroke-linecap="round" stroke-linejoin="round"/>
<path d="M18.1673 56.4797H1" stroke="#A1652C" stroke-width="2" stroke-miterlimit="10" stroke-linecap="round" stroke-linejoin="round"/>
<path d="M23.106 67.3271L12.6802 78.1748" stroke="#A1652C" stroke-width="2" stroke-miterlimit="10" stroke-linecap="round" stroke-linejoin="round"/>
<path d="M15.9726 62.0529L11.6611 64.3418" stroke="#A1652C" stroke-width="2" stroke-miterlimit="10" stroke-linecap="round" stroke-linejoin="round"/>
<path d="M78.7627 66.332L89.5805 72.9998" stroke="#A1652C" stroke-width="2" stroke-miterlimit="10" stroke-linecap="round" stroke-linejoin="round"/>
</svg>
