<svg width="102" height="112" viewBox="0 0 102 112" fill="none" xmlns="http://www.w3.org/2000/svg">
<path d="M95.7368 111H6.26316C3.36842 111 1 109.278 1 107.174V31.0348H101V107.174C101 109.278 98.6316 111 95.7368 111Z" stroke="#A1652C" stroke-width="2" stroke-miterlimit="10" stroke-linecap="round" stroke-linejoin="round"/>
<path d="M74.1582 30.9391V111" stroke="#A1652C" stroke-width="2" stroke-miterlimit="10" stroke-linecap="round" stroke-linejoin="round"/>
<path d="M98.2371 108.417L87.8424 99.0433L74.1582 111" stroke="#A1652C" stroke-width="2" stroke-miterlimit="10" stroke-linecap="round" stroke-linejoin="round"/>
<path d="M87.8423 99.0434V37.826" stroke="#A1652C" stroke-width="2" stroke-miterlimit="10" stroke-linecap="round" stroke-linejoin="round"/>
<path d="M35.342 65.9479C44.2803 65.9479 51.5262 60.6804 51.5262 54.1827C51.5262 47.6849 44.2803 42.4175 35.342 42.4175C26.4037 42.4175 19.1577 47.6849 19.1577 54.1827C19.1577 60.6804 26.4037 65.9479 35.342 65.9479Z" stroke="#A1652C" stroke-width="2" stroke-miterlimit="10" stroke-linecap="round" stroke-linejoin="round"/>
<path d="M19.1577 81.1566H57.7104" stroke="#A1652C" stroke-width="2" stroke-miterlimit="10" stroke-linecap="round" stroke-linejoin="round"/>
<path d="M33.6313 89.5741H54.9471" stroke="#A1652C" stroke-width="2" stroke-miterlimit="10" stroke-linecap="round" stroke-linejoin="round"/>
<path d="M51.194 18.7814C52.7166 14.867 51.1164 11.1112 47.6199 10.3925C44.1234 9.6738 40.0547 12.2643 38.5322 16.1787C37.0097 20.093 38.6098 23.8489 42.1063 24.5676C45.6028 25.2863 49.6715 22.6957 51.194 18.7814Z" stroke="#A1652C" stroke-width="2" stroke-miterlimit="10" stroke-linecap="round" stroke-linejoin="round"/>
<path d="M53.895 29.5046C54.2898 26.922 59.0266 25.1046 64.553 25.4872C70.0793 25.8698 74.4213 28.3567 74.0266 30.9394" stroke="#A1652C" stroke-width="2" stroke-miterlimit="10" stroke-linecap="round" stroke-linejoin="round"/>
<path d="M86.7894 25.25C89.0164 23.976 88.5996 20.8903 85.8583 18.3581C83.1171 15.8259 79.0895 14.806 76.8624 16.0801C74.6354 17.3541 75.0523 20.4397 77.7935 22.9719C80.5348 25.5041 84.5624 26.5241 86.7894 25.25Z" stroke="#A1652C" stroke-width="2" stroke-miterlimit="10" stroke-linecap="round" stroke-linejoin="round"/>
<path d="M19.1577 1V25.3913" stroke="#A1652C" stroke-width="2" stroke-miterlimit="10" stroke-linecap="round" stroke-linejoin="round"/>
<path d="M29.684 18.5999L19.1577 25.3912L8.63135 18.5999" stroke="#A1652C" stroke-width="2" stroke-miterlimit="10" stroke-linecap="round" stroke-linejoin="round"/>
</svg>
