<svg width="147" height="54" viewBox="0 0 147 54" fill="none" xmlns="http://www.w3.org/2000/svg">
<path d="M27.6531 0L30.4579 6.74343L37.738 7.32707L32.1913 12.0784L33.8859 19.1825L27.6531 15.3756L21.4204 19.1825L23.115 12.0784L17.5683 7.32707L24.8484 6.74343L27.6531 0Z" fill="#F15B16"/>
<path d="M44.2864 12.4751L47.0912 19.2185L54.3713 19.8022L48.8246 24.5535L50.5192 31.6576L44.2864 27.8507L38.0537 31.6576L39.7483 24.5535L34.2016 19.8022L41.4817 19.2185L44.2864 12.4751Z" fill="#F15B16"/>
<path d="M38.0491 32.4353L40.8539 39.1787L48.134 39.7624L42.5873 44.5137L44.2819 51.6178L38.0491 47.8109L31.8164 51.6178L33.511 44.5137L27.9643 39.7624L35.2444 39.1787L38.0491 32.4353Z" fill="#F15B16"/>
<path d="M17.1722 32.4775L19.9769 39.221L27.257 39.8046L21.7104 44.5559L23.405 51.6601L17.1722 47.8531L10.9394 51.6601L12.634 44.5559L7.08735 39.8046L14.3674 39.221L17.1722 32.4775Z" fill="#F15B16"/>
<path d="M10.6038 12.4072L13.4086 19.1507L20.6887 19.7343L15.142 24.4856L16.8366 31.5897L10.6038 27.7828L4.37106 31.5897L6.06565 24.4856L0.518989 19.7343L7.79908 19.1507L10.6038 12.4072Z" fill="#F15B16"/>
<path d="M70.9541 25.217H63.9751L62.3913 29.5248H61.0293L66.8469 14.1518H68.0823L73.8999 29.5248H72.5485L70.9541 25.217ZM64.3763 24.1084H70.5424L67.4593 15.7356L64.3763 24.1084Z" fill="#191849"/>
<path d="M93.4743 20.8247H97.2858C98.3346 20.8247 99.2426 21.0007 100.01 21.3526C100.777 21.6975 101.361 22.1973 101.763 22.8519C102.171 23.4995 102.375 24.2667 102.375 25.1536C102.375 26.5121 101.921 27.5821 101.013 28.3634C100.105 29.1377 98.8485 29.5248 97.2436 29.5248H92.1756V14.1518H93.4743V20.8247ZM93.4743 21.9333V28.4267H97.2753C98.4648 28.4267 99.394 28.1346 100.063 27.5504C100.731 26.9591 101.066 26.1532 101.066 25.1325C101.066 24.1612 100.742 23.3904 100.094 22.8202C99.4468 22.2431 98.5387 21.9474 97.3703 21.9333H93.4743Z" fill="#191849"/>
<path d="M114.126 29.5248V23.2637H109.702L106.344 29.5248H104.94L108.562 22.9047C107.569 22.5598 106.813 22.0389 106.292 21.3421C105.771 20.6452 105.51 19.7935 105.51 18.787C105.51 17.3369 105.968 16.2037 106.883 15.3872C107.805 14.5636 109.1 14.1518 110.768 14.1518H115.435V29.5248H114.126ZM106.809 18.7764C106.809 19.79 107.126 20.6065 107.759 21.2259C108.4 21.8454 109.28 22.1551 110.399 22.1551H114.126V15.2605H110.726C109.473 15.2605 108.505 15.5667 107.823 16.179C107.147 16.7844 106.809 17.6502 106.809 18.7764Z" fill="#191849"/>
<path d="M130.956 29.5248H129.646V22.1551H120.862V29.5248H119.563V14.1518H120.862V21.057H129.646V14.1518H130.956V29.5248Z" fill="#191849"/>
<path d="M146.191 24.7313C146.015 26.3503 145.434 27.5891 144.449 28.4478C143.47 29.3066 142.165 29.736 140.532 29.736C139.391 29.736 138.381 29.4509 137.501 28.8807C136.628 28.3106 135.953 27.5046 135.474 26.4629C134.995 25.4141 134.753 24.2175 134.746 22.873V20.8775C134.746 19.512 134.985 18.3013 135.464 17.2454C135.942 16.1896 136.628 15.3766 137.522 14.8065C138.423 14.2293 139.458 13.9407 140.627 13.9407C142.274 13.9407 143.572 14.3876 144.523 15.2816C145.48 16.1685 146.036 17.3968 146.191 18.9664H144.882C144.558 16.355 143.139 15.0493 140.627 15.0493C139.233 15.0493 138.121 15.5702 137.29 16.6119C136.467 17.6537 136.055 19.0931 136.055 20.9303V22.8097C136.055 24.5835 136.456 25.9983 137.258 27.0541C138.068 28.11 139.159 28.6379 140.532 28.6379C141.89 28.6379 142.914 28.3141 143.604 27.6665C144.294 27.0119 144.72 26.0335 144.882 24.7313H146.191Z" fill="#191849"/>
<path d="M76.5141 29.5244H75.2666C75.2666 29.3165 81.9022 14.1475 81.9022 14.1475C82.1279 14.1384 82.2406 14.1384 82.5437 14.1384C82.8324 14.1384 82.9595 14.1384 83.1578 14.1475L89.8209 29.5244L89.1548 29.5244L88.5734 29.5244L82.53 15.7257C82.53 15.7257 76.5141 29.3165 76.5141 29.5244Z" fill="#191849"/>
<path d="M67.4027 40.3144V45.6365H66.6183V42.2407C66.6183 42.1017 66.6216 41.956 66.6282 41.8038C66.6415 41.6515 66.6547 41.5026 66.6679 41.357H66.6382L64.9005 45.6365H64.1658L62.4778 41.357H62.448C62.4678 41.6548 62.4778 41.9593 62.4778 42.2705V45.6365H61.6934V40.3144H62.8551L64.5331 44.5939L66.241 40.3144H67.4027Z" fill="#191849"/>
<path d="M80.5501 40.225C81.1988 40.225 81.6787 40.3673 81.9898 40.652C82.3009 40.9366 82.4565 41.3901 82.4565 42.0123V45.6365H81.821L81.6522 44.8819H81.6125C81.3808 45.1731 81.1359 45.3883 80.8777 45.5273C80.6262 45.6663 80.2754 45.7358 79.8252 45.7358C79.342 45.7358 78.9415 45.61 78.6238 45.3585C78.306 45.1003 78.1472 44.6998 78.1472 44.157C78.1472 43.6275 78.3557 43.2204 78.7727 42.9357C79.1898 42.6445 79.8318 42.4856 80.699 42.4591L81.6026 42.4293V42.1116C81.6026 41.6681 81.5066 41.3603 81.3146 41.1882C81.1227 41.0161 80.8513 40.93 80.5004 40.93C80.2224 40.93 79.9576 40.973 79.7061 41.0591C79.4545 41.1385 79.2195 41.2312 79.0011 41.3371L78.733 40.6818C78.9647 40.556 79.2394 40.4501 79.5571 40.364C79.8749 40.2714 80.2059 40.225 80.5501 40.225ZM80.8082 43.0648C80.1463 43.0913 79.6862 43.1972 79.4281 43.3825C79.1765 43.5679 79.0507 43.8294 79.0507 44.167C79.0507 44.4648 79.1401 44.6833 79.3188 44.8223C79.5042 44.9613 79.7392 45.0308 80.0238 45.0308C80.4739 45.0308 80.8479 44.9083 81.1458 44.6634C81.4437 44.4119 81.5926 44.0279 81.5926 43.5116V43.035L80.8082 43.0648Z" fill="#191849"/>
<path d="M96.0651 40.2151C96.7204 40.2151 97.2467 40.4435 97.6439 40.9002C98.0477 41.357 98.2496 42.0454 98.2496 42.9655C98.2496 43.8724 98.0477 44.5608 97.6439 45.0308C97.2467 45.5008 96.7171 45.7358 96.0552 45.7358C95.6448 45.7358 95.3039 45.6597 95.0325 45.5074C94.7677 45.3485 94.5592 45.1665 94.4069 44.9613H94.3473C94.3606 45.0738 94.3738 45.2162 94.387 45.3883C94.4003 45.5604 94.4069 45.7093 94.4069 45.8351V48.0195H93.5331V40.3144H94.248L94.3672 41.0392H94.4069C94.5658 40.8075 94.7743 40.6123 95.0325 40.4534C95.2906 40.2945 95.6348 40.2151 96.0651 40.2151ZM95.9062 40.9499C95.3634 40.9499 94.9795 41.1021 94.7544 41.4066C94.536 41.7111 94.4201 42.1745 94.4069 42.7967V42.9655C94.4069 43.6208 94.5128 44.1272 94.7246 44.4847C94.9431 44.8355 95.3436 45.0109 95.9261 45.0109C96.2504 45.0109 96.5152 44.9216 96.7204 44.7429C96.9323 44.5641 97.0878 44.3225 97.1871 44.018C97.293 43.7069 97.346 43.3528 97.346 42.9556C97.346 42.3466 97.2268 41.86 96.9885 41.496C96.7568 41.1319 96.3961 40.9499 95.9062 40.9499Z" fill="#191849"/>
<path d="M112.222 40.3144H113.176L110.902 42.8761L113.364 45.6365H112.352L109.949 42.9357V45.6365H109.075V40.3144H109.949V42.896L112.222 40.3144Z" fill="#191849"/>
<path d="M125.625 40.2151C126.081 40.2151 126.472 40.3144 126.796 40.513C127.127 40.7116 127.379 40.9929 127.551 41.357C127.73 41.7144 127.819 42.1348 127.819 42.618V43.1442H124.175C124.188 43.7466 124.341 44.2067 124.632 44.5244C124.93 44.8355 125.343 44.9911 125.873 44.9911C126.211 44.9911 126.508 44.9613 126.767 44.9017C127.031 44.8355 127.303 44.7429 127.581 44.6237V45.3883C127.309 45.5074 127.041 45.5935 126.776 45.6464C126.512 45.706 126.197 45.7358 125.833 45.7358C125.33 45.7358 124.883 45.6332 124.493 45.428C124.109 45.2228 123.808 44.9183 123.589 44.5145C123.377 44.1041 123.271 43.6043 123.271 43.0152C123.271 42.4326 123.367 41.9329 123.559 41.5158C123.758 41.0988 124.033 40.7777 124.384 40.5527C124.741 40.3276 125.155 40.2151 125.625 40.2151ZM125.615 40.93C125.198 40.93 124.867 41.0657 124.622 41.3371C124.384 41.6019 124.241 41.9726 124.195 42.4492H126.906C126.899 41.9991 126.793 41.635 126.588 41.357C126.383 41.0723 126.058 40.93 125.615 40.93Z" fill="#191849"/>
<path d="M142.281 41.0492H140.543V45.6365H139.679V41.0492H137.961V40.3144H142.281V41.0492Z" fill="#191849"/>
<path d="M61.1284 34.5142H146.375" stroke="#191849" stroke-width="2"/>
</svg>
