<svg width="153" height="124" viewBox="0 0 153 124" fill="none" xmlns="http://www.w3.org/2000/svg">
<path d="M114.7 22.1999C118.234 22.1999 121.1 19.3345 121.1 15.7999C121.1 12.2653 118.234 9.3999 114.7 9.3999C111.165 9.3999 108.3 12.2653 108.3 15.7999C108.3 19.3345 111.165 22.1999 114.7 22.1999Z" stroke="#A1652C" stroke-width="2" stroke-miterlimit="10" stroke-linecap="round" stroke-linejoin="round"/>
<path d="M129.6 15.8C129.6 25.6 119.5 36.8 116 40.4C115.3 41.1 114.2 41.1 113.6 40.4C110.1 36.7 100 25.4 100 15.8C100 7.59999 106.6 1 114.8 1C123 1 129.6 7.59999 129.6 15.8Z" stroke="#A1652C" stroke-width="2" stroke-miterlimit="10" stroke-linecap="round" stroke-linejoin="round"/>
<path d="M114.7 48.6001C118.4 74.3001 142.5 79.0001 148.8 93.2001C159.5 117.3 129.3 120.5 99.8999 120.5" stroke="#A1652C" stroke-width="2" stroke-miterlimit="10" stroke-linecap="round" stroke-linejoin="round" stroke-dasharray="5 5"/>
<path d="M59.3998 122.4C68.5677 122.4 75.9998 114.968 75.9998 105.8C75.9998 96.632 68.5677 89.2 59.3998 89.2C50.2319 89.2 42.7998 96.632 42.7998 105.8C42.7998 114.968 50.2319 122.4 59.3998 122.4Z" stroke="#A1652C" stroke-width="2" stroke-miterlimit="10" stroke-linecap="round" stroke-linejoin="round"/>
<path d="M59.4 114.2C64.0392 114.2 67.8 110.439 67.8 105.8C67.8 101.161 64.0392 97.3999 59.4 97.3999C54.7608 97.3999 51 101.161 51 105.8C51 110.439 54.7608 114.2 59.4 114.2Z" stroke="#A1652C" stroke-width="2" stroke-miterlimit="10" stroke-linecap="round" stroke-linejoin="round"/>
<path d="M85.8 105.8H76" stroke="#A1652C" stroke-width="2" stroke-miterlimit="10" stroke-linecap="round" stroke-linejoin="round"/>
<path d="M42.9 105.8H38.5V25.7C38.5 23.8 40.1 22.2 42 22.2H79.9C84 22.2 87.7 24.8 89 28.7L102.7 68.9999C103.1 69.9999 103.2 71.1 103.2 72.2V95.3999C103.2 97.3999 102.6 99.2999 101.6 100.9" stroke="#A1652C" stroke-width="2" stroke-miterlimit="10" stroke-linecap="round" stroke-linejoin="round"/>
<path d="M103.1 83.7998H88.2998" stroke="#A1652C" stroke-width="2" stroke-miterlimit="10" stroke-linecap="round" stroke-linejoin="round"/>
<path d="M91.1 35.0999H65.7C63.1 35.0999 61 37.1998 61 39.7998V57.5999C61 65.8999 67.7 72.5999 76 72.5999H103.1" stroke="#A1652C" stroke-width="2" stroke-miterlimit="10" stroke-linecap="round" stroke-linejoin="round"/>
<path d="M72.4999 22.1999C72.4999 22.1999 65.5999 10.6999 48.7999 5.09991C45.8999 4.09991 42.8999 6.2999 42.8999 9.2999V22.1999" stroke="#A1652C" stroke-width="2" stroke-miterlimit="10" stroke-linecap="round" stroke-linejoin="round"/>
<path d="M22.8 112.4H4.2C2.4 112.4 1 111 1 109.2V90.7998H26V109.2C26 111 24.6 112.4 22.8 112.4Z" stroke="#A1652C" stroke-width="2" stroke-miterlimit="10" stroke-linecap="round" stroke-linejoin="round"/>
<path d="M38.5 90.8999H26V105.9H38.5V90.8999Z" stroke="#A1652C" stroke-width="2" stroke-miterlimit="10" stroke-linecap="round" stroke-linejoin="round"/>
<path d="M1 6.2998H28C31.5 6.2998 34.3 9.09982 34.3 12.5998V90.7998H1" stroke="#A1652C" stroke-width="2" stroke-miterlimit="10" stroke-linecap="round" stroke-linejoin="round"/>
<path d="M102.2 110.9H88.2999C86.9999 110.9 85.8999 109.8 85.8999 108.5V103.2C85.8999 101.9 86.9999 100.8 88.2999 100.8H102.2C103.5 100.8 104.6 101.9 104.6 103.2V108.5C104.7 109.8 103.6 110.9 102.2 110.9Z" stroke="#A1652C" stroke-width="2" stroke-miterlimit="10" stroke-linecap="round" stroke-linejoin="round"/>
</svg>
