<svg width="98" height="110" viewBox="0 0 98 110" fill="none" xmlns="http://www.w3.org/2000/svg">
<path d="M93.5 108.6H3.90002C2.30002 108.6 1 107.3 1 105.7V10.0001C1 8.40012 2.30002 7.1001 3.90002 7.1001H93.5C95.1 7.1001 96.4 8.40012 96.4 10.0001V105.7C96.4 107.3 95.1 108.6 93.5 108.6Z" stroke="#A1652C" stroke-width="2" stroke-miterlimit="10" stroke-linecap="round" stroke-linejoin="round"/>
<path d="M1.1001 27.3999H96.4001" stroke="#A1652C" stroke-width="2" stroke-miterlimit="10" stroke-linecap="round" stroke-linejoin="round"/>
<path d="M24.2002 1V13.3" stroke="#A1652C" stroke-width="2" stroke-miterlimit="10" stroke-linecap="round" stroke-linejoin="round"/>
<path d="M48.7002 1V13.3" stroke="#A1652C" stroke-width="2" stroke-miterlimit="10" stroke-linecap="round" stroke-linejoin="round"/>
<path d="M73.3003 1V13.3" stroke="#A1652C" stroke-width="2" stroke-miterlimit="10" stroke-linecap="round" stroke-linejoin="round"/>
<path d="M38.1001 37.9999C41.2001 36.8999 44.0001 36.3999 47.2001 36.3999C56.5001 36.3999 62.0001 40.8999 62.0001 48.4999C62.0001 52.7999 60.2001 55.3999 56.7001 57.1999C56.1001 57.4999 56.1001 57.8999 56.7001 58.1999C61.3001 60.0999 63.5001 63.9999 63.5001 68.7999C63.5001 76.7999 57.4001 81.6999 47.3001 81.6999C43.7001 81.6999 40.5001 80.9999 37.3001 79.9999L33.4001 78.6999C32.9001 78.4999 32.8001 78.1999 32.9001 77.7999L35.0001 72.0999C35.2001 71.6999 35.5001 71.4999 35.9001 71.6999L39.7001 72.8999C42.4001 73.7999 45.1001 74.1999 47.3001 74.1999C52.1001 74.1999 55.0001 71.7999 55.0001 67.8999C55.0001 64.0999 52.3001 61.7999 47.8001 61.7999H44.4001C43.9001 61.7999 43.6001 61.5999 43.6001 60.9999V55.0999C43.6001 54.5999 43.9001 54.2999 44.4001 54.2999H47.7001C51.4001 54.2999 53.5001 52.2999 53.5001 49.3999C53.5001 45.9999 51.1001 43.8999 47.2001 43.8999C44.8001 43.8999 42.7001 44.2999 40.4001 45.0999L37.1001 46.1999C36.7001 46.3999 36.4001 46.1999 36.2001 45.7999L34.3001 39.9999C34.1001 39.5999 34.3001 39.1999 34.8001 39.0999L38.1001 37.9999Z" fill="#A1652C"/>
<path d="M40.1999 98.0001H41.3999C41.5999 98.0001 41.6999 98.1001 41.6999 98.3001V103.9C41.6999 104.1 41.5999 104.2 41.3999 104.2H39.3999C39.1999 104.2 39.0999 104.1 39.0999 103.9V100.4H30.9999V103.9C30.9999 104.1 30.8999 104.2 30.6999 104.2H28.6999C28.4999 104.2 28.3999 104.1 28.3999 103.9V98.3001C28.3999 98.1001 28.4999 98.0001 28.6999 98.0001H29.6999L30.2999 96.7001C30.6999 95.9001 30.7999 94.9001 30.7999 93.5001V88.9001C30.7999 88.7001 30.8999 88.6001 31.0999 88.6001H39.7999C39.9999 88.6001 40.0999 88.7001 40.0999 88.9001V98.0001H40.1999ZM33.6999 91.1001V93.6001C33.6999 95.1001 33.4999 96.3001 32.9999 97.3001L32.6999 98.0001H37.4999V91.1001H33.6999Z" fill="#A1652C"/>
<path d="M54.3997 89.0002V100.2C54.3997 100.4 54.2997 100.5 54.0997 100.5H51.8997C51.6997 100.5 51.5997 100.4 51.5997 100.2V95.7002H46.8997V100.2C46.8997 100.4 46.7997 100.5 46.5997 100.5H44.4997C44.2997 100.5 44.1997 100.4 44.1997 100.2V89.0002C44.1997 88.8002 44.2997 88.7002 44.4997 88.7002H46.5997C46.7997 88.7002 46.8997 88.8002 46.8997 89.0002V93.3002H51.5997V89.0002C51.5997 88.8002 51.6997 88.7002 51.8997 88.7002H54.0997C54.2997 88.7002 54.3997 88.8002 54.3997 89.0002Z" fill="#A1652C"/>
<path d="M67.2997 89.0002V100.2C67.2997 100.4 67.1997 100.5 66.9997 100.5H64.8997C64.6997 100.5 64.5997 100.4 64.5997 100.2V96.3002H63.5997C62.7997 96.3002 62.1997 96.5002 61.7997 96.8002C61.3997 97.2002 60.9997 97.7002 60.5997 98.5002L59.7997 100.2C59.6997 100.3 59.5997 100.4 59.4997 100.4H57.1997C56.9997 100.4 56.8997 100.3 56.9997 100.1L58.1997 97.4002C58.5997 96.5002 59.1997 95.9002 59.8997 95.6002C60.0997 95.5002 60.0997 95.4002 59.8997 95.3002C59.2997 95.1002 58.6997 94.7002 58.2997 94.2002C57.8997 93.7002 57.6997 93.1002 57.6997 92.4002C57.6997 91.3002 58.0997 90.4002 58.8997 89.8002C59.6997 89.2002 60.7997 88.8002 62.1997 88.8002H67.0997C67.1997 88.7002 67.2997 88.8002 67.2997 89.0002ZM64.5997 91.1002H61.9997C61.4997 91.1002 61.0997 91.2002 60.7997 91.5002C60.4997 91.8002 60.3997 92.1002 60.3997 92.5002C60.3997 93.0002 60.5997 93.3002 60.9997 93.5002C61.3997 93.7002 61.8997 93.9002 62.5997 93.9002H64.6997V91.1002H64.5997Z" fill="#A1652C"/>
</svg>
