<svg width="118" height="124" viewBox="0 0 118 124" fill="none" xmlns="http://www.w3.org/2000/svg">
<path d="M20.6 44.3002H9C4.6 44.3002 1 40.7002 1 36.3002V9.2002C1 4.8002 4.6 1.2002 9 1.2002H63.9C68.3 1.2002 71.9 4.8002 71.9 9.2002V36.3002C71.9 40.7002 68.3 44.3002 63.9 44.3002H42.6" stroke="#A1652C" stroke-width="2" stroke-miterlimit="10" stroke-linecap="round" stroke-linejoin="round"/>
<path d="M20.6001 44.3003L42.6001 63.2003V44.3003" stroke="#A1652C" stroke-width="2" stroke-miterlimit="10" stroke-linecap="round" stroke-linejoin="round"/>
<path d="M85.3 122.7C102.587 122.7 116.6 108.687 116.6 91.4001C116.6 74.1136 102.587 60.1001 85.3 60.1001C68.0135 60.1001 54 74.1136 54 91.4001C54 108.687 68.0135 122.7 85.3 122.7Z" stroke="#A1652C" stroke-width="2" stroke-miterlimit="10" stroke-linecap="round" stroke-linejoin="round"/>
<path d="M105.7 80.2002C107.5 83.5002 108.6 87.4002 108.6 91.4002C108.6 96.7002 106.8 101.6 103.8 105.5" stroke="#A1652C" stroke-width="2" stroke-miterlimit="10" stroke-linecap="round" stroke-linejoin="round"/>
<path d="M66.4001 105C63.7001 101.2 62.1001 96.5003 62.1001 91.5003C62.1001 90.6003 62.2001 89.7003 62.3001 88.8003" stroke="#A1652C" stroke-width="2" stroke-miterlimit="10" stroke-linecap="round" stroke-linejoin="round"/>
<path d="M85.2998 70.0002V112.8" stroke="#A1652C" stroke-width="2" stroke-miterlimit="10" stroke-linecap="round" stroke-linejoin="round"/>
<path d="M75.3999 99.8004C75.3999 104.4 79.7999 108.1 85.1999 108.1C90.5999 108.1 94.9999 104.4 94.9999 99.8004C94.9999 95.2004 90.5999 91.5004 85.1999 91.5004C79.7999 91.5004 75.3999 87.8004 75.3999 83.2004C75.3999 78.6004 79.7999 74.9004 85.1999 74.9004C90.5999 74.9004 94.9999 78.6004 94.9999 83.2004" stroke="#A1652C" stroke-width="2" stroke-miterlimit="10" stroke-linecap="round" stroke-linejoin="round"/>
<path d="M54.9 99.1003L52.2 101.4C49.4 103.8 45.3 103.5 42.9 100.7L16.7 70.4003C14.3 67.6003 14.6 63.5003 17.4 61.1003L28.7 51.3003" stroke="#A1652C" stroke-width="2" stroke-miterlimit="10" stroke-linecap="round" stroke-linejoin="round"/>
<path d="M71.8999 17.3003L100.8 17.8003C104.7 17.9003 107.7 21.3003 107.2 25.2003L103.3 55.0003C103.1 56.6003 102.3 58.1003 101.1 59.1003L97.1999 62.4003" stroke="#A1652C" stroke-width="2" stroke-miterlimit="10" stroke-linecap="round" stroke-linejoin="round"/>
<path d="M93.8 35.6002C96.7271 35.6002 99.1 33.2273 99.1 30.3002C99.1 27.3731 96.7271 25.0002 93.8 25.0002C90.8729 25.0002 88.5 27.3731 88.5 30.3002C88.5 33.2273 90.8729 35.6002 93.8 35.6002Z" stroke="#A1652C" stroke-width="2" stroke-miterlimit="10" stroke-linecap="round" stroke-linejoin="round"/>
<path d="M35 76.3002L62 53.0002" stroke="#A1652C" stroke-width="2" stroke-miterlimit="10" stroke-linecap="round" stroke-linejoin="round"/>
<path d="M39.2998 81.9001L75.0998 51.1001" stroke="#A1652C" stroke-width="2" stroke-miterlimit="10" stroke-linecap="round" stroke-linejoin="round"/>
<path d="M12.3999 9.2002V33.8002H64.1999" stroke="#A1652C" stroke-width="2" stroke-miterlimit="10" stroke-linecap="round" stroke-linejoin="round"/>
<path d="M12.3999 29.2003H17.2999C18.4999 29.2003 19.5999 28.7003 20.3999 27.9003L26.5999 21.9003C28.1999 20.4003 30.5999 20.2003 32.2999 21.4003L37.3999 24.9003C39.1999 26.2003 41.6999 25.9002 43.2999 24.3002L48.6999 18.6002C49.5999 17.7002 50.6999 17.2003 51.9999 17.2003H59.0999C60.4999 17.2003 61.7999 16.6002 62.5999 15.5002L64.1999 13.5002" stroke="#A1652C" stroke-width="2" stroke-miterlimit="10" stroke-linecap="round" stroke-linejoin="round"/>
</svg>
