<svg width="113" height="109" viewBox="0 0 113 109" fill="none" xmlns="http://www.w3.org/2000/svg">
<path d="M57.4002 88.1001H106.2C109 88.1001 111.4 90.4001 111.4 93.3001V102.6C111.4 105.4 109.1 107.8 106.2 107.8H52.2002" stroke="#A1652C" stroke-width="2" stroke-miterlimit="10" stroke-linecap="round" stroke-linejoin="round"/>
<path d="M54.4 107.7H3.5C2.1 107.7 1 106.6 1 105.2V54.3003C1 52.9003 2.1 51.8003 3.5 51.8003H54.4C55.8 51.8003 56.9 52.9003 56.9 54.3003V105.2C56.9 106.6 55.8 107.7 54.4 107.7Z" stroke="#A1652C" stroke-width="2" stroke-miterlimit="10" stroke-linecap="round" stroke-linejoin="round"/>
<path d="M37.0998 51.9004V73.5004H20.7998V51.9004" stroke="#A1652C" stroke-width="2" stroke-miterlimit="10" stroke-linecap="round" stroke-linejoin="round"/>
<path d="M26.3999 51.9002V6.40021C26.3999 3.60021 28.6999 1.2002 31.5999 1.2002H87.2999C90.0999 1.2002 92.4999 3.50021 92.4999 6.40021V88.1002" stroke="#A1652C" stroke-width="2" stroke-miterlimit="10" stroke-linecap="round" stroke-linejoin="round"/>
<path d="M69.3 1.2002V27.5002H49.5V1.2002" stroke="#A1652C" stroke-width="2" stroke-miterlimit="10" stroke-linecap="round" stroke-linejoin="round"/>
<path d="M71.7998 88.1001C74.5998 88.1001 76.9998 90.4001 76.9998 93.3001V102.6C76.9998 105.4 74.6998 107.8 71.7998 107.8" stroke="#A1652C" stroke-width="2" stroke-miterlimit="10" stroke-linecap="round" stroke-linejoin="round"/>
<path d="M94.8001 88.1001C97.6001 88.1001 100 90.4001 100 93.3001H91.8001C91.8001 90.5001 89.5001 88.1001 86.6001 88.1001" stroke="#A1652C" stroke-width="2" stroke-miterlimit="10" stroke-linecap="round" stroke-linejoin="round"/>
</svg>
