<svg width="120" height="114" viewBox="0 0 120 114" fill="none" xmlns="http://www.w3.org/2000/svg">
<path d="M51.8 91.0001H18.6C8.9 91.0001 1 83.1 1 73.4C1 63.7 8.9 55.8 18.6 55.8H51.8V91.0001Z" stroke="#A1652C" stroke-width="2" stroke-miterlimit="10" stroke-linecap="round" stroke-linejoin="round"/>
<path d="M88.3998 105.6L51.7998 91V55.8L88.3998 41.2V105.6Z" stroke="#A1652C" stroke-width="2" stroke-miterlimit="10" stroke-linecap="round" stroke-linejoin="round"/>
<path d="M23.2 112.3C18.7 112.3 15.4 108.2 16.2 103.8L18.6 91H31L27.6 108.6C27.2 110.7 25.3 112.3 23.2 112.3Z" stroke="#A1652C" stroke-width="2" stroke-miterlimit="10" stroke-linecap="round" stroke-linejoin="round"/>
<path d="M43.5998 64.5H21.7998" stroke="#A1652C" stroke-width="2" stroke-miterlimit="10" stroke-linecap="round" stroke-linejoin="round"/>
<path d="M35.9998 70.3H21.7998" stroke="#A1652C" stroke-width="2" stroke-miterlimit="10" stroke-linecap="round" stroke-linejoin="round"/>
<path d="M18.6 91.0001C8.9 91.0001 1 83.1 1 73.4C1 63.7 8.9 55.8 18.6 55.8" stroke="#A1652C" stroke-width="2" stroke-miterlimit="10" stroke-linecap="round" stroke-linejoin="round"/>
<path d="M13.4999 82.2C10.3999 80.4 8.3999 77.1 8.3999 73.4C8.3999 69.7 10.4999 66.3 13.4999 64.5" stroke="#A1652C" stroke-width="2" stroke-miterlimit="10" stroke-linecap="round" stroke-linejoin="round"/>
<path d="M88.3999 64.5C91.4999 66.3 93.4999 69.6 93.4999 73.3C93.4999 77 91.3999 80.4 88.3999 82.2" stroke="#A1652C" stroke-width="2" stroke-miterlimit="10" stroke-linecap="round" stroke-linejoin="round"/>
<path d="M52.6004 20.6L53.6004 25.7C53.8004 27 53.4004 28.2 52.5004 29.1L52.8004 30.9C53.3004 33.3 51.6004 35.7 49.2004 36.1L39.8004 37.9C37.4004 38.4 35.0004 36.8 34.6004 34.3L32.1004 20.9L30.9004 14.4C30.6004 12.6 31.8004 10.8 33.6004 10.5C35.4004 10.2 37.2004 11.4 37.5004 13.2L38.7004 19.6L48.5004 17.8C50.3004 17.3 52.2004 18.6 52.6004 20.6Z" stroke="#A1652C" stroke-width="2" stroke-miterlimit="10" stroke-linecap="round" stroke-linejoin="round"/>
<path d="M31.8426 20.1489L18.3755 22.667L22.2721 43.5066L35.7392 40.9885L31.8426 20.1489Z" stroke="#A1652C" stroke-width="2" stroke-miterlimit="10" stroke-linecap="round" stroke-linejoin="round"/>
<path d="M118 47C117.3 48.5 116.1 49.7 114.5 50.4L113 51L103.9 54.6C102.4 55.2 100.7 54.4 100.1 52.9L96.4999 43.7L95.8999 42.2C94.5999 38.9 96.1999 35.2 99.4999 34C101.1 33.4 102.9 33.4 104.4 34.1C105.9 34.8 107.1 36 107.8 37.6L108.4 39.1L109.9 38.5C113.2 37.2 116.9 38.9 118.1 42.1C118.7 43.8 118.6 45.5 118 47Z" stroke="#A1652C" stroke-width="2" stroke-miterlimit="10" stroke-linecap="round" stroke-linejoin="round"/>
<path d="M78.1001 21.4L85.1001 14.4L81.2001 12.4L88.4001 6" stroke="#A1652C" stroke-width="2" stroke-miterlimit="10" stroke-linecap="round" stroke-linejoin="round"/>
<path d="M68.2998 16.4L75.2998 9.39996L71.3998 7.39996L78.5998 1" stroke="#A1652C" stroke-width="2" stroke-miterlimit="10" stroke-linecap="round" stroke-linejoin="round"/>
</svg>
