<svg width="149" height="96" viewBox="0 0 149 96" fill="none" xmlns="http://www.w3.org/2000/svg">
<path d="M104.212 68.1993V58.2993C104.212 34.5993 85.0124 15.2993 61.2124 15.2993C37.5124 15.2993 18.2124 34.4993 18.2124 58.2993V68.1993" stroke="#A1652C" stroke-width="2" stroke-miterlimit="10" stroke-linecap="round" stroke-linejoin="round"/>
<path d="M61.2123 87.9991C84.8123 87.9991 103.312 91.2991 114.812 94.0991C119.012 95.0991 122.112 90.2991 119.412 86.8991L106.212 70.2991C104.612 68.2991 102.412 66.8991 99.9124 66.2991C93.9124 64.8991 81.1123 62.5991 61.2123 62.5991C41.3123 62.5991 28.4124 64.8991 22.5124 66.2991C20.0124 66.8991 17.8123 68.2991 16.2123 70.2991L3.01237 86.8991C0.312367 90.2991 3.41237 95.0991 7.61237 94.0991C19.2124 91.2991 37.6123 87.9991 61.2123 87.9991Z" stroke="#A1652C" stroke-width="2" stroke-miterlimit="10" stroke-linecap="round" stroke-linejoin="round"/>
<path d="M9.41211 87.1993C20.6121 84.3993 38.4121 81.2993 61.2121 81.2993C84.0121 81.2993 101.912 84.4993 113.012 87.1993" stroke="#A1652C" stroke-width="2" stroke-miterlimit="10" stroke-linecap="round" stroke-linejoin="round"/>
<path d="M70.4123 48.5992H52.0123C50.1123 48.5992 48.6123 47.0992 48.6123 45.1992V37.8992C48.6123 35.9992 50.1123 34.4993 52.0123 34.4993H70.4123C72.3123 34.4993 73.8123 35.9992 73.8123 37.8992V45.1992C73.8123 47.0992 72.3123 48.5992 70.4123 48.5992Z" stroke="#A1652C" stroke-width="2" stroke-miterlimit="10" stroke-linecap="round" stroke-linejoin="round"/>
<path d="M82.8125 21.1993C84.0125 18.5993 86.7125 16.7993 89.7125 16.7993H101.612C105.812 16.7993 109.212 20.1993 109.212 24.3993C109.212 28.5993 105.812 31.9993 101.612 31.9993H95.1125" stroke="#A1652C" stroke-width="2" stroke-miterlimit="10" stroke-linecap="round" stroke-linejoin="round"/>
<path d="M61.3125 15.2993V1.69922H130.112V27.8992C130.112 43.9992 119.112 57.4992 104.212 61.1992" stroke="#A1652C" stroke-width="2" stroke-miterlimit="10" stroke-linecap="round" stroke-linejoin="round"/>
<path d="M130.412 14.2992C138.712 8.29915 148.712 15.7991 146.912 25.6991C144.712 37.0991 133.812 35.2991 123.112 49.0991" stroke="#A1652C" stroke-width="2" stroke-miterlimit="10" stroke-linecap="round" stroke-linejoin="round"/>
<path d="M103.312 67.3992H142.912C144.712 67.3992 146.112 68.7992 146.112 70.5992C146.112 72.3992 144.712 73.7992 142.912 73.7992H109.012" stroke="#A1652C" stroke-width="2" stroke-miterlimit="10" stroke-linecap="round" stroke-linejoin="round"/>
<path d="M135.612 67.3992C135.612 64.2992 132.812 61.9992 129.712 62.6992L117.512 66.7993C115.712 67.1993 113.712 66.8993 112.112 66.0993L108.712 64.3992" stroke="#A1652C" stroke-width="2" stroke-miterlimit="10" stroke-linecap="round" stroke-linejoin="round"/>
</svg>
