<svg width="91" height="60" viewBox="0 0 91 60" fill="none" xmlns="http://www.w3.org/2000/svg">
<path d="M59.2576 37.7934C58.2674 37.6284 57.2772 37.3808 56.287 37.1332C55.2967 36.8857 54.389 36.5556 53.3988 36.3081C51.5009 35.7304 49.603 34.9878 47.7876 34.2451C47.7051 34.2451 47.6226 34.0801 47.7051 33.9976C47.7051 33.915 47.8701 33.8325 47.9526 33.915C49.8506 34.5752 51.7485 35.1528 53.6464 35.7304C54.6366 35.978 55.5443 36.2256 56.5345 36.4731C57.5247 36.7207 58.4324 36.8857 59.4227 37.0507C59.6702 37.1333 59.7527 37.2983 59.7527 37.5458C59.5877 37.6283 59.4227 37.7934 59.2576 37.7934Z" fill="#A1652C"/>
<path d="M14.6983 20.7946C13.1304 19.7218 11.6451 18.4016 10.3248 16.9987C9.00451 15.5959 7.93177 13.863 7.27163 11.9651C6.694 10.0672 6.61148 7.92176 7.43666 6.02384C8.26184 4.12592 9.99472 2.80563 11.7276 1.89793C15.3584 0.165051 19.3193 0 23.1976 0C27.076 0.0825181 30.9543 0.412591 34.7502 1.23777C42.2593 2.97065 49.5209 5.94132 56.1224 10.0672C62.6413 14.1931 68.5001 19.6393 72.461 26.3233C72.5435 26.4883 72.5435 26.7359 72.2959 26.9009C72.1309 26.9834 71.8833 26.9834 71.7183 26.7359C67.8399 20.1344 62.1462 14.7707 55.6273 10.7274C49.1083 6.68397 41.9292 3.79583 34.5026 2.06295C30.7893 1.23777 26.9935 0.9077 23.1151 0.825181C19.3193 0.825181 15.4409 1.07275 11.9752 2.64059C10.3248 3.46577 8.75696 4.62102 8.09681 6.27138C7.35415 7.92175 7.43666 9.90218 7.93177 11.6351C8.42688 13.4505 9.49962 15.0183 10.7374 16.5036C11.9752 17.989 13.378 19.2267 14.7808 20.547C14.8633 20.6296 14.8633 20.7121 14.7808 20.7121C14.8633 20.7946 14.7808 20.7946 14.6983 20.7946Z" fill="#A1652C"/>
<path d="M13.7905 6.3538C23.1151 4.29085 51.0887 13.9455 65.8595 29.2938" stroke="#A1652C" stroke-width="2" stroke-miterlimit="10" stroke-linecap="round" stroke-linejoin="round"/>
<path d="M5.29095 29.8717C7.66077 29.8717 9.58189 27.9505 9.58189 25.5807C9.58189 23.2109 7.66077 21.2898 5.29095 21.2898C2.92112 21.2898 1 23.2109 1 25.5807C1 27.9505 2.92112 29.8717 5.29095 29.8717Z" stroke="#A1652C" stroke-width="2" stroke-miterlimit="10" stroke-linecap="round" stroke-linejoin="round"/>
<path d="M21.2992 29.129C23.6691 29.129 25.5902 27.2079 25.5902 24.838C25.5902 22.4682 23.6691 20.5471 21.2992 20.5471C18.9294 20.5471 17.0083 22.4682 17.0083 24.838C17.0083 27.2079 18.9294 29.129 21.2992 29.129Z" stroke="#A1652C" stroke-width="2" stroke-miterlimit="10" stroke-linecap="round" stroke-linejoin="round"/>
<path d="M26.9931 38.041C28.0413 38.041 28.891 37.1912 28.891 36.143C28.891 35.0949 28.0413 34.2451 26.9931 34.2451C25.9449 34.2451 25.0952 35.0949 25.0952 36.143C25.0952 37.1912 25.9449 38.041 26.9931 38.041Z" stroke="#A1652C" stroke-width="2" stroke-miterlimit="10" stroke-linecap="round" stroke-linejoin="round"/>
<path d="M14.6977 36.4731C15.2446 36.4731 15.688 36.0298 15.688 35.4829C15.688 34.936 15.2446 34.4927 14.6977 34.4927C14.1509 34.4927 13.7075 34.936 13.7075 35.4829C13.7075 36.0298 14.1509 36.4731 14.6977 36.4731Z" stroke="#A1652C" stroke-width="2" stroke-miterlimit="10" stroke-linecap="round" stroke-linejoin="round"/>
<path d="M4.05321 15.8435C4.60009 15.8435 5.04342 15.4001 5.04342 14.8532C5.04342 14.3064 4.60009 13.863 4.05321 13.863C3.50633 13.863 3.06299 14.3064 3.06299 14.8532C3.06299 15.4001 3.50633 15.8435 4.05321 15.8435Z" stroke="#A1652C" stroke-width="2" stroke-miterlimit="10" stroke-linecap="round" stroke-linejoin="round"/>
<path d="M18.081 14.9357C19.1292 14.9357 19.9789 14.086 19.9789 13.0378C19.9789 11.9896 19.1292 11.1399 18.081 11.1399C17.0328 11.1399 16.1831 11.9896 16.1831 13.0378C16.1831 14.086 17.0328 14.9357 18.081 14.9357Z" stroke="#A1652C" stroke-width="2" stroke-miterlimit="10" stroke-linecap="round" stroke-linejoin="round"/>
<path d="M37.9682 33.7501C41.0672 33.7501 43.5794 31.2378 43.5794 28.1388C43.5794 25.0398 41.0672 22.5276 37.9682 22.5276C34.8692 22.5276 32.3569 25.0398 32.3569 28.1388C32.3569 31.2378 34.8692 33.7501 37.9682 33.7501Z" stroke="#A1652C" stroke-width="2" stroke-miterlimit="10" stroke-linecap="round" stroke-linejoin="round"/>
<path d="M41.0214 45.3026C42.9811 45.3026 44.5697 43.714 44.5697 41.7543C44.5697 39.7947 42.9811 38.2061 41.0214 38.2061C39.0618 38.2061 37.4731 39.7947 37.4731 41.7543C37.4731 43.714 39.0618 45.3026 41.0214 45.3026Z" stroke="#A1652C" stroke-width="2" stroke-miterlimit="10" stroke-linecap="round" stroke-linejoin="round"/>
<path d="M28.4785 49.841C29.8457 49.841 30.954 48.7326 30.954 47.3654C30.954 45.9982 29.8457 44.8899 28.4785 44.8899C27.1113 44.8899 26.0029 45.9982 26.0029 47.3654C26.0029 48.7326 27.1113 49.841 28.4785 49.841Z" stroke="#A1652C" stroke-width="2" stroke-miterlimit="10" stroke-linecap="round" stroke-linejoin="round"/>
<path d="M74.1111 58.0928C82.7245 58.0928 89.707 51.1102 89.707 42.4968C89.707 33.8834 82.7245 26.9009 74.1111 26.9009C65.4977 26.9009 58.5151 33.8834 58.5151 42.4968C58.5151 51.1102 65.4977 58.0928 74.1111 58.0928Z" stroke="#A1652C" stroke-width="2" stroke-miterlimit="10" stroke-linecap="round" stroke-linejoin="round"/>
<path d="M65.6943 34.0801L82.528 50.9138" stroke="#A1652C" stroke-width="2" stroke-miterlimit="10" stroke-linecap="round" stroke-linejoin="round"/>
<path d="M82.528 34.0801L65.6943 50.9138" stroke="#A1652C" stroke-width="2" stroke-miterlimit="10" stroke-linecap="round" stroke-linejoin="round"/>
</svg>
