<svg width="89" height="72" viewBox="0 0 89 72" fill="none" xmlns="http://www.w3.org/2000/svg">
<path d="M56.2871 56.1221C54.9668 56.8648 53.564 57.4424 52.0786 57.855C47.2926 59.1753 42.424 58.4326 38.3806 56.2872C37.8855 56.0396 37.3079 56.1221 36.9778 56.5347C35.3275 58.7627 32.9344 60.4956 29.9638 61.3208C23.1148 63.2187 16.0182 59.1753 14.1203 52.2438C13.6252 50.5109 13.5427 48.8605 13.7902 47.2102C13.8727 46.7151 13.5427 46.22 13.0476 46.0549C7.68388 44.6521 3.2279 40.4437 1.66005 34.7499C-0.650454 26.1681 4.38315 17.4211 12.965 15.0281C17.256 13.8728 21.6294 14.533 25.2602 16.6784C25.8379 17.0085 26.5805 16.761 26.8281 16.1008C28.1484 12.5525 31.0365 9.58192 34.9974 8.50918C41.4338 6.7763 48.0353 10.5721 49.7681 16.926C50.0982 18.0812 50.2632 19.2365 50.1807 20.3918C50.1807 20.8869 50.5108 21.382 51.0059 21.4645C57.6074 22.8673 63.3011 27.8184 65.199 34.8324C65.6941 36.7304 65.9417 38.5457 65.8592 40.4437" stroke="#A1652C" stroke-width="2" stroke-miterlimit="10" stroke-linecap="round" stroke-linejoin="round"/>
<path d="M4.30073 61.8158C6.12367 61.8158 7.60145 60.338 7.60145 58.5151C7.60145 56.6921 6.12367 55.2144 4.30073 55.2144C2.47778 55.2144 1 56.6921 1 58.5151C1 60.338 2.47778 61.8158 4.30073 61.8158Z" stroke="#A1652C" stroke-width="2" stroke-miterlimit="10" stroke-linecap="round" stroke-linejoin="round"/>
<path d="M49.6034 32.9346C51.2538 33.6772 52.5741 34.8325 53.4818 36.1528C55.2972 38.7934 55.7098 42.1766 54.3069 45.3123C52.5741 49.1081 48.2006 50.7585 44.4048 49.1081C41.3516 47.7878 40.0313 44.2396 41.3516 41.1864C42.4243 38.7934 45.3125 37.7206 47.7055 38.7933C49.6034 39.6185 50.5111 41.9291 49.6034 43.827C48.9433 45.3948 47.1279 46.0549 45.56 45.3948C44.3222 44.8172 43.7446 43.4144 44.3222 42.1766" stroke="#A1652C" stroke-width="2" stroke-miterlimit="10" stroke-linecap="round" stroke-linejoin="round"/>
<path d="M23.1977 9.6644C22.29 9.6644 21.4648 9.41686 20.7221 9.00427C19.3193 8.17909 18.4116 6.61124 18.4116 4.87836C18.4116 2.73289 20.1445 1 22.29 1C24.0229 1 25.3431 2.40282 25.3431 4.05318C25.3431 5.45599 24.2704 6.52873 22.8676 6.52873C21.7949 6.52873 20.8872 5.62101 20.8872 4.54827" stroke="#A1652C" stroke-width="2" stroke-miterlimit="10" stroke-linecap="round" stroke-linejoin="round"/>
<path d="M29.964 38.7108C26.5808 38.1332 24.3528 34.915 24.9304 31.6143" stroke="#A1652C" stroke-width="2" stroke-miterlimit="10" stroke-linecap="round" stroke-linejoin="round"/>
<path d="M59.0928 16.0184C60.7431 14.8632 62.9711 15.1932 64.2089 16.8436" stroke="#A1652C" stroke-width="2" stroke-miterlimit="10" stroke-linecap="round" stroke-linejoin="round"/>
<path d="M39.1235 32.0268C40.035 32.0268 40.7739 31.2879 40.7739 30.3764C40.7739 29.465 40.035 28.7261 39.1235 28.7261C38.212 28.7261 37.4731 29.465 37.4731 30.3764C37.4731 31.2879 38.212 32.0268 39.1235 32.0268Z" stroke="#A1652C" stroke-width="2" stroke-miterlimit="10" stroke-linecap="round" stroke-linejoin="round"/>
<path d="M13.9551 24.6003C14.5475 24.6003 15.0278 24.12 15.0278 23.5276C15.0278 22.9351 14.5475 22.4548 13.9551 22.4548C13.3626 22.4548 12.8823 22.9351 12.8823 23.5276C12.8823 24.12 13.3626 24.6003 13.9551 24.6003Z" stroke="#A1652C" stroke-width="2" stroke-miterlimit="10" stroke-linecap="round" stroke-linejoin="round"/>
<path d="M18.081 42.8366C18.8558 42.8366 19.4838 42.2086 19.4838 41.4338C19.4838 40.6591 18.8558 40.031 18.081 40.031C17.3063 40.031 16.6782 40.6591 16.6782 41.4338C16.6782 42.2086 17.3063 42.8366 18.081 42.8366Z" stroke="#A1652C" stroke-width="2" stroke-miterlimit="10" stroke-linecap="round" stroke-linejoin="round"/>
<path d="M25.9204 51.9137C26.7407 51.9137 27.4057 51.2488 27.4057 50.4284C27.4057 49.6081 26.7407 48.9431 25.9204 48.9431C25.1001 48.9431 24.4351 49.6081 24.4351 50.4284C24.4351 51.2488 25.1001 51.9137 25.9204 51.9137Z" stroke="#A1652C" stroke-width="2" stroke-miterlimit="10" stroke-linecap="round" stroke-linejoin="round"/>
<path d="M41.5161 66.9321C42.3364 66.9321 43.0014 66.2671 43.0014 65.4468C43.0014 64.6265 42.3364 63.9614 41.5161 63.9614C40.6958 63.9614 40.0308 64.6265 40.0308 65.4468C40.0308 66.2671 40.6958 66.9321 41.5161 66.9321Z" stroke="#A1652C" stroke-width="2" stroke-miterlimit="10" stroke-linecap="round" stroke-linejoin="round"/>
<path d="M35.4927 16.8434C36.313 16.8434 36.978 16.1784 36.978 15.3581C36.978 14.5378 36.313 13.8728 35.4927 13.8728C34.6723 13.8728 34.0073 14.5378 34.0073 15.3581C34.0073 16.1784 34.6723 16.8434 35.4927 16.8434Z" stroke="#A1652C" stroke-width="2" stroke-miterlimit="10" stroke-linecap="round" stroke-linejoin="round"/>
<path d="M72.0486 70.7277C80.662 70.7277 87.6445 63.7452 87.6445 55.1318C87.6445 46.5184 80.662 39.5359 72.0486 39.5359C63.4352 39.5359 56.4526 46.5184 56.4526 55.1318C56.4526 63.7452 63.4352 70.7277 72.0486 70.7277Z" stroke="#A1652C" stroke-width="2" stroke-miterlimit="10" stroke-linecap="round" stroke-linejoin="round"/>
<path d="M63.6318 46.7148L80.4655 63.6311" stroke="#A1652C" stroke-width="2" stroke-miterlimit="10" stroke-linecap="round" stroke-linejoin="round"/>
<path d="M80.4655 46.7148L63.6318 63.6311" stroke="#A1652C" stroke-width="2" stroke-miterlimit="10" stroke-linecap="round" stroke-linejoin="round"/>
</svg>
