<svg width="97" height="69" viewBox="0 0 97 69" fill="none" xmlns="http://www.w3.org/2000/svg">
<path d="M66.6018 34.0073L58.3499 43.1668C57.3597 44.2395 56.287 45.0647 55.1317 45.8074C50.4282 48.448 44.4044 48.0354 40.196 44.2396L37.8029 42.0941C33.512 38.2982 32.4393 32.2744 34.6672 27.3234C35.1624 26.0856 35.905 25.0128 36.8127 23.9401L45.0645 14.7806C46.1373 13.6253 47.2925 12.7176 48.6128 11.9749C51.0058 10.6547 53.8115 10.2421 56.5346 10.6547C58.9276 10.9848 61.2381 12.0575 63.2185 13.7904L65.6115 15.9358C67.592 17.6687 68.8298 19.8967 69.4899 22.2072C70.15 24.7653 70.0675 27.4884 69.0773 30.0464C68.4997 31.4493 67.6745 32.852 66.6018 34.0073Z" stroke="#A1652C" stroke-width="2" stroke-miterlimit="10" stroke-linecap="round" stroke-linejoin="round"/>
<path d="M71.1404 20.2266L69.4075 22.2071C68.8299 19.8141 67.5096 17.6685 65.5291 15.9357L63.1361 13.7902C61.1557 12.0573 58.8452 10.9846 56.4521 10.6545L58.185 8.67408C60.083 6.61113 63.3012 6.36357 65.3641 8.26149L70.7278 13.0475C72.8733 14.9454 73.0383 18.1637 71.1404 20.2266Z" stroke="#A1652C" stroke-width="2" stroke-miterlimit="10" stroke-linecap="round" stroke-linejoin="round"/>
<path d="M57.1123 56.2872L55.1318 45.8074" stroke="#A1652C" stroke-width="2" stroke-miterlimit="10" stroke-linecap="round" stroke-linejoin="round"/>
<path d="M48.6132 11.9749L46.4678 1" stroke="#A1652C" stroke-width="2" stroke-miterlimit="10" stroke-linecap="round" stroke-linejoin="round"/>
<path d="M79.887 30.8716L68.9946 30.0464" stroke="#A1652C" stroke-width="2" stroke-miterlimit="10" stroke-linecap="round" stroke-linejoin="round"/>
<path d="M34.5848 27.3233L23.6924 26.4155" stroke="#A1652C" stroke-width="2" stroke-miterlimit="10" stroke-linecap="round" stroke-linejoin="round"/>
<path d="M66.9321 43.0841L62.311 38.8757" stroke="#A1652C" stroke-width="2" stroke-miterlimit="10" stroke-linecap="round" stroke-linejoin="round"/>
<path d="M40.6913 19.5665L32.8521 12.47" stroke="#A1652C" stroke-width="2" stroke-miterlimit="10" stroke-linecap="round" stroke-linejoin="round"/>
<path d="M65.4468 8.26166L68.3349 4.96094" stroke="#A1652C" stroke-width="2" stroke-miterlimit="10" stroke-linecap="round" stroke-linejoin="round"/>
<path d="M70.8105 13.0478L73.6987 9.74707" stroke="#A1652C" stroke-width="2" stroke-miterlimit="10" stroke-linecap="round" stroke-linejoin="round"/>
<path d="M57.5247 22.4548L45.4771 35.9878" stroke="#A1652C" stroke-width="2" stroke-miterlimit="10" stroke-linecap="round" stroke-linejoin="round"/>
<path d="M1 50.8411C1.49511 50.1809 2.15526 49.5207 3.14548 48.8606" stroke="#A1652C" stroke-width="2" stroke-linecap="round" stroke-linejoin="round"/>
<path d="M15.3579 49.0256C17.5859 50.2634 19.7314 51.5012 22.2069 52.0788C24.1048 52.4914 26.0853 52.4914 27.9832 51.9963" stroke="#A1652C" stroke-width="2" stroke-linecap="round" stroke-linejoin="round" stroke-dasharray="8.39 8.39"/>
<path d="M33.5122 48.943C34.2549 48.2829 34.8325 47.5403 35.3276 46.7151" stroke="#A1652C" stroke-width="2" stroke-linecap="round" stroke-linejoin="round"/>
<path d="M22.2075 44.1569C24.0304 44.1569 25.5082 42.6791 25.5082 40.8561C25.5082 39.0332 24.0304 37.5554 22.2075 37.5554C20.3845 37.5554 18.9067 39.0332 18.9067 40.8561C18.9067 42.6791 20.3845 44.1569 22.2075 44.1569Z" stroke="#A1652C" stroke-width="2" stroke-miterlimit="10" stroke-linecap="round" stroke-linejoin="round"/>
<path d="M82.3627 23.61C84.1857 23.61 85.6635 22.1322 85.6635 20.3093C85.6635 18.4863 84.1857 17.0085 82.3627 17.0085C80.5398 17.0085 79.062 18.4863 79.062 20.3093C79.062 22.1322 80.5398 23.61 82.3627 23.61Z" stroke="#A1652C" stroke-width="2" stroke-miterlimit="10" stroke-linecap="round" stroke-linejoin="round"/>
<path d="M79.8874 67.4272C88.5008 67.4272 95.4834 60.4446 95.4834 51.8313C95.4834 43.2179 88.5008 36.2354 79.8874 36.2354C71.274 36.2354 64.2915 43.2179 64.2915 51.8313C64.2915 60.4446 71.274 67.4272 79.8874 67.4272Z" stroke="#A1652C" stroke-width="2" stroke-miterlimit="10" stroke-linecap="round" stroke-linejoin="round"/>
<path d="M71.4707 43.3318L88.3044 60.248" stroke="#A1652C" stroke-width="2" stroke-miterlimit="10" stroke-linecap="round" stroke-linejoin="round"/>
<path d="M88.3044 43.3318L71.4707 60.248" stroke="#A1652C" stroke-width="2" stroke-miterlimit="10" stroke-linecap="round" stroke-linejoin="round"/>
</svg>
