<svg width="85" height="80" viewBox="0 0 85 80" fill="none" xmlns="http://www.w3.org/2000/svg">
<path d="M52.8212 58.6802C51.0058 59.4228 49.1079 59.7529 47.21 59.7529" stroke="#A1652C" stroke-width="2" stroke-miterlimit="10" stroke-linecap="round" stroke-linejoin="round"/>
<path d="M47.2101 59.7528C42.9192 59.7528 38.5457 58.02 35.245 53.8116C32.0268 49.6857 31.2016 44.2394 32.7694 39.2058C36.4002 27.8183 45.6423 13.5427 47.0451 11.3972C47.1276 11.2322 47.2926 11.2322 47.3751 11.3972C48.7779 13.5427 58.02 27.8183 61.6508 39.2058C62.5585 42.1765 62.641 45.3122 61.8983 48.2828" stroke="#A1652C" stroke-width="2" stroke-miterlimit="10" stroke-linecap="round" stroke-linejoin="round"/>
<path d="M19.2366 65.364C16.8435 65.364 14.368 64.3738 12.5526 61.9808C10.7372 59.6703 10.3246 56.6171 11.2323 53.894C13.1302 47.7877 17.9988 40.196 19.0715 38.5457C19.1541 38.3806 19.4016 38.3806 19.4841 38.5457C20.5569 40.196 25.4254 47.7877 27.3233 53.894C28.231 56.6996 27.7359 59.7528 26.0031 61.9808C24.0226 64.3738 21.6296 65.364 19.2366 65.364Z" stroke="#A1652C" stroke-width="2" stroke-miterlimit="10" stroke-linecap="round" stroke-linejoin="round"/>
<path d="M1 64.374H15.2756" stroke="#A1652C" stroke-width="2" stroke-miterlimit="10" stroke-linecap="round" stroke-linejoin="round"/>
<path d="M32.0269 64.374H52.4913" stroke="#A1652C" stroke-width="2" stroke-miterlimit="10" stroke-linecap="round" stroke-linejoin="round"/>
<path d="M10.7373 68.9949H53.8943" stroke="#A1652C" stroke-width="2" stroke-miterlimit="10" stroke-linecap="round" stroke-linejoin="round"/>
<path d="M15.2758 26.4156C18.3748 26.4156 20.887 23.9034 20.887 20.8044C20.887 17.7054 18.3748 15.1931 15.2758 15.1931C12.1768 15.1931 9.66455 17.7054 9.66455 20.8044C9.66455 23.9034 12.1768 26.4156 15.2758 26.4156Z" stroke="#A1652C" stroke-width="2" stroke-miterlimit="10" stroke-linecap="round" stroke-linejoin="round"/>
<path d="M30.8715 15.1105C32.7856 15.1105 34.3373 13.5588 34.3373 11.6447C34.3373 9.73064 32.7856 8.17896 30.8715 8.17896C28.9574 8.17896 27.4058 9.73064 27.4058 11.6447C27.4058 13.5588 28.9574 15.1105 30.8715 15.1105Z" stroke="#A1652C" stroke-width="2" stroke-miterlimit="10" stroke-linecap="round" stroke-linejoin="round"/>
<path d="M18.4941 5.2909C19.679 5.2909 20.6396 4.33036 20.6396 3.14545C20.6396 1.96054 19.679 1 18.4941 1C17.3092 1 16.3486 1.96054 16.3486 3.14545C16.3486 4.33036 17.3092 5.2909 18.4941 5.2909Z" stroke="#A1652C" stroke-width="2" stroke-miterlimit="10" stroke-linecap="round" stroke-linejoin="round"/>
<path d="M27.7362 10.2421L20.1445 4.46582" stroke="#A1652C" stroke-width="2" stroke-miterlimit="10" stroke-linecap="round" stroke-linejoin="round"/>
<path d="M20.2266 18.0812L28.0658 13.7078" stroke="#A1652C" stroke-width="2" stroke-miterlimit="10" stroke-linecap="round" stroke-linejoin="round"/>
<path d="M68.0871 78.237C76.7005 78.237 83.6831 71.2545 83.6831 62.6411C83.6831 54.0277 76.7005 47.0452 68.0871 47.0452C59.4738 47.0452 52.4912 54.0277 52.4912 62.6411C52.4912 71.2545 59.4738 78.237 68.0871 78.237Z" stroke="#A1652C" stroke-width="2" stroke-miterlimit="10" stroke-linecap="round" stroke-linejoin="round"/>
<path d="M60.0005 61.6508L65.6117 70.5627L76.174 54.6367" stroke="#A1652C" stroke-width="2" stroke-miterlimit="10" stroke-linecap="round" stroke-linejoin="round"/>
</svg>
