<svg width="75" height="61" viewBox="0 0 75 61" fill="none" xmlns="http://www.w3.org/2000/svg">
<path d="M58.3502 59.5879H7.18895C6.44628 59.5879 5.86865 59.0103 5.86865 58.2676V1H51.9138C55.4621 1 58.4327 3.88815 58.4327 7.51895V28.396" stroke="#A1652C" stroke-width="2" stroke-miterlimit="10" stroke-linecap="round" stroke-linejoin="round"/>
<path d="M58.3503 59.5878C66.9637 59.5878 73.9463 52.6053 73.9463 43.9919C73.9463 35.3785 66.9637 28.396 58.3503 28.396C49.7369 28.396 42.7544 35.3785 42.7544 43.9919C42.7544 52.6053 49.7369 59.5878 58.3503 59.5878Z" stroke="#A1652C" stroke-width="2" stroke-miterlimit="10" stroke-linecap="round" stroke-linejoin="round"/>
<path d="M50.2637 43.0016L55.8749 51.9136L66.4372 36.0701" stroke="#A1652C" stroke-width="2" stroke-miterlimit="10" stroke-linecap="round" stroke-linejoin="round"/>
<path d="M15.6052 8.67432C17.0906 12.7177 21.299 18.2464 21.6291 20.0618C21.9591 21.8772 18.4934 22.4549 16.7605 21.7947C15.3577 22.2898 11.2318 23.6101 13.7073 19.0716" stroke="#A1652C" stroke-width="2" stroke-miterlimit="10" stroke-linecap="round" stroke-linejoin="round"/>
<path d="M20.2264 35.9053C23.197 34.9976 24.4348 32.7696 24.6824 32.192C24.6824 32.1095 24.6824 32.0269 24.5998 32.0269C24.0222 31.6143 20.7215 29.3039 19.4837 29.2214C18.4935 29.1388 17.7509 29.7165 17.5033 30.0465C17.4208 30.1291 17.2557 30.1291 17.1732 30.0465C16.8432 29.7165 16.183 29.1388 15.1928 29.2214C13.955 29.3039 10.6543 31.6143 10.0767 32.0269C9.99415 32.0269 9.99414 32.1095 9.99414 32.192C10.2417 32.6871 11.4795 34.9151 14.4501 35.9053" stroke="#A1652C" stroke-width="2" stroke-miterlimit="10" stroke-linecap="round" stroke-linejoin="round"/>
<path d="M17.3383 37.3081C15.2754 37.3081 13.625 35.6577 13.625 33.5947V32.7696C13.625 32.7696 16.018 32.4395 17.0908 33.0996C17.2558 33.1822 17.3383 33.1822 17.5034 33.0996C18.6586 32.357 20.9691 32.7696 20.9691 32.7696V33.5947C20.9691 35.6577 19.3188 37.3081 17.3383 37.3081Z" stroke="#A1652C" stroke-width="2" stroke-miterlimit="10" stroke-linecap="round" stroke-linejoin="round"/>
<path d="M17.3384 33.2646V35.5752" stroke="#A1652C" stroke-width="2" stroke-miterlimit="10" stroke-linecap="round" stroke-linejoin="round"/>
<path d="M29.1382 30.5415H45.3117" stroke="#A1652C" stroke-width="2" stroke-miterlimit="10" stroke-linecap="round" stroke-linejoin="round"/>
<path d="M29.1382 33.5947H42.1761" stroke="#A1652C" stroke-width="2" stroke-miterlimit="10" stroke-linecap="round" stroke-linejoin="round"/>
<path d="M24.6824 48.4479C23.197 50.4284 20.4739 51.8311 17.3383 51.8311C14.2026 51.8311 11.4795 50.5109 9.99414 48.4479C11.4795 46.4675 14.2026 45.0647 17.3383 45.0647C20.4739 45.1472 23.197 46.4675 24.6824 48.4479Z" stroke="#A1652C" stroke-width="2" stroke-miterlimit="10" stroke-linecap="round" stroke-linejoin="round"/>
<path d="M17.1733 50.2634C18.2215 50.2634 19.0712 49.4137 19.0712 48.3655C19.0712 47.3173 18.2215 46.4675 17.1733 46.4675C16.1251 46.4675 15.2754 47.3173 15.2754 48.3655C15.2754 49.4137 16.1251 50.2634 17.1733 50.2634Z" stroke="#A1652C" stroke-width="2" stroke-miterlimit="10" stroke-linecap="round" stroke-linejoin="round"/>
<path d="M29.1382 13.8728H51.3356" stroke="#A1652C" stroke-width="2" stroke-miterlimit="10" stroke-linecap="round" stroke-linejoin="round"/>
<path d="M29.1382 16.8435H46.9621" stroke="#A1652C" stroke-width="2" stroke-miterlimit="10" stroke-linecap="round" stroke-linejoin="round"/>
<path d="M29.1382 46.7151H39.618" stroke="#A1652C" stroke-width="2" stroke-miterlimit="10" stroke-linecap="round" stroke-linejoin="round"/>
<path d="M29.1382 49.6858H40.9383" stroke="#A1652C" stroke-width="2" stroke-miterlimit="10" stroke-linecap="round" stroke-linejoin="round"/>
<path d="M1 15.7708H5.78605V1H3.80561C2.23777 1 1 2.23779 1 3.80564V15.7708V15.7708Z" stroke="#A1652C" stroke-width="2" stroke-miterlimit="10" stroke-linecap="round" stroke-linejoin="round"/>
</svg>
